<svg xmlns="http://www.w3.org/2000/svg" width="80" height="80" fill="none"><path fill="#E7F2FF" d="M40 43.05l3.688 15.019L40 72h-3.75a1.876 1.876 0 01-1.875-1.875V43.05H40z"/><path fill="#C9E1FF" d="M45.625 43.05v27.076c0 1.035-.84 1.875-1.875 1.875H40V43.05h5.625z"/><path fill="#FF7DA0" d="M40 10.658l8.785 11.718-8.784 19.592H15.846a2.767 2.767 0 01-2.768-2.767V13.426a2.767 2.767 0 012.768-2.768H40z"/><path fill="#F85D86" d="M66.922 13.426V39.2a2.767 2.767 0 01-2.767 2.767H40v-31.31h24.155a2.767 2.767 0 012.767 2.768z"/><path fill="#FF5784" d="M16.484 11.75H40l2.813-1.875L40 8H16.484a5.74 5.74 0 00-5.734 5.734V38.89a5.74 5.74 0 005.734 5.734H40l1.844-1.575L40 40.875H16.484a1.986 1.986 0 01-1.984-1.984V13.734c0-1.094.89-1.984 1.984-1.984z"/><path fill="#FE366B" d="M69.25 13.734V38.89a5.74 5.74 0 01-5.734 5.734H40v-3.75h23.516c1.094 0 1.984-.89 1.984-1.984V13.734c0-1.094-.89-1.984-1.984-1.984H40V8h23.516a5.74 5.74 0 015.734 5.734z"/><path fill="#E7F2FF" d="M23.885 15.5h-3.823a1.875 1.875 0 000 3.75h1.948v16.01a1.875 1.875 0 003.75 0V17.374c0-1.035-.84-1.875-1.875-1.875zm12.704.02a5.632 5.632 0 00-5.625 5.625 5.6 5.6 0 001.202 3.47 7.052 7.052 0 00-2.603 5.472c0 3.894 3.168 7.063 7.062 7.063A7.028 7.028 0 0040 36.29l1.03-8.673L40 16.676a5.59 5.59 0 00-3.411-1.156zm0 3.75c1.034 0 1.875.84 1.875 1.875a1.877 1.877 0 01-1.875 1.875 1.877 1.877 0 01-1.875-1.875c0-1.034.841-1.875 1.875-1.875zm.036 14.13a3.317 3.317 0 01-3.313-3.313 3.317 3.317 0 013.313-3.313 3.317 3.317 0 013.313 3.313 3.317 3.317 0 01-3.313 3.313z"/><path fill="#C9E1FF" d="M61.813 26.258a1.875 1.875 0 01-1.876 1.875h-3.682v3.816a1.876 1.876 0 01-3.75 0v-3.816h-3.818a1.876 1.876 0 010-3.75h3.818v-3.684a1.875 1.875 0 113.75 0v3.684h3.682c1.037 0 1.876.839 1.876 1.875zm-18.125 3.829A7.068 7.068 0 0140 36.289V16.676a5.617 5.617 0 011.039 7.904 7.05 7.05 0 012.648 5.507z"/></svg>