<svg xmlns="http://www.w3.org/2000/svg" width="40" height="40" fill="none"><path fill="#ECF6FD" d="M20 21.525l1.844 7.51L20 36h-1.875a.938.938 0 01-.938-.937V21.525H20z"/><path fill="#D6E8FE" d="M22.813 21.525v13.538c0 .517-.42.937-.938.937H20V21.525h2.813z"/><path fill="#FF7DA0" d="M20 5.328l4.392 5.859L20 20.983H7.922c-.764 0-1.383-.62-1.383-1.384V6.712c0-.764.619-1.384 1.383-1.384H20z"/><path fill="#F85D86" d="M33.461 6.712v12.887c0 .765-.62 1.384-1.383 1.384H20V5.328h12.078c.764 0 1.383.62 1.383 1.384z"/><path fill="#FF5784" d="M8.242 5.875H20l1.406-.938L20 4H8.242a2.87 2.87 0 00-2.867 2.867v12.579a2.87 2.87 0 002.867 2.866H20l.922-.787L20 20.438H8.242a.993.993 0 01-.992-.992V6.866c0-.546.445-.991.992-.991z"/><path fill="#FE366B" d="M34.625 6.867v12.579a2.87 2.87 0 01-2.867 2.866H20v-1.875h11.758a.993.993 0 00.992-.991V6.866a.993.993 0 00-.992-.991H20V4h11.758a2.87 2.87 0 012.867 2.867z"/><path fill="#ECF6FD" d="M11.943 7.75H10.03a.938.938 0 000 1.875h.974v8.005a.937.937 0 101.875 0V8.688a.938.938 0 00-.937-.938zm6.351.01a2.816 2.816 0 00-2.812 2.812 2.8 2.8 0 00.601 1.735 3.526 3.526 0 00-1.302 2.736 3.536 3.536 0 003.531 3.532c.611 0 1.186-.156 1.688-.43l.515-4.336L20 8.338a2.795 2.795 0 00-1.706-.578zm0 1.875a.939.939 0 010 1.875.939.939 0 010-1.875zm.018 7.065a1.658 1.658 0 01-1.656-1.656c0-.914.743-1.657 1.657-1.657.913 0 1.656.743 1.656 1.656 0 .914-.743 1.657-1.657 1.657z"/><path fill="#D6E8FE" d="M30.906 13.129c0 .518-.42.938-.937.938h-1.841v1.908a.938.938 0 01-1.875 0v-1.909h-1.91a.938.938 0 010-1.875h1.91V10.35a.937.937 0 111.875 0v1.841h1.84c.519 0 .938.42.938.938zm-9.062 1.914A3.534 3.534 0 0120 18.145V8.338a2.808 2.808 0 01.52 3.952 3.525 3.525 0 011.324 2.754z"/></svg>