<svg xmlns="http://www.w3.org/2000/svg" width="40" height="40" fill="none"><path fill="#9BB5D8" d="M19.957 11.937a.258.258 0 01-.25-.245c-.222-2.473-.98-4.824-2.136-6.618-1.023-1.588-2.24-2.536-3.257-2.536h-.003c-3.707.006-4.482 9.06-4.49 9.154a.258.258 0 01-.273.245.267.267 0 01-.23-.293c.03-.392.823-9.638 4.99-9.644h.006c1.203 0 2.54 1.008 3.676 2.772 1.203 1.866 1.99 4.306 2.22 6.869.014.15-.09.28-.227.296h-.026z"/><path fill="#fff" d="M4.518 30.572l4.88 2.628 2.956-9.653-4.87-12.942-1.383.362-2.094 18.585c-.048.419.157.828.511 1.02z"/><path fill="#366295" d="M12.356 23.547l-4.87-12.942-.815.213a29.773 29.773 0 00.014 4.186c.326 4.405 1.41 5.63.885 8.705-.439 2.557-1.391 2.904-1.307 4.623.09 1.872 1.318 3.439 2.777 4.674l.36.194 2.956-9.653z" opacity=".3" style="mix-blend-mode:multiply"/><path fill="#fff" d="M7.484 10.605h18.192l6.02 20.681L9.398 33.2 7.484 10.605z"/><path fill="#9BB5D8" d="M13.12 12.38a.258.258 0 01-.248-.21c-.05-.233-1.245-5.774.439-8.495.483-.778 1.157-1.253 2.006-1.415 4.356-.816 7.04 9.142 7.153 9.566a.276.276 0 01-.177.332c-.135.04-.273-.044-.312-.188-.026-.099-2.667-9.913-6.577-9.177-.713.134-1.262.52-1.67 1.178-1.567 2.53-.381 8.023-.367 8.077a.275.275 0 01-.189.326.31.31 0 01-.059.006z"/><path fill="#fff" d="M25.672 10.604h-9.024c-.447.482-.762 1.038-.793 1.66-.14 2.928 6.18 3.887 6.79 7.898.441 2.894-2.265 6.231-4.682 7.717-2.544 1.567-4.266.775-5.99 2.515-.755.763-1.213 1.72-1.489 2.71l21.208-1.819-6.02-20.68z" opacity=".3" style="mix-blend-mode:multiply"/><path fill="#9BB5D8" d="M13.828 12.421c0 .416-.315.751-.706.751-.39 0-.708-.335-.708-.75 0-.416.318-.754.708-.754.39 0 .706.338.706.754zm9.222-.071c0 .415-.317.753-.708.753-.39 0-.705-.338-.705-.754 0-.415.314-.75.705-.75.39 0 .708.335.708.75z"/><path fill="#64ACFF" d="M35.766 22.59l-1.787-.332a.285.285 0 01-.225-.211 7.947 7.947 0 00-.89-2.148.285.285 0 01.01-.308l1.028-1.5a.287.287 0 00-.034-.365l-1.594-1.594a.287.287 0 00-.365-.034l-1.5 1.028a.285.285 0 01-.308.01 7.953 7.953 0 00-2.148-.89.285.285 0 01-.21-.225l-.334-1.787a.287.287 0 00-.281-.234h-2.256a.287.287 0 00-.281.234l-.334 1.787a.285.285 0 01-.21.225 7.952 7.952 0 00-2.148.89.285.285 0 01-.308-.01l-1.5-1.028a.287.287 0 00-.365.034l-1.594 1.594a.287.287 0 00-.034.365l1.028 1.5a.285.285 0 01.01.308 7.949 7.949 0 00-.89 2.148.285.285 0 01-.225.21l-1.787.334a.287.287 0 00-.234.281v2.256c0 .138.098.256.234.281l1.787.334c.11.02.198.102.225.21a7.95 7.95 0 00.89 2.148.285.285 0 01-.01.308l-1.028 1.5a.287.287 0 00.034.365l1.594 1.594a.287.287 0 00.365.034l1.5-1.028a.285.285 0 01.308-.01 7.95 7.95 0 002.148.89c.108.027.19.115.21.225l.334 1.787a.287.287 0 00.281.234h2.256a.287.287 0 00.281-.234l.334-1.787a.285.285 0 01.21-.225 7.949 7.949 0 002.148-.89.285.285 0 01.308.01l1.5 1.028a.287.287 0 00.365-.034l1.594-1.594a.287.287 0 00.034-.365l-1.028-1.5a.285.285 0 01-.01-.308 7.95 7.95 0 00.89-2.148.285.285 0 01.225-.21l1.787-.334a.287.287 0 00.234-.281v-2.256a.287.287 0 00-.234-.281zM26 27.324a3.323 3.323 0 110-6.646 3.323 3.323 0 010 6.646z"/><path fill="#ACCE58" d="M17.172 28.255c-1.409-.366-2.87-.366-4.226.052-1.931.523-2.923 1.568-2.923 2.614v1.202c.053.993.992 2.038 2.975 2.614a7.556 7.556 0 004.174-.053c1.93-.523 2.922-1.568 2.922-2.613v-1.203c0-.993-.991-2.038-2.922-2.613z"/><path fill="#607727" fill-rule="evenodd" d="M10.494 32.176v1.097a5.975 5.975 0 01-.365-.627v-1.045c.104.209.226.4.365.575zm2.922 1.516v1.15l-.313-.105-.052-1.098c.14.035.26.053.365.053zm1.461.156v1.15h-.313l-.052-1.15h.365zm-.73-.052v1.15a.982.982 0 01-.313-.052l-.053-1.15c.14.035.261.052.366.052zm-2.922-.94v1.097a1.392 1.392 0 00-.366-.261v-1.098c.105.104.261.157.366.261zm1.46.679v1.098a5.022 5.022 0 00-.365-.105V33.43c.14.035.261.07.366.105zm-.73-.314v1.098a2.874 2.874 0 01-.365-.157v-1.098c.14.07.26.122.365.157zm3.653.627v1.15h-.313l-.052-1.15h.365zm3.652-1.306v1.097a2.071 2.071 0 01-.313.262l-.052-1.098c.157-.105.261-.157.366-.261zm-2.922 1.202v1.15a.982.982 0 00-.313.052l-.052-1.15c.14 0 .261-.017.365-.052zm3.653-2.248v1.098a2.66 2.66 0 01-.313.627l-.052-1.098c.174-.209.295-.418.365-.627zm-1.461 1.568v1.046l-.313.209-.052-1.098c.139-.07.26-.122.365-.157zm-.73.314v1.098l-.314.104-.052-1.097c.14-.035.261-.07.365-.105zm-.731.21v1.15a.985.985 0 01-.313.051l-.052-1.097c.139-.035.26-.07.365-.105z" clip-rule="evenodd" opacity=".2" style="mix-blend-mode:multiply"/><path fill="#DAFF7C" d="M18.632 28.881c1.93 1.098 1.983 2.98 0 4.13s-5.166 1.15-7.149 0c-1.93-1.098-1.983-2.98 0-4.13s5.166-1.15 7.149 0z"/><path fill="#DAFF7C" d="M18.318 29.037c1.774 1.046 1.774 2.719 0 3.764s-4.696 1.045-6.523.052c-1.774-1.045-1.774-2.718 0-3.763 1.775-1.046 4.697-1.046 6.523-.053z"/><path fill="#7F9D33" d="M11.9 29.351c1.722-1.046 4.54-1.046 6.314-.052 1.252.732 1.617 1.777 1.043 2.718.73-.993.418-2.143-.939-2.98-1.826-.993-4.748-.993-6.523.053-1.356.784-1.67 1.986-.939 2.98-.574-.942-.208-1.987 1.044-2.719z" opacity=".6"/><path fill="#ACCE58" d="M17.123 26.583a7.557 7.557 0 00-4.175.052c-1.93.523-2.922 1.568-2.922 2.614a6.347 6.347 0 000 1.15c0 1.045.992 2.09 2.922 2.613a7.276 7.276 0 004.227 0c1.93-.575 2.922-1.568 2.922-2.613v-1.203c-.052-1.045-1.044-2.038-2.974-2.613z"/><path fill="#607727" fill-rule="evenodd" d="M10.494 30.504v1.098a1.958 1.958 0 01-.365-.628v-1.098c.07.21.191.419.365.628zm2.922 1.516v1.15a5.018 5.018 0 00-.365-.105v-1.097c.104 0 .226.017.365.052zm1.461.156v1.15a1.52 1.52 0 01-.365-.052v-1.098h.365zm-.73-.052v1.15a1.156 1.156 0 00-.366-.052v-1.15c.105.035.227.052.366.052zm-2.922-.993v1.15a3.397 3.397 0 01-.366-.313v-1.046c.105.052.21.157.366.21zm1.46.732v1.098a1.159 1.159 0 01-.365-.157v-1.098c.105.07.227.122.366.157zm-.73-.314v1.098a1.158 1.158 0 01-.365-.157v-1.098c.104.07.226.122.365.157zm3.653.627v1.098a1.152 1.152 0 01-.365.053v-1.15h.365zm3.652-1.306v1.098c-.104.07-.226.156-.365.26v-1.097c.105-.105.261-.157.366-.261zm-2.922 1.202v1.15a1.52 1.52 0 00-.365.052v-1.15c.14 0 .261-.017.365-.052zm3.653-2.248v1.098c-.07.21-.191.418-.365.627v-1.098c.174-.209.295-.418.365-.627zM18.53 31.34v1.098c-.104.07-.226.14-.365.209v-1.098c.139-.07.26-.14.365-.209zm-.73.366v1.098a4.99 4.99 0 01-.366.104v-1.097c.14-.035.261-.07.365-.105zm-.731.21v1.15c-.104 0-.226.017-.365.051V32.02c.139-.035.26-.07.365-.105z" clip-rule="evenodd" opacity=".2" style="mix-blend-mode:multiply"/><path fill="#DAFF7C" d="M18.584 27.21c1.983 1.097 1.983 2.979.052 4.129-1.983 1.15-5.166 1.15-7.149 0-1.983-1.098-1.983-2.98 0-4.13 1.93-1.15 5.114-1.15 7.097 0z"/><path fill="#DAFF7C" d="M18.27 27.365c1.826 1.046 1.826 2.719.052 3.764-1.826 1.046-4.696 1.046-6.522.052-1.775-1.045-1.827-2.718 0-3.763 1.774-1.046 4.696-1.046 6.47-.053z"/><path fill="#7F9D33" d="M11.852 27.627c1.774-.993 4.592-.993 6.366 0 1.253.732 1.618 1.777 1.044 2.718.73-.993.417-2.195-.992-2.98-1.774-.993-4.696-.993-6.47.053-1.409.784-1.722 1.986-.94 2.927-.573-.889-.26-1.934.992-2.718z" opacity=".6"/><path fill="#ACCE58" d="M17.12 25.274a8.075 8.075 0 00-4.174 0c-1.931.575-2.923 1.62-2.923 2.666v1.15c0 1.046.992 2.091 2.923 2.614a8.273 8.273 0 004.226 0c1.93-.575 2.922-1.62 2.922-2.666v-1.15c-.052-1.045-.991-2.09-2.974-2.614z"/><path fill="#607727" fill-rule="evenodd" d="M10.494 29.193v1.098a1.958 1.958 0 01-.365-.627v-1.098c.07.209.191.418.365.627zm2.922 1.516v1.098a1.157 1.157 0 00-.365-.052v-1.15c.14.035.26.07.365.104zm1.461.157v1.098h-.365v-1.15c.14.035.26.052.365.052zm-.73-.052v1.098c-.105 0-.226-.018-.366-.053v-1.098c.14 0 .261.018.366.053zm-2.922-.994v1.098a1.389 1.389 0 01-.366-.261v-1.098c.105.105.261.21.366.261zm1.46.68v1.098a5.022 5.022 0 00-.365-.105v-1.098c.14.035.261.07.366.105zm-.73-.261v1.098a1.159 1.159 0 00-.365-.157v-1.098c.104.035.226.087.365.157zm3.653.575v1.15h-.365v-1.098c.139-.035.26-.052.365-.052zm3.652-1.307v1.098a3.38 3.38 0 01-.365.313v-1.15c.157-.052.261-.157.366-.261zm-2.922 1.255v1.097a1.153 1.153 0 01-.365.052v-1.097c.14-.035.261-.052.365-.052zm3.653-2.248v1.045a1.85 1.85 0 01-.365.68V29.14c.174-.21.295-.418.365-.627zM18.53 30.03v1.097c-.104.07-.226.122-.365.157v-1.098a1.16 1.16 0 00.365-.156zm-.73.365v1.098c-.105.035-.227.07-.366.105V30.5c.14-.035.261-.07.365-.105zm-.731.21v1.097a4.95 4.95 0 01-.365.105v-1.15c.139 0 .26-.017.365-.052z" clip-rule="evenodd" opacity=".2" style="mix-blend-mode:multiply"/><path fill="#DAFF7C" d="M18.584 25.85c1.983 1.15 1.983 2.979.052 4.129-1.983 1.15-5.166 1.15-7.149.052-1.983-1.15-1.983-2.98 0-4.13 1.93-1.15 5.166-1.15 7.097-.052z"/><path fill="#DAFF7C" d="M18.27 26.06c1.826 1.045 1.826 2.718.052 3.763-1.826 1.046-4.696 1.046-6.523 0-1.774-.993-1.774-2.718 0-3.764 1.774-1.045 4.697-1.045 6.47 0z"/><path fill="#7F9D33" d="M11.904 26.32c1.722-.992 4.54-1.045 6.314 0 1.252.68 1.617 1.778 1.043 2.667.73-.941.418-2.143-.991-2.927-1.774-1.046-4.697-1.046-6.47 0-1.357.836-1.67 1.986-.94 2.98-.574-.89-.26-1.987 1.044-2.72z" opacity=".6"/><path fill="#ACCE58" d="M22.737 32.693a8.075 8.075 0 00-4.174 0c-1.93.575-2.922 1.62-2.922 2.666v1.15c0 1.046.991 2.091 2.922 2.614a8.274 8.274 0 004.226 0c1.931-.575 2.922-1.62 2.922-2.666v-1.15c-.052-1.045-.991-2.09-2.974-2.614z"/><path fill="#607727" fill-rule="evenodd" d="M16.111 36.612v1.098a1.959 1.959 0 01-.365-.627v-1.098c.07.209.191.418.365.627zm2.922 1.516v1.098a1.152 1.152 0 00-.365-.052v-1.15c.14.034.261.07.365.104zm1.461.157v1.098h-.365v-1.15c.14.035.261.052.365.052zm-.73-.052v1.097a1.52 1.52 0 01-.365-.052V38.18c.139 0 .26.018.365.053zm-2.922-.993v1.097a1.39 1.39 0 01-.365-.261v-1.098c.104.105.26.21.365.261zm1.46.679v1.098a5 5 0 00-.364-.105v-1.097c.139.034.26.07.365.104zm-.73-.261v1.097a1.157 1.157 0 00-.365-.156V37.5c.104.035.226.087.365.157zm3.653.575v1.15h-.365v-1.098c.139-.035.26-.052.365-.052zm3.653-1.307v1.098a3.497 3.497 0 01-.366.313v-1.15c.157-.052.261-.157.366-.261zm-2.922 1.254v1.098a1.157 1.157 0 01-.366.052v-1.097c.14-.035.261-.053.366-.053zm3.652-2.247v1.045a1.85 1.85 0 01-.365.68V36.56c.174-.21.296-.418.365-.627zm-1.46 1.516v1.097c-.105.07-.227.122-.366.157v-1.098a1.16 1.16 0 00.365-.156zm-.731.366v1.097c-.105.035-.227.07-.366.105v-1.098c.14-.035.261-.07.366-.104zm-.73.209v1.097c-.105.035-.227.07-.366.105v-1.15c.139 0 .26-.018.365-.052z" clip-rule="evenodd" opacity=".2" style="mix-blend-mode:multiply"/><path fill="#DAFF7C" d="M24.2 33.268c1.984 1.15 1.984 2.98.053 4.13-1.983 1.15-5.166 1.15-7.149.052-1.982-1.15-1.982-2.98 0-4.13 1.931-1.15 5.166-1.15 7.097-.052z"/><path fill="#DAFF7C" d="M23.887 33.478c1.826 1.046 1.826 2.719.052 3.764-1.826 1.046-4.696 1.046-6.523 0-1.774-.993-1.774-2.718 0-3.764 1.775-1.045 4.697-1.045 6.47 0z"/><path fill="#7F9D33" d="M17.52 33.74c1.723-.993 4.54-1.046 6.315 0 1.252.68 1.617 1.777 1.043 2.666.73-.941.418-2.143-.991-2.928-1.774-1.045-4.696-1.045-6.47 0-1.357.837-1.67 1.987-.94 2.98-.574-.889-.26-1.986 1.044-2.718z" opacity=".6"/><path fill="#ACCE58" d="M22.737 30.97a8.073 8.073 0 00-4.174 0c-1.93.575-2.922 1.62-2.922 2.666v1.15c0 1.045.991 2.09 2.922 2.613a8.271 8.271 0 004.226 0c1.931-.575 2.922-1.62 2.922-2.666v-1.15c-.052-1.045-.991-2.09-2.974-2.613z"/><path fill="#607727" fill-rule="evenodd" d="M16.111 34.889v1.097a1.958 1.958 0 01-.365-.627v-1.098c.07.21.191.418.365.628zm2.922 1.515v1.098a1.152 1.152 0 00-.365-.052V36.3a5 5 0 01.365.105zm1.461.157v1.098h-.365v-1.15c.14.035.261.052.365.052zm-.73-.052v1.098c-.104 0-.226-.018-.365-.053v-1.097c.139 0 .26.017.365.052zm-2.922-.993v1.098a1.37 1.37 0 01-.365-.262v-1.097c.104.104.26.209.365.26zm1.46.68v1.097a5 5 0 00-.364-.104V36.09c.139.035.26.07.365.104zm-.73-.262v1.098a1.157 1.157 0 00-.365-.157v-1.098c.104.035.226.087.365.157zm3.653.575v1.15h-.365v-1.098c.139-.035.26-.052.365-.052zm3.653-1.307V36.3a3.5 3.5 0 01-.366.314v-1.15c.157-.053.261-.157.366-.262zm-2.922 1.255v1.097a1.154 1.154 0 01-.366.053v-1.098c.14-.035.261-.052.366-.052zm3.652-2.248v1.045a1.85 1.85 0 01-.365.68v-1.098c.174-.209.296-.418.365-.627zm-1.46 1.516v1.098c-.105.07-.227.122-.366.157v-1.098c.139-.035.26-.087.365-.157zm-.731.366v1.098c-.105.035-.227.07-.366.104v-1.098c.14-.034.261-.07.366-.104zm-.73.209v1.098a5.07 5.07 0 01-.366.104v-1.15c.139 0 .26-.017.365-.052z" clip-rule="evenodd" opacity=".2" style="mix-blend-mode:multiply"/><path fill="#DAFF7C" d="M24.2 31.544c1.984 1.15 1.984 2.98.053 4.13-1.983 1.15-5.166 1.15-7.149.052-1.982-1.15-1.982-2.98 0-4.13 1.931-1.15 5.166-1.15 7.097-.052z"/><path fill="#DAFF7C" d="M23.887 31.754c1.826 1.045 1.826 2.718.052 3.764-1.826 1.045-4.696 1.045-6.523 0-1.774-.994-1.774-2.719 0-3.764 1.775-1.046 4.697-1.046 6.47 0z"/><path fill="#7F9D33" d="M17.52 32.015c1.723-.993 4.54-1.045 6.315 0 1.252.68 1.617 1.777 1.043 2.666.73-.94.418-2.143-.991-2.927-1.774-1.046-4.696-1.046-6.47 0-1.357.836-1.67 1.986-.94 2.98-.574-.89-.26-1.987 1.044-2.719z" opacity=".6"/></svg>