<svg xmlns="http://www.w3.org/2000/svg" width="174" height="36" fill="none"><g clip-path="url(#a)"><path fill="#fff" d="M43.731 31.335h-7.38l8.315-25.216h9.347l8.314 25.216h-7.38l-5.51-18.272h-.196l-5.51 18.272zm-1.378-9.948h13.874v5.122H42.354v-5.122zM64.754 6.12h8.511L79.12 20.4h.295l5.854-14.28h8.51v25.216h-6.69V16.757h-.197l-5.608 14.38H77.25L71.64 16.66h-.197v14.676h-6.69V6.119zM97.02 31.335V6.119h6.838v19.7h10.184v5.516H97.019zm19.789 0V6.119h10.921c1.919 0 3.53.259 4.833.776 1.312.517 2.3 1.248 2.965 2.191.672.944 1.008 2.057 1.008 3.337 0 .928-.205 1.773-.615 2.536a5.433 5.433 0 01-1.697 1.921c-.73.51-1.583.862-2.558 1.059v.246c1.082.041 2.066.316 2.952.825.885.5 1.59 1.194 2.115 2.081.525.878.787 1.913.787 3.103 0 1.379-.361 2.606-1.082 3.681-.714 1.076-1.73 1.92-3.05 2.537-1.32.615-2.895.923-4.723.923h-11.856zm6.838-5.467h3.197c1.149 0 2.009-.213 2.583-.64.574-.435.861-1.075.861-1.92 0-.592-.135-1.092-.406-1.503-.271-.41-.656-.722-1.156-.936-.492-.213-1.086-.32-1.783-.32h-3.296v5.32zm0-9.554h2.804c.598 0 1.127-.095 1.586-.283.46-.19.816-.46 1.07-.813.263-.361.394-.8.394-1.317 0-.78-.279-1.375-.836-1.786-.558-.418-1.263-.628-2.116-.628h-2.902v4.827zm25.494 15.365c-2.049 0-3.804-.407-5.264-1.22a8.38 8.38 0 01-3.357-3.422c-.779-1.47-1.168-3.173-1.168-5.11 0-1.937.389-3.636 1.168-5.097a8.283 8.283 0 013.357-3.423c1.46-.82 3.215-1.231 5.264-1.231 2.05 0 3.805.41 5.265 1.231a8.283 8.283 0 013.357 3.423c.779 1.46 1.168 3.16 1.168 5.097 0 1.937-.389 3.64-1.168 5.11a8.38 8.38 0 01-3.357 3.423c-1.46.812-3.215 1.219-5.265 1.219zm.049-5.024c.574 0 1.071-.193 1.488-.579.419-.385.743-.935.972-1.65.23-.713.345-1.563.345-2.548 0-.993-.115-1.843-.345-2.549-.229-.714-.553-1.264-.972-1.65a2.118 2.118 0 00-1.488-.578 2.27 2.27 0 00-1.561.578c-.435.386-.767.936-.997 1.65-.229.706-.344 1.556-.344 2.549 0 .985.115 1.834.344 2.549.23.714.562 1.264.997 1.65a2.27 2.27 0 001.561.578zm23.761-14.233v4.925h-12.447v-4.925h12.447zM162.915 7.89h6.789v17.36c0 .263.045.484.135.665.09.172.229.304.418.394.189.082.431.123.726.123.205 0 .443-.024.713-.074.279-.049.484-.09.615-.123l.984 4.777c-.303.09-.738.201-1.304.333-.557.131-1.221.217-1.992.258-1.558.082-2.866-.078-3.923-.48-1.058-.41-1.853-1.055-2.387-1.933-.533-.878-.791-1.978-.774-3.3v-18z"/><path fill="#0057FF" fill-rule="evenodd" d="M16.906 1.672c-1.544-2.28-4.93-2.216-6.385.121L1.77 15.85a3.793 3.793 0 00.04 4.073l9.16 14.1c1.5 2.31 4.885 2.31 6.385 0l9.134-14.057a3.794 3.794 0 00-.04-4.194l-9.542-14.1zm1.044 8.329c-.328 5.89-4.959 10.635-10.806 11.153l7.018 10.802L23.296 17.9 17.95 10z" clip-rule="evenodd"/></g><defs><clipPath id="a"><path fill="#fff" d="M.5 0h173v36H.5z"/></clipPath></defs></svg>