<svg width="199" height="184" fill="none" xmlns="http://www.w3.org/2000/svg"><path d="M198.094 80.09a.92.92 0 01-.569.861l-74.182 30.731 33.611 54.161a.917.917 0 01-.135 1.138.925.925 0 01-1.143.125l-55.288-34.735-28.367 50.415a.926.926 0 01-1.064.434.936.936 0 01-.665-.935l3.45-62.67-72.55-1.631a.924.924 0 01-.883-.735.917.917 0 01.518-1.023L60.5 88.843 10.043 26.85a.916.916 0 01.018-1.182.926.926 0 011.17-.19L80.814 66.59l24.114-65.188a.924.924 0 011.785.214l8.911 77.723 81.545-.16a.925.925 0 01.925.91zm-77.032 31.167a.927.927 0 01.57-.861l70.884-29.365-77.714.153a.923.923 0 01-.92-.816l-8.564-74.694-23.153 62.592a.924.924 0 01-1.339.474L14.733 29.689l47.953 58.915a.921.921 0 01-.33 1.417L5.234 116.232l69.505 1.562c.25.006.487.112.657.295.17.184.254.43.245.676l-3.285 59.66 26.897-47.801a.917.917 0 01.579-.442.919.919 0 01.719.113l52.729 33.128-32.08-51.692a.92.92 0 01-.138-.474zm.157 15.706l-14.838-23.909 32.636-13.52-35.755.07-3.91-34.094-10.634 28.747L58.1 66.167l22.227 27.309-26.372 12.103 31.907.716-1.52 27.617 12.52-22.252 24.357 15.303z" fill="#0F3D71"/></svg>