<svg xmlns="http://www.w3.org/2000/svg" width="80" height="80" fill="none"><path fill="#fff" d="M40 72c17.673 0 32-14.327 32-32C72 22.327 57.673 8 40 8 22.327 8 8 22.327 8 40c0 17.673 14.327 32 32 32z"/><path fill="#FF7DA0" d="M39.999 64.57c-13.548 0-24.57-11.022-24.57-24.57 0-13.546 11.022-24.568 24.57-24.568 13.547 0 24.57 11.021 24.57 24.569 0 13.547-11.023 24.569-24.57 24.569zm0-47.257C27.489 17.313 17.31 27.49 17.31 40c0 12.51 10.178 22.688 22.688 22.688 12.51 0 22.688-10.178 22.688-22.688 0-12.51-10.178-22.688-22.688-22.688z"/><path fill="#fff" d="M40 71.999c-17.645 0-32-14.355-32-32C8 22.356 22.355 8 40 8c17.644 0 32 14.355 32 32 0 17.644-14.356 31.999-32 31.999zm0-56.475c-13.496 0-24.476 10.98-24.476 24.476 0 13.495 10.98 24.475 24.476 24.475 13.496 0 24.475-10.98 24.475-24.475 0-13.496-10.98-24.476-24.475-24.476z"/><path fill="#FF7DA0" d="M40.033 71.999l-.008-7.524a24.46 24.46 0 0012.226-3.281l3.772 6.51a31.994 31.994 0 01-15.99 4.295zm-16-4.262a32.153 32.153 0 01-11.721-11.685l6.506-3.78a24.62 24.62 0 008.973 8.947l-3.758 6.518zM67.72 55.995l-6.514-3.766A24.458 24.458 0 0064.476 40v-.118h7.523V40c0 5.621-1.48 11.152-4.28 15.995zM8 40.059v-.06a32.005 32.005 0 014.245-15.937l6.523 3.753A24.463 24.463 0 0015.524 40L8 40.059zm53.156-12.377a24.625 24.625 0 00-8.993-8.928l3.745-6.525a32.16 32.16 0 0111.746 11.66l-6.498 3.793zm-33.452-8.85l-3.786-6.503A31.993 31.993 0 0139.899 8l.023 7.524a24.456 24.456 0 00-12.218 3.307z"/><path fill="#F85D86" d="M40.59 45.657c.166 1.611.723 2.868 1.593 3.94.848 1.045 1.852 1.964 2.958 3.117H34.88c.467-.466.763-.819 1.114-1.102 1.626-1.314 2.762-2.952 3.347-4.963.05-.175.087-.358.103-.539.007-.08-.053-.168-.117-.352-.435.275-.837.556-1.262.796-2.31 1.303-4.682 1.706-7.073.265-1.881-1.133-2.656-2.957-2.17-5.09.224-.978.545-1.966 1.01-2.85 2.447-4.657 6.177-8.203 10.057-11.592.221.077.375.09.47.17 3.453 2.941 6.663 6.114 9.062 9.997.694 1.123 1.283 2.362 1.65 3.626 1.088 3.746-1.544 6.969-5.43 6.576-1.326-.133-2.603-.803-3.887-1.27-.365-.133-.676-.416-1.165-.73z"/><path stroke="#F85D86" stroke-miterlimit="10" stroke-width=".288" d="M40 71.999c-17.645 0-32-14.355-32-32C8 22.356 22.355 8 40 8c17.644 0 32 14.355 32 32 0 17.644-14.356 31.999-32 31.999zm0-56.475c-13.496 0-24.476 10.98-24.476 24.476 0 13.495 10.98 24.475 24.476 24.475 13.496 0 24.475-10.98 24.475-24.475 0-13.496-10.98-24.476-24.475-24.476z"/><path stroke="#FF7DA0" stroke-miterlimit="10" stroke-width=".288" d="M40 62.593c12.478 0 22.593-10.115 22.593-22.593S52.478 17.406 40 17.406 17.406 27.522 17.406 40c0 12.478 10.116 22.593 22.594 22.593z"/></svg>