<svg xmlns="http://www.w3.org/2000/svg" width="80" height="80" fill="none"><path fill="#64ACFF" d="M66.797 39.398c0 15.127-12.272 27.378-27.399 27.378C24.272 66.776 12 54.525 12 39.398 12 24.272 24.272 12 39.398 12c15.127 0 27.399 12.272 27.399 27.398z"/><path fill="#fff" d="M53.524 26.793c-7.397-3.25-14.127 6.459-14.127 6.459s-6.73-9.71-14.126-6.46c-4.23 1.834-5.875 9.106-.812 17.356 2.604 4.21 7.917 8.814 13.647 11.085.833.333 1.75.333 2.583 0 5.73-2.271 11.043-6.876 13.647-11.085 5.063-8.25 3.417-15.522-.812-17.355z"/></svg>