<svg width="76" height="77" fill="none" xmlns="http://www.w3.org/2000/svg"><g clip-path="url(#clip0_25424_65095)"><path d="M39.33 9.143L15.674 50.431c-3.866 6.748-1.2 15.564 5.944 19.652 7.145 4.09 16.102 1.928 19.968-4.82l17.405-30.377.603-1.053a2.196 2.196 0 00-3.81-2.181l-18.009 31.43c-1.845 3.22-5.423 4.897-9.124 4.661h-.001a11.162 11.162 0 01-4.849-1.468c-.024-.014-.047-.027-.07-.042-4.99-2.902-6.896-8.996-4.247-13.621l23.657-41.287c1.825-3.188 6.144-4.16 9.625-2.166 3.482 1.992 4.83 6.207 3.003 9.394L36.933 51.428c-.975 1.7-3.307 2.204-5.199 1.12-1.893-1.083-2.638-3.347-1.664-5.049l13.188-23.018a2.194 2.194 0 10-3.81-2.18L26.259 45.319c-2.178 3.801-.7 8.754 3.293 11.039 3.992 2.287 9.013 1.052 11.192-2.749l18.835-32.875c3.03-5.288.953-12.19-4.63-15.385-5.583-3.195-12.59-1.493-15.619 3.794z" fill="#64ACFF"/><path d="M43.255 24.481l-.604 1.054a2.197 2.197 0 00-3.249.643L26.214 49.196a7.572 7.572 0 00-.739 1.788c-.453-1.882-.232-3.898.781-5.666L39.444 22.3a2.197 2.197 0 013.811 2.181z" fill="#3593FF"/><path d="M54.947 5.349c4.503 2.577 6.724 7.566 5.825 12.174-.559-3.321-2.618-6.437-5.867-8.296-5.583-3.196-12.59-1.494-15.62 3.794L15.63 54.31a13.343 13.343 0 00-1.615 4.615c-.371-2.876.139-5.844 1.657-8.493L39.328 9.143c3.03-5.288 10.036-6.99 15.62-3.794zm.835 26.302l-18.008 31.43c-1.845 3.221-5.424 4.897-9.124 4.662 3.13 1.321 7.375 1.762 10.617-3.462L55.74 35.529a2.197 2.197 0 013.25-.643l.603-1.053a2.193 2.193 0 00-.814-2.996 2.197 2.197 0 00-2.997.814z" fill="#3593FF"/></g><defs><clipPath id="clip0_25424_65095"><path fill="#fff" transform="scale(-1 1) rotate(-74.799 1.343 79.637)" d="M0 0h61.814v61.814H0z"/></clipPath></defs></svg>