<svg xmlns="http://www.w3.org/2000/svg" width="40" height="40" fill="none"><path fill="#64ACFF" fill-rule="evenodd" d="M19.974 5.269c-1.17 0-3.315.476-5.54 1.082h-.001c-2.206.596-4.44 1.304-5.756 1.736a1.676 1.676 0 00-1.134 1.36l-.002.018c-1.148 8.625 1.51 14.954 4.697 19.123a.602.602 0 01.034.05 22.32 22.32 0 004.74 4.611c.723.51 1.372.886 1.896 1.133h.002c.538.256.9.35 1.062.35L19.973 20l.001-14.731z" clip-rule="evenodd"/><path fill="#64ACFF" d="M14.434 6.35c2.225-.605 4.37-1.081 5.54-1.081V4c-1.369 0-3.677.528-5.872 1.126l-5.82 1.756a2.944 2.944 0 00-2 2.432c-1.189 8.958 1.564 15.599 4.914 20a23.593 23.593 0 005.078 4.967l.004.003a14.17 14.17 0 002.09 1.246c.563.267 1.143.47 1.604.47v-1.269c-.162 0-.524-.093-1.062-.348h-.002a12.894 12.894 0 01-1.896-1.134 22.32 22.32 0 01-4.74-4.612.602.602 0 00-.034-.05C9.051 24.42 6.393 18.09 7.541 9.465l.002-.017a1.686 1.686 0 011.134-1.36c1.316-.433 3.55-1.141 5.756-1.737h.001z"/><path fill="#3593FF" d="M19.975 5.269c1.17 0 3.311.478 5.537 1.08 1.935.532 3.854 1.11 5.76 1.736.3.1.564.28.764.524.198.241.326.532.37.841l.002.017c1.147 8.615-1.503 14.939-4.685 19.107a22.343 22.343 0 01-4.795 4.679c-.6.432-1.234.81-1.899 1.133-.538.252-.897.345-1.056.345V36c.46 0 1.038-.203 1.6-.467l.006-.004c.733-.354 1.43-.771 2.09-1.246a23.609 23.609 0 005.068-4.946c3.357-4.402 6.12-11.049 4.931-20.02a2.972 2.972 0 00-.652-1.514 2.938 2.938 0 00-1.346-.923h-.002a126.008 126.008 0 00-5.82-1.755l-.003-.001C23.651 4.53 21.344 4 19.975 4v1.269z"/><path fill="#3593FF" d="M19.973 34.731c.16 0 .518-.093 1.056-.345a12.781 12.781 0 001.899-1.133 22.343 22.343 0 004.795-4.679c3.182-4.168 5.832-10.492 4.685-19.107l-.002-.017a1.703 1.703 0 00-.37-.841 1.668 1.668 0 00-.765-.524 124.708 124.708 0 00-5.759-1.736c-2.226-.602-4.366-1.08-5.537-1.08L19.974 20l-.001 14.731z"/><path fill="#3794FF" d="M19.98 11c-4.686 0-8.5 3.813-8.5 8.5 0 4.687 3.814 8.5 8.5 8.5 4.687 0 8.5-3.813 8.5-8.5 0-4.687-3.813-8.5-8.5-8.5zm0 15.118a6.626 6.626 0 01-6.618-6.618 6.626 6.626 0 016.618-6.618A6.626 6.626 0 0126.6 19.5a6.626 6.626 0 01-6.619 6.618z"/><path fill="#fff" d="M19.981 26.118a6.626 6.626 0 01-6.618-6.618 6.626 6.626 0 016.618-6.618A6.626 6.626 0 0126.6 19.5a6.626 6.626 0 01-6.618 6.618z"/><path fill="#0069E1" fill-rule="evenodd" d="M19.98 11v1.882A6.626 6.626 0 0126.6 19.5a6.626 6.626 0 01-6.619 6.618V28c4.687 0 8.5-3.813 8.5-8.5 0-4.687-3.813-8.5-8.5-8.5z" clip-rule="evenodd"/><path fill="#EEE" d="M26.599 19.5a6.626 6.626 0 00-6.619-6.618v13.236A6.626 6.626 0 0026.6 19.5z"/><path fill="#3794FF" fill-rule="evenodd" d="M19.98 18.814c-.46-.172-.883-.363-1.183-.57-.242-.167-.344-.493-.267-.851.072-.34.335-.75.855-.889.213-.056.412-.082.595-.088v-2.168a.696.696 0 00-.056-.002c-.354 0-.64.252-.64.563v.556a4.287 4.287 0 00-.267.061c-.895.237-1.563.911-1.744 1.758-.166.773.116 1.519.735 1.946.447.31 1.042.582 1.972.898v-1.214zm-.056 6.473c.018 0 .037 0 .056-.002v-2.252l-.06.001c-.924.006-1.236-.039-1.962-.457-.295-.17-.691-.097-.885.163-.193.26-.11.61.185.78.79.455 1.332.593 2.026.63v.574c0 .31.286.563.64.563z" clip-rule="evenodd"/><path fill="#0069E1" d="M20.673 20.253c1.132.352 1.062 1.205 1.014 1.458-.118.62-.702 1.29-1.707 1.322v2.252c.327-.025.584-.267.584-.561v-.62c1.391-.247 2.204-1.26 2.384-2.206.234-1.222-.492-2.284-1.849-2.707-.369-.114-.756-.24-1.119-.377v1.214c.213.073.443.147.693.225zm.62-3.47c.26.207.661.191.9-.036a.517.517 0 00-.037-.796c-.035-.028-.625-.496-1.592-.629v-.513c0-.294-.257-.535-.584-.56v2.167c.79-.024 1.28.342 1.313.367z"/></svg>