<svg xmlns="http://www.w3.org/2000/svg" width="328" height="110" fill="none"><path fill="#2A3A4E" d="M327.059.087v29.88h-24.9V.087zm-27.391 0v29.88h-24.9V.087zm-27.391 0v29.88h-24.9V.087zm-27.388 0v29.88h-24.9V.087zm-27.391 0v29.88h-24.9V.087zm-27.391 0v29.88h-24.9V.087zm-27.39 0v29.88h-24.9V.087zm-27.389 0v29.88h-24.9V.087zm-27.39 0v29.88h-24.9V.087zm-27.391 0v29.88h-24.9V.087zm-27.391 0v29.88h-24.9V.087zm-27.39 0v29.88H.866V.087z"/><path fill="#64ACFF" d="M2.409.087a4.98 4.98 0 014.98 4.98v19.92a4.98 4.98 0 01-4.98 4.98H.865V.087h1.544z"/><path fill="#fff" d="M9.281 19.311v-.648a87.927 87.927 0 002.157-2.223c.591-.645 1.041-1.222 1.35-1.734.31-.52.463-1.006.463-1.456 0-.485-.132-.882-.396-1.191-.265-.309-.667-.463-1.205-.463-.353 0-.68.101-.98.304a3.89 3.89 0 00-.82.715l-.622-.622a4.723 4.723 0 011.125-.927c.406-.238.882-.357 1.43-.357.785 0 1.402.23 1.852.688.45.45.675 1.05.675 1.8 0 .53-.15 1.068-.45 1.615-.29.538-.697 1.107-1.217 1.707a50.457 50.457 0 01-1.774 1.932l.715-.053a9.89 9.89 0 01.701-.026h2.449v.94H9.28zm9.345.16c-.847 0-1.513-.38-1.999-1.139-.476-.768-.714-1.857-.714-3.269 0-1.42.238-2.501.714-3.242.486-.742 1.152-1.112 1.999-1.112.838 0 1.495.37 1.972 1.112.485.74.728 1.822.728 3.242 0 1.412-.243 2.501-.728 3.27-.477.758-1.134 1.137-1.972 1.137zm0-.874c.494 0 .89-.278 1.19-.834.3-.565.45-1.465.45-2.7s-.15-2.122-.45-2.66c-.3-.547-.696-.82-1.19-.82s-.896.273-1.205.82c-.3.538-.45 1.425-.45 2.66s.15 2.135.45 2.7c.31.556.71.834 1.205.834zm4.328.714v-.9h1.933v-6.22h-1.535v-.701c.388-.07.723-.155 1.005-.252.291-.105.552-.23.781-.37h.834v7.544h1.747v.9h-4.765zm6.063 0v-.648a87.896 87.896 0 002.157-2.223c.591-.645 1.041-1.222 1.35-1.734.309-.52.463-1.006.463-1.456 0-.485-.132-.882-.397-1.191-.264-.309-.666-.463-1.204-.463-.353 0-.68.101-.98.304a3.91 3.91 0 00-.82.715l-.622-.622a4.723 4.723 0 011.125-.927c.406-.238.882-.357 1.43-.357.785 0 1.402.23 1.852.688.45.45.675 1.05.675 1.8 0 .53-.15 1.068-.45 1.615-.291.538-.697 1.107-1.217 1.707a50.457 50.457 0 01-1.774 1.932l.715-.053c.247-.017.48-.026.701-.026h2.449v.94h-5.453zm6.592-2.898v-.834h3.044v.834h-3.044zm4.096 2.898v-.648a87.7 87.7 0 002.158-2.223c.59-.645 1.04-1.222 1.35-1.734.309-.52.463-1.006.463-1.456 0-.485-.132-.882-.397-1.191-.265-.309-.666-.463-1.205-.463-.352 0-.679.101-.979.304a3.91 3.91 0 00-.82.715l-.622-.622a4.725 4.725 0 011.125-.927c.405-.238.882-.357 1.429-.357.785 0 1.403.23 1.853.688.45.45.675 1.05.675 1.8 0 .53-.15 1.068-.45 1.615-.291.538-.697 1.107-1.218 1.707a50.457 50.457 0 01-1.773 1.932l.714-.053c.247-.017.481-.026.702-.026h2.448v.94h-5.453zm9.345.16c-.847 0-1.513-.38-1.998-1.139-.477-.768-.715-1.857-.715-3.269 0-1.42.238-2.501.715-3.242.485-.742 1.151-1.112 1.998-1.112.838 0 1.496.37 1.972 1.112.485.74.728 1.822.728 3.242 0 1.412-.243 2.501-.728 3.27-.476.758-1.134 1.137-1.972 1.137zm0-.874c.494 0 .891-.278 1.191-.834.3-.565.45-1.465.45-2.7s-.15-2.122-.45-2.66c-.3-.547-.697-.82-1.19-.82-.495 0-.896.273-1.205.82-.3.538-.45 1.425-.45 2.66s.15 2.135.45 2.7c.309.556.71.834 1.204.834zm4.329.714v-.9h1.932v-6.22h-1.535v-.701a6.91 6.91 0 001.006-.252 4.27 4.27 0 00.78-.37h.834v7.544h1.747v.9H53.38zm7.875 0a19.69 19.69 0 01.331-2.845c.177-.847.433-1.641.768-2.382.344-.75.794-1.509 1.35-2.277h-4.209v-.94h5.44v.676a12.61 12.61 0 00-1.231 1.84 9.011 9.011 0 00-.741 1.773 12.107 12.107 0 00-.397 1.906c-.089.679-.15 1.429-.186 2.25h-1.125z"/><path fill="#2A3A4E" d="M327.06 39.927v29.88h-24.9v-29.88zm-27.392 0v29.88h-24.9v-29.88zm-27.391 0v29.88h-24.9v-29.88zm-27.387 0v29.88h-24.9v-29.88zm-27.392 0v29.88h-24.9v-29.88zm-27.391 0v29.88h-24.9v-29.88zm-27.39 0v29.88h-24.9v-29.88zm-27.389 0v29.88h-24.9v-29.88zm-27.39 0v29.88h-24.9v-29.88zm-27.391 0v29.88h-24.9v-29.88zm-27.391 0v29.88h-24.9v-29.88zm-27.39.001v29.88H.866v-29.88z"/><path fill="#64ACFF" d="M93.745 39.927a4.98 4.98 0 014.98 4.98v19.92a4.98 4.98 0 01-4.98 4.98H.867v-29.88h92.878z"/><path fill="#fff" d="M9.281 59.153v-.649a87.927 87.927 0 002.157-2.223c.591-.644 1.041-1.222 1.35-1.734.31-.52.463-1.006.463-1.456 0-.485-.132-.882-.396-1.19-.265-.31-.667-.464-1.205-.464-.353 0-.68.102-.98.304-.3.194-.573.433-.82.715l-.622-.622a4.723 4.723 0 011.125-.926c.406-.239.882-.358 1.43-.358.785 0 1.402.23 1.852.689.45.45.675 1.05.675 1.8 0 .529-.15 1.067-.45 1.614-.29.538-.697 1.107-1.217 1.707a50.382 50.382 0 01-1.774 1.933c.23-.018.468-.036.715-.053a9.89 9.89 0 01.701-.027h2.449v.94H9.28zm9.345.159c-.847 0-1.513-.38-1.999-1.139-.476-.767-.714-1.857-.714-3.269 0-1.42.238-2.5.714-3.242.486-.741 1.152-1.112 1.999-1.112.838 0 1.495.37 1.972 1.112.485.741.728 1.822.728 3.242 0 1.412-.243 2.502-.728 3.27-.477.758-1.134 1.138-1.972 1.138zm0-.874c.494 0 .89-.278 1.19-.834.3-.564.45-1.464.45-2.7 0-1.235-.15-2.122-.45-2.66-.3-.547-.696-.82-1.19-.82s-.896.273-1.205.82c-.3.538-.45 1.425-.45 2.66 0 1.236.15 2.136.45 2.7.31.556.71.834 1.205.834zm4.328.715v-.9h1.933v-6.22h-1.535v-.702a6.87 6.87 0 001.005-.251c.291-.106.552-.23.781-.37h.834v7.543h1.747v.9h-4.765zm8.842.159c-.53 0-1.001-.097-1.416-.291a2.556 2.556 0 01-.992-.834 2.08 2.08 0 01-.358-1.191c0-.371.075-.698.225-.98.159-.291.358-.542.596-.754.247-.22.503-.402.767-.543v-.053a3.745 3.745 0 01-.82-.807c-.238-.318-.358-.697-.358-1.138a2.04 2.04 0 011.178-1.893 2.631 2.631 0 011.218-.278c.732 0 1.31.212 1.734.636.432.423.648.961.648 1.614 0 .291-.062.57-.185.834a3.41 3.41 0 01-.45.701 3.457 3.457 0 01-.53.503v.053c.256.141.495.31.715.503.22.194.402.428.543.702.141.264.212.586.212.966 0 .414-.115.794-.345 1.138-.22.344-.538.618-.953.82-.405.195-.882.292-1.429.292zm.596-4.765c.282-.256.498-.525.648-.807.16-.282.239-.578.239-.887 0-.415-.129-.767-.384-1.059-.256-.29-.618-.436-1.086-.436a1.38 1.38 0 00-.979.37c-.256.247-.384.578-.384.993 0 .335.088.613.265.834.185.22.428.41.728.569.3.15.617.29.953.423zm-.57 3.957c.495 0 .892-.136 1.192-.41a1.39 1.39 0 00.463-1.072c0-.362-.106-.657-.318-.887a2.728 2.728 0 00-.847-.595 15.195 15.195 0 00-1.125-.49 3.31 3.31 0 00-.847.794c-.22.309-.33.657-.33 1.046 0 .467.171.855.516 1.164.353.3.785.45 1.297.45zm3.787-2.25v-.833h3.044v.833h-3.044zm4.096 2.899v-.649a87.7 87.7 0 002.158-2.223c.59-.644 1.04-1.222 1.35-1.734.309-.52.463-1.006.463-1.456 0-.485-.132-.882-.397-1.19-.265-.31-.666-.464-1.205-.464a1.72 1.72 0 00-.979.304 3.91 3.91 0 00-.82.715l-.622-.622a4.725 4.725 0 011.125-.926c.405-.239.882-.358 1.429-.358.785 0 1.403.23 1.853.689.45.45.675 1.05.675 1.8 0 .529-.15 1.067-.45 1.614-.291.538-.697 1.107-1.218 1.707a50.382 50.382 0 01-1.773 1.933c.23-.018.467-.036.714-.053a9.68 9.68 0 01.702-.027h2.448v.94h-5.453zm9.345.159c-.847 0-1.513-.38-1.998-1.139-.477-.767-.715-1.857-.715-3.269 0-1.42.238-2.5.715-3.242.485-.741 1.151-1.112 1.998-1.112.838 0 1.496.37 1.972 1.112.485.741.728 1.822.728 3.242 0 1.412-.243 2.502-.728 3.27-.476.758-1.134 1.138-1.972 1.138zm0-.874c.494 0 .891-.278 1.191-.834.3-.564.45-1.464.45-2.7 0-1.235-.15-2.122-.45-2.66-.3-.547-.697-.82-1.19-.82-.495 0-.896.273-1.205.82-.3.538-.45 1.425-.45 2.66 0 1.236.15 2.136.45 2.7.309.556.71.834 1.204.834zm3.813.715v-.649a87.7 87.7 0 002.157-2.223c.591-.644 1.041-1.222 1.35-1.734.309-.52.463-1.006.463-1.456 0-.485-.132-.882-.397-1.19-.265-.31-.666-.464-1.204-.464-.353 0-.68.102-.98.304a3.91 3.91 0 00-.82.715l-.622-.622a4.723 4.723 0 011.125-.926c.405-.239.882-.358 1.429-.358.785 0 1.403.23 1.853.689.45.45.675 1.05.675 1.8 0 .529-.15 1.067-.45 1.614-.291.538-.697 1.107-1.218 1.707a50.39 50.39 0 01-1.773 1.933c.23-.018.468-.036.715-.053.247-.018.48-.027.7-.027h2.45v.94h-5.453zm7.094 0v-.9h1.933v-6.22h-1.535v-.702a6.95 6.95 0 001.005-.251 4.27 4.27 0 00.781-.37h.834v7.543h1.747v.9h-4.765z"/><path fill="#2A3A4E" d="M327.059 79.768v29.88h-24.9v-29.88zm-27.391 0v29.88h-24.9v-29.88zm-27.391 0v29.88h-24.9v-29.88zm-27.388 0v29.88h-24.9v-29.88zm-27.391 0v29.88h-24.9v-29.88zm-27.391 0v29.88h-24.9v-29.88zm-27.39 0v29.88h-24.9v-29.88zm-27.389 0v29.88h-24.9v-29.88zm-27.39 0v29.88h-24.9v-29.88zm-27.392 0v29.88h-24.9v-29.88zm-27.39-.001v29.88h-24.9v-29.88zm-27.391.001v29.88H.865v-29.88z"/><path fill="#fff" d="M11.637 98.993v-.61a82.654 82.654 0 002.03-2.091c.555-.606.979-1.15 1.269-1.632.29-.49.436-.946.436-1.369 0-.456-.125-.83-.374-1.12-.249-.291-.626-.436-1.133-.436-.332 0-.639.095-.921.286-.282.183-.54.407-.772.672l-.585-.585a4.442 4.442 0 011.058-.871c.382-.224.83-.336 1.345-.336.739 0 1.32.215 1.743.647.423.423.635.988.635 1.693 0 .498-.141 1.005-.423 1.52-.274.505-.656 1.04-1.146 1.605a47.371 47.371 0 01-1.668 1.818l.672-.05c.232-.016.452-.025.66-.025h2.303v.884h-5.13zm8.79.15c-.796 0-1.423-.357-1.88-1.071-.448-.722-.672-1.747-.672-3.075 0-1.337.224-2.353.672-3.05.457-.698 1.084-1.046 1.88-1.046.789 0 1.407.348 1.855 1.045.457.698.685 1.714.685 3.05 0 1.329-.228 2.354-.685 3.076-.448.714-1.066 1.07-1.855 1.07zm0-.822c.465 0 .839-.262 1.12-.784.283-.532.424-1.378.424-2.54 0-1.162-.14-1.996-.423-2.503-.282-.514-.656-.772-1.12-.772-.465 0-.843.258-1.134.772-.282.507-.423 1.34-.423 2.503 0 1.162.141 2.008.423 2.54.29.522.669.784 1.133.784zm4.072.672v-.846h1.818v-5.852h-1.444v-.66a6.54 6.54 0 00.946-.236c.274-.1.519-.216.735-.349h.784v7.097h1.643v.846H24.5zm5.703 0v-.61a82.654 82.654 0 002.03-2.091c.556-.606.98-1.15 1.27-1.632.29-.49.435-.946.435-1.369 0-.456-.124-.83-.373-1.12-.249-.291-.627-.436-1.133-.436-.332 0-.64.095-.921.286a3.68 3.68 0 00-.772.672l-.585-.585a4.442 4.442 0 011.058-.871c.382-.224.83-.336 1.345-.336.738 0 1.32.215 1.742.647.424.423.636.988.636 1.693 0 .498-.142 1.005-.424 1.52-.274.505-.655 1.04-1.145 1.605a47.298 47.298 0 01-1.669 1.818l.673-.05c.232-.016.452-.025.66-.025h2.303v.884h-5.13zm6.201-2.726v-.785h2.864v.785h-2.864zm3.854 2.726v-.61a82.654 82.654 0 002.03-2.091c.556-.606.98-1.15 1.27-1.632.29-.49.435-.946.435-1.369 0-.456-.124-.83-.373-1.12-.25-.291-.627-.436-1.133-.436-.332 0-.64.095-.921.286a3.68 3.68 0 00-.772.672l-.585-.585a4.442 4.442 0 011.058-.871c.382-.224.83-.336 1.344-.336.74 0 1.32.215 1.743.647.424.423.635.988.635 1.693 0 .498-.14 1.005-.423 1.52-.274.505-.656 1.04-1.145 1.605a47.371 47.371 0 01-1.669 1.818l.673-.05c.232-.016.452-.025.66-.025h2.303v.884h-5.13zm8.791.15c-.797 0-1.424-.357-1.88-1.071-.448-.722-.672-1.747-.672-3.075 0-1.337.224-2.353.672-3.05.456-.698 1.083-1.046 1.88-1.046.788 0 1.407.348 1.855 1.045.457.698.685 1.714.685 3.05 0 1.329-.228 2.354-.685 3.076-.448.714-1.066 1.07-1.855 1.07zm0-.822c.465 0 .838-.262 1.12-.784.283-.532.424-1.378.424-2.54 0-1.162-.141-1.996-.423-2.503-.283-.514-.656-.772-1.121-.772-.465 0-.843.258-1.133.772-.282.507-.423 1.34-.423 2.503 0 1.162.14 2.008.423 2.54.29.522.668.784 1.133.784zm4.072.672v-.846h1.818v-5.852h-1.445v-.66a6.54 6.54 0 00.947-.236c.274-.1.519-.216.734-.349h.785v7.097h1.643v.846H53.12zm7.409 0c.05-.996.153-1.888.311-2.677.166-.796.407-1.543.722-2.24a12.7 12.7 0 011.27-2.142h-3.96v-.884h5.118v.635a11.861 11.861 0 00-1.158 1.73 8.475 8.475 0 00-.697 1.669c-.166.556-.29 1.153-.374 1.793-.083.639-.14 1.344-.174 2.116h-1.058z"/><path fill="#64ACFF" d="M286.52 79.768a4.98 4.98 0 014.98 4.98v19.92a4.98 4.98 0 01-4.98 4.98H.865v-29.88H286.52z"/><path fill="#fff" d="M9.281 98.993v-.648a88.082 88.082 0 002.157-2.224c.591-.644 1.041-1.222 1.35-1.733.31-.521.463-1.006.463-1.456 0-.486-.132-.883-.396-1.192-.265-.308-.667-.463-1.205-.463-.353 0-.68.102-.98.305-.3.194-.573.432-.82.714l-.622-.622a4.721 4.721 0 011.125-.926c.406-.238.882-.357 1.43-.357.785 0 1.402.229 1.852.688.45.45.675 1.05.675 1.8 0 .53-.15 1.067-.45 1.614-.29.539-.697 1.108-1.217 1.708a50.307 50.307 0 01-1.774 1.932l.715-.053a9.63 9.63 0 01.701-.026h2.449v.94H9.28zm9.345.159c-.847 0-1.513-.38-1.999-1.138-.476-.768-.714-1.858-.714-3.27 0-1.42.238-2.5.714-3.242.486-.74 1.152-1.111 1.999-1.111.838 0 1.495.37 1.972 1.111.485.742.728 1.822.728 3.243 0 1.411-.243 2.501-.728 3.269-.477.759-1.134 1.138-1.972 1.138zm0-.874c.494 0 .89-.277 1.19-.833.3-.565.45-1.465.45-2.7s-.15-2.122-.45-2.66c-.3-.547-.696-.82-1.19-.82s-.896.273-1.205.82c-.3.538-.45 1.425-.45 2.66s.15 2.135.45 2.7c.31.556.71.834 1.205.834zm3.812.715v-.648a88.052 88.052 0 002.158-2.224c.59-.644 1.04-1.222 1.35-1.733.308-.521.463-1.006.463-1.456 0-.486-.133-.883-.397-1.192-.265-.308-.666-.463-1.205-.463-.353 0-.68.102-.98.305a3.939 3.939 0 00-.82.714l-.622-.622a4.72 4.72 0 011.125-.926c.406-.238.883-.357 1.43-.357.785 0 1.402.229 1.852.688.45.45.675 1.05.675 1.8 0 .53-.15 1.067-.45 1.614-.29.539-.697 1.108-1.217 1.708a50.307 50.307 0 01-1.774 1.932l.715-.053c.247-.018.481-.026.702-.026h2.448v.94h-5.453zm6.579 0v-.648a88.052 88.052 0 002.157-2.224c.591-.644 1.041-1.222 1.35-1.733.309-.521.463-1.006.463-1.456 0-.486-.132-.883-.397-1.192-.264-.308-.666-.463-1.204-.463-.353 0-.68.102-.98.305-.3.194-.573.432-.82.714l-.622-.622a4.72 4.72 0 011.125-.926c.406-.238.882-.357 1.43-.357.785 0 1.402.229 1.852.688.45.45.675 1.05.675 1.8 0 .53-.15 1.067-.45 1.614-.291.539-.697 1.108-1.217 1.708a50.307 50.307 0 01-1.774 1.932l.715-.053a9.63 9.63 0 01.701-.026h2.449v.94h-5.453zm6.592-2.898v-.834h3.044v.834h-3.044zm4.096 2.898v-.648a87.854 87.854 0 002.158-2.224c.59-.644 1.04-1.222 1.35-1.733.309-.521.463-1.006.463-1.456 0-.486-.132-.883-.397-1.192-.265-.308-.666-.463-1.205-.463-.352 0-.679.102-.979.305-.3.194-.573.432-.82.714l-.622-.622a4.723 4.723 0 011.125-.926c.405-.238.882-.357 1.429-.357.785 0 1.403.229 1.853.688.45.45.675 1.05.675 1.8 0 .53-.15 1.067-.45 1.614-.291.539-.697 1.108-1.218 1.708a50.307 50.307 0 01-1.773 1.932l.714-.053c.247-.018.481-.026.702-.026h2.448v.94h-5.453zm9.345.159c-.847 0-1.513-.38-1.998-1.138-.477-.768-.715-1.858-.715-3.27 0-1.42.238-2.5.715-3.242.485-.74 1.151-1.111 1.998-1.111.838 0 1.496.37 1.972 1.111.485.742.728 1.822.728 3.243 0 1.411-.243 2.501-.728 3.269-.476.759-1.134 1.138-1.972 1.138zm0-.874c.494 0 .891-.277 1.191-.833.3-.565.45-1.465.45-2.7s-.15-2.122-.45-2.66c-.3-.547-.697-.82-1.19-.82-.495 0-.896.273-1.205.82-.3.538-.45 1.425-.45 2.66s.15 2.135.45 2.7c.309.556.71.834 1.204.834zm3.813.715v-.648a87.854 87.854 0 002.157-2.224c.591-.644 1.041-1.222 1.35-1.733.309-.521.463-1.006.463-1.456 0-.486-.132-.883-.397-1.192-.265-.308-.666-.463-1.204-.463-.353 0-.68.102-.98.305-.3.194-.573.432-.82.714l-.622-.622a4.721 4.721 0 011.125-.926c.405-.238.882-.357 1.429-.357.785 0 1.403.229 1.853.688.45.45.675 1.05.675 1.8 0 .53-.15 1.067-.45 1.614-.291.539-.697 1.108-1.218 1.708a50.316 50.316 0 01-1.773 1.932l.715-.053c.247-.018.48-.026.7-.026h2.45v.94h-5.453zm9.146.159c-.67 0-1.227-.12-1.668-.357A4.699 4.699 0 0159.243 98l.53-.715c.255.247.55.472.886.675.335.194.75.291 1.244.291.52 0 .957-.172 1.31-.516.362-.353.543-.825.543-1.416 0-.583-.163-1.037-.49-1.363-.326-.327-.763-.49-1.31-.49-.291 0-.543.044-.755.132a4.73 4.73 0 00-.688.384l-.582-.37.278-4.064h4.222v.94h-3.27l-.224 2.501a3.55 3.55 0 01.609-.251 2.36 2.36 0 01.688-.093c.485 0 .922.097 1.31.291.397.186.715.472.953.86.238.389.357.888.357 1.496 0 .61-.136 1.13-.41 1.562a2.62 2.62 0 01-1.046.966 3.02 3.02 0 01-1.39.331z"/></svg>