<svg xmlns="http://www.w3.org/2000/svg" width="40" height="40" fill="none"><path fill="#64ACFF" d="M4 23.766h32v8H4v-8z"/><path fill="#3593FF" d="M20 23.766h16v8H20v-8z"/><path fill="#FFBE40" d="M32 20.234c0 2.83-.98 5.43-2.619 7.482H10.62A11.946 11.946 0 018 20.234c0-6.627 5.373-12 12-12 6.628 0 12 5.373 12 12z"/><path fill="#FC963A" d="M32 20.234c0 2.83-.98 5.43-2.619 7.482H20V8.234c6.628 0 12 5.373 12 12z"/><path fill="#FFDF40" d="M20 11.766c-4.67 0-8.469 3.799-8.469 8.468 0 4.67 3.8 8.47 8.469 8.47 4.67 0 8.469-3.8 8.469-8.47 0-4.669-3.8-8.468-8.469-8.468zm0 15.062a6.601 6.601 0 01-6.594-6.594A6.602 6.602 0 0120 13.641a6.602 6.602 0 016.594 6.593A6.601 6.601 0 0120 26.828z"/><path fill="#FFBE40" d="M28.469 20.234c0 4.67-3.8 8.47-8.469 8.47v-1.876a6.601 6.601 0 006.594-6.594A6.602 6.602 0 0020 13.641v-1.875c4.67 0 8.469 3.799 8.469 8.468z"/><path fill="#3593FF" d="M7.953 26.818h24.093v1.895H7.953v-1.895z"/><path fill="#006EEC" d="M20 26.818h12.046v1.895H20v-1.895z"/><path fill="#FFDF40" fill-rule="evenodd" d="M20 25.93v-3.007a12.555 12.555 0 01-.734-.172 2.065 2.065 0 01-.17-.051 6.833 6.833 0 00-.1-.033l.516-2.119c.166.014.329.04.488.075v-1.05l-.05-.014-.177-.046.227-.932v-4.012a1.425 1.425 0 00-.086-.007l-.391 1.575a9.492 9.492 0 01-1.039-.239 11.17 11.17 0 00-.901-.217c-.147.332-.212.683-.271 1.056a159.364 159.364 0 01.597.142c.479.112.61.377.496.8-.068.253-.13.508-.193.763l-.035.143-.292 1.189-.51 2.075c-.061.245-.212.325-.459.289-.091-.014-.18-.038-.271-.062-.15-.04-.3-.08-.467-.076a3.745 3.745 0 01-.187.457c-.096.209-.194.42-.241.66l1.897.488a5.012 5.012 0 01-.179.87 5.44 5.44 0 00-.171.788l.943.229c.11-.277.176-.562.242-.849.06-.255.118-.512.21-.768.107.056.218.078.33.101.135.028.27.055.394.139l-.376 1.57c.226.081.447.13.67.18.097.02.193.041.29.065z" clip-rule="evenodd"/><path fill="#FFBE40" d="M23.035 20.6c.241-.13.47-.204.652-.367.699-.631.885-2.115-.25-2.83-.353-.223-.73-.388-1.136-.556.067-.55.285-1.064.356-1.627-.336-.084-.65-.195-.977-.23l-.394 1.56c-.25-.077-.508-.07-.744-.204.085-.537.287-1.04.342-1.579-.314-.05-.585-.167-.884-.198v4.012l.006-.023.232-.955c.193-.064.35.03.508.065.428.095.84.23 1.2.498.316.235.435.582.329.977-.087.323-.382.56-.737.611-.522.075-1.016-.047-1.538-.182v1.051c.275.061.54.149.804.242.349.123.686.27.949.552.253.272.312.584.21.928-.11.365-.38.55-.739.616-.417.077-.823.04-1.224-.038v3.007l.029.008.39-1.582a.253.253 0 01.19-.021 4.86 4.86 0 001.577.08c.457-.052.863-.228 1.188-.574.361-.385.543-.856.63-1.363.072-.413.054-.831-.186-1.197a2.024 2.024 0 00-.783-.681z"/></svg>