<svg xmlns="http://www.w3.org/2000/svg" width="40" height="40" fill="none"><g clip-path="url(#a)"><path fill="#F0F5FC" d="M37.296 28.517H2.704A.704.704 0 012 27.813v-16.49l.352-1.01h35.296l.352 1.01v16.49a.704.704 0 01-.704.704z"/><path fill="#E2EEFC" d="M37.648 10.313H35.35v14.851a.704.704 0 01-.704.705H2v1.944c0 .389.315.704.704.704h34.592a.704.704 0 00.704-.704v-16.49l-.352-1.01z"/><path fill="#4C4372" d="M38 11.322H2v-6.27c0-.388.315-.702.703-.702h34.594c.388 0 .703.314.703.703v6.27z"/><path fill="#312B51" d="M37.296 4.35h-1.944v6.972H38V5.054a.704.704 0 00-.704-.704z"/><path fill="#DD636E" d="M5.376 8.847a1.03 1.03 0 100-2.06 1.03 1.03 0 000 2.06z"/><path fill="#FFD064" d="M8.51 8.847a1.03 1.03 0 100-2.06 1.03 1.03 0 000 2.06z"/><path fill="#B1E4F9" d="M11.641 8.847a1.03 1.03 0 100-2.06 1.03 1.03 0 000 2.06z"/><path fill="#64ACFF" d="M34.262 8.092h-1.63c-1.38 0-2.59.979-2.88 2.328l-.886 4.12a.211.211 0 01-.206.167H9.245c-.25 0-.5.066-.707.206a1.233 1.233 0 00-.521 1.285l2.842 13.23c.122.569.624.974 1.205.974h14.92c.58 0 1.082-.406 1.204-.974l3.973-18.49a.484.484 0 01.471-.381h1.662c.673 0 1.22-.54 1.233-1.21.012-.69-.574-1.255-1.265-1.255zm-16.21 19.716l-.138-1.664a.14.14 0 01.14-.152h2.802a.14.14 0 01.14.152l-.137 1.664a.14.14 0 01-.14.129H18.19a.14.14 0 01-.14-.13zm-.364-4.41l-.137-1.664a.14.14 0 01.14-.152h3.528a.14.14 0 01.14.152l-.137 1.664a.14.14 0 01-.14.129h-3.254a.14.14 0 01-.14-.13zm-5.819-1.816h3.067a.14.14 0 01.14.13l.137 1.663a.14.14 0 01-.14.152h-2.847a.14.14 0 01-.137-.111l-.357-1.664a.14.14 0 01.137-.17zm5.456-2.594l-.137-1.664a.14.14 0 01.14-.152h4.254a.14.14 0 01.14.152l-.137 1.664a.14.14 0 01-.14.129h-3.98a.14.14 0 01-.14-.13zm6.65 2.594h3.204a.14.14 0 01.137.17l-.357 1.664a.14.14 0 01-.137.11h-2.984a.14.14 0 01-.14-.151l.137-1.664a.14.14 0 01.14-.129zm3.794-2.465h-3.568a.14.14 0 01-.14-.152l.137-1.664a.14.14 0 01.14-.129h3.788a.14.14 0 01.138.17l-.357 1.664a.14.14 0 01-.138.11zM14.713 17.3l.137 1.664a.14.14 0 01-.14.152h-3.431a.14.14 0 01-.138-.111l-.357-1.664a.14.14 0 01.137-.17h3.651a.14.14 0 01.14.13zm-1.896 8.691h2.482a.14.14 0 01.14.13l.137 1.663a.14.14 0 01-.14.152h-2.262a.14.14 0 01-.137-.111l-.358-1.664a.14.14 0 01.137-.17zm10.517 1.793l.137-1.664a.14.14 0 01.14-.129h2.62a.14.14 0 01.138.17l-.358 1.664a.14.14 0 01-.137.111h-2.4a.14.14 0 01-.14-.152z"/><path fill="#3593FF" d="M34.338 8.094l.002.049a1.233 1.233 0 01-1.233 1.209h-.947c-.649 0-1.21.453-1.346 1.087l-3.812 17.784a1.233 1.233 0 01-1.205.974h-14.92l-.068-.003.05.234c.122.568.624.974 1.206.974h14.918c.581 0 1.084-.406 1.206-.974l3.972-18.49a.484.484 0 01.471-.381h1.662a1.233 1.233 0 00.044-2.463z"/><path fill="#ECF6FD" d="M14.862 35.648a3.022 3.022 0 100-6.045 3.022 3.022 0 000 6.045zm9.186 0a3.022 3.022 0 100-6.044 3.022 3.022 0 000 6.044z"/><path fill="#D6E8FE" d="M16.378 30.012a3.022 3.022 0 01-4.123 4.142 3.022 3.022 0 104.123-4.142zm9.186 0a3.022 3.022 0 01-4.123 4.142 3.022 3.022 0 104.123-4.142z"/><path fill="#453D81" d="M14.862 33.534a.907.907 0 100-1.813.907.907 0 000 1.813zm9.186 0a.907.907 0 100-1.813.907.907 0 000 1.813z"/></g><defs><clipPath id="a"><path fill="#fff" d="M2 2h36v36H2z"/></clipPath></defs></svg>