<svg xmlns="http://www.w3.org/2000/svg" width="80" height="80" fill="none"><g clip-path="url(#a)"><path fill="#F0F5FC" d="M74.591 57.036H5.41c-.778 0-1.409-.63-1.409-1.408v-32.98l.704-2.021h70.592l.704 2.02v32.98c0 .779-.63 1.41-1.409 1.41z"/><path fill="#E2EEFC" d="M75.296 20.627h-4.593v29.704c0 .778-.63 1.408-1.409 1.408H4v3.889c0 .778.63 1.408 1.409 1.408H74.59c.778 0 1.409-.63 1.409-1.408v-32.98l-.704-2.021z"/><path fill="#4C4372" d="M76 22.647H4v-12.54c0-.776.63-1.406 1.406-1.406h69.188c.776 0 1.406.63 1.406 1.406v12.54z"/><path fill="#312B51" d="M74.591 8.701h-3.888v13.946H76V10.11c0-.778-.63-1.409-1.409-1.409z"/><path fill="#DD636E" d="M10.754 17.695a2.06 2.06 0 100-4.12 2.06 2.06 0 000 4.12z"/><path fill="#FFD064" d="M17.017 17.695a2.06 2.06 0 100-4.12 2.06 2.06 0 000 4.12z"/><path fill="#B1E4F9" d="M23.283 17.695a2.06 2.06 0 100-4.12 2.06 2.06 0 000 4.12z"/><path fill="#64ACFF" d="M68.524 16.186h-3.26a5.925 5.925 0 00-5.761 4.655l-1.771 8.241a.422.422 0 01-.413.334H18.49c-.5 0-.998.133-1.413.413a2.469 2.469 0 00-1.043 2.57l5.686 26.46a2.465 2.465 0 002.41 1.947h29.838a2.465 2.465 0 002.41-1.947l7.946-36.982a.969.969 0 01.942-.761h3.323a2.465 2.465 0 002.465-2.418c.026-1.382-1.148-2.512-2.53-2.512zM36.103 55.618l-.274-3.328a.281.281 0 01.28-.304h5.603a.28.28 0 01.28.305l-.274 3.327a.281.281 0 01-.28.258h-5.055a.281.281 0 01-.28-.258zm-.727-8.82l-.274-3.328a.281.281 0 01.28-.304h7.056a.28.28 0 01.28.305l-.274 3.327a.281.281 0 01-.28.258h-6.507a.281.281 0 01-.28-.258zm-11.638-3.632h6.133a.28.28 0 01.28.258l.274 3.328a.281.281 0 01-.28.304h-5.692a.281.281 0 01-.275-.222l-.715-3.328a.281.281 0 01.275-.34zm10.912-5.188l-.274-3.328a.281.281 0 01.28-.304h8.508a.28.28 0 01.28.304l-.274 3.328a.281.281 0 01-.28.258h-7.96a.281.281 0 01-.28-.258zm13.3 5.188h6.408a.28.28 0 01.275.34l-.715 3.328a.281.281 0 01-.275.222h-5.967a.281.281 0 01-.28-.304l.273-3.328a.281.281 0 01.28-.258zm7.588-4.93h-7.136a.281.281 0 01-.28-.304l.273-3.328a.281.281 0 01.28-.258h7.578a.28.28 0 01.275.34l-.715 3.328a.281.281 0 01-.275.222zm-26.113-3.632l.274 3.328a.281.281 0 01-.28.304h-6.861a.281.281 0 01-.275-.222l-.715-3.328a.281.281 0 01.275-.34h7.302c.146 0 .268.112.28.258zm-3.792 17.382h4.964a.28.28 0 01.28.258l.275 3.328a.281.281 0 01-.28.304h-4.524a.281.281 0 01-.275-.222l-.715-3.328a.281.281 0 01.275-.34zm21.036 3.586l.274-3.328a.281.281 0 01.28-.258h5.24a.28.28 0 01.274.34l-.714 3.328a.281.281 0 01-.275.222h-4.799a.281.281 0 01-.28-.304z"/><path fill="#3593FF" d="M68.677 16.191c0 .033.004.065.003.098a2.465 2.465 0 01-2.464 2.418H64.32a2.752 2.752 0 00-2.691 2.175L54.004 56.45a2.465 2.465 0 01-2.41 1.948H21.756c-.046 0-.091-.004-.137-.006l.1.468a2.465 2.465 0 002.411 1.947h29.838a2.465 2.465 0 002.41-1.947l7.946-36.982a.969.969 0 01.942-.76h3.323a2.463 2.463 0 00.088-4.926z"/><path fill="#ECF6FD" d="M29.724 71.3a6.045 6.045 0 100-12.089 6.045 6.045 0 000 12.09zm18.373 0a6.045 6.045 0 100-12.09 6.045 6.045 0 000 12.09z"/><path fill="#D6E8FE" d="M32.755 60.025a6.045 6.045 0 01-8.247 8.283 6.045 6.045 0 108.247-8.283zm18.373 0a6.045 6.045 0 01-8.247 8.283 6.045 6.045 0 108.247-8.283z"/><path fill="#453D81" d="M29.724 67.068a1.813 1.813 0 100-3.627 1.813 1.813 0 000 3.627zm18.373 0a1.813 1.813 0 100-3.626 1.813 1.813 0 000 3.626z"/></g><defs><clipPath id="a"><path fill="#fff" d="M4 4h72v72H4z"/></clipPath></defs></svg>