<svg xmlns="http://www.w3.org/2000/svg" width="40" height="40" fill="none"><g clip-path="url(#a)"><ellipse cx="17.609" cy="15.566" fill="#FFBE40" rx="6.404" ry="6.347"/><path fill="#FC963A" fill-rule="evenodd" d="M17.609 21.913c3.536 0 6.403-2.841 6.403-6.347 0-3.505-2.867-6.346-6.403-6.346v12.693z" clip-rule="evenodd"/><path fill="#FFDF40" d="M17.61 11.09c-2.493 0-4.52 2.01-4.52 4.479 0 2.47 2.027 4.479 4.52 4.479 2.49 0 4.518-2.01 4.518-4.48 0-2.469-2.027-4.478-4.519-4.478zm0 7.966c-1.941 0-3.52-1.564-3.52-3.487s1.579-3.488 3.52-3.488c1.94 0 3.518 1.565 3.518 3.488s-1.579 3.487-3.519 3.487z"/><path fill="#FFBE40" d="M22.129 15.569c0 2.47-2.028 4.479-4.52 4.479v-.992c1.94 0 3.52-1.564 3.52-3.487s-1.58-3.488-3.52-3.488v-.991c2.492 0 4.52 2.01 4.52 4.479z"/></g><path fill="#FF7DA0" d="M31.894 17.906H4.051c-.58 0-1.051.467-1.051 1.042v17.01C3 36.534 3.47 37 4.051 37h27.843c.58 0 1.051-.466 1.051-1.042v-17.01c0-.575-.47-1.042-1.051-1.042z"/><path fill="url(#b)" d="M32.945 20.337H3v5.72h29.945v-5.72z"/><ellipse cx="30.597" cy="9.347" fill="#FBE88C" rx="6.404" ry="6.347"/><path fill="#FCCC24" fill-rule="evenodd" d="M30.597 15.694c3.537 0 6.404-2.842 6.404-6.347C37 5.842 34.134 3 30.597 3v12.694z" clip-rule="evenodd"/><path fill="#F4CB00" d="M30.597 4.87c-2.491 0-4.519 2.01-4.519 4.48 0 2.469 2.028 4.478 4.52 4.478 2.491 0 4.519-2.01 4.519-4.479 0-2.47-2.028-4.479-4.52-4.479zm0 7.967c-1.94 0-3.518-1.565-3.518-3.488s1.578-3.487 3.518-3.487c1.94 0 3.52 1.564 3.52 3.487s-1.58 3.488-3.52 3.488z"/><path fill="#FFA800" d="M35.117 9.35c0 2.469-2.028 4.478-4.52 4.478v-.991c1.94 0 3.52-1.565 3.52-3.488s-1.58-3.487-3.52-3.487V4.87c2.492 0 4.52 2.01 4.52 4.48z"/><g clip-path="url(#c)"><ellipse cx="28.544" cy="23.104" fill="#F8F7F8" rx="6.404" ry="6.429"/><path fill="#D0D0D0" fill-rule="evenodd" d="M28.544 29.533c3.537 0 6.404-2.879 6.404-6.43 0-3.55-2.867-6.429-6.404-6.429v12.859z" clip-rule="evenodd"/><path fill="#DEDEDE" d="M28.545 18.569c-2.492 0-4.52 2.035-4.52 4.537s2.028 4.537 4.52 4.537c2.491 0 4.519-2.035 4.519-4.537s-2.028-4.537-4.52-4.537zm0 8.07a3.53 3.53 0 01-3.519-3.533 3.53 3.53 0 013.519-3.533 3.53 3.53 0 013.518 3.533 3.53 3.53 0 01-3.518 3.532z"/><path fill="#B6B4B5" d="M33.064 23.106c0 2.502-2.027 4.537-4.52 4.537v-1.005a3.53 3.53 0 003.52-3.532 3.53 3.53 0 00-3.52-3.533V18.57c2.493 0 4.52 2.035 4.52 4.537z"/></g><defs><clipPath id="a"><path fill="#fff" d="M11.205 9.098h12.807v13.223H11.205z"/></clipPath><clipPath id="c"><path fill="#fff" d="M22.14 16.551h12.808v13.037H22.14z"/></clipPath><linearGradient id="b" x1="-71.018" x2="14.735" y1="35.77" y2="18.816" gradientUnits="userSpaceOnUse"><stop offset=".016" stop-color="#1B2B40"/><stop offset=".515" stop-color="#1B2B40"/><stop offset=".596" stop-color="#1B2B40"/><stop offset=".711" stop-color="#2E3C4F"/><stop offset=".849" stop-color="#4B5766"/><stop offset="1" stop-color="#1B2B40"/></linearGradient></defs></svg>