<svg width="40" height="40" fill="none" xmlns="http://www.w3.org/2000/svg"><path d="M6.594 10.105h27.024v19.09H6.594v-19.09z" fill="#6C93C0"/><path d="M34.416 13.035H5.584c-.875 0-1.584-.709-1.584-1.584V6.584C4 5.709 4.71 5 5.584 5h28.832C35.291 5 36 5.71 36 6.584v4.867c0 .875-.71 1.584-1.584 1.584zM34.416 23.667H5.584c-.875 0-1.584-.709-1.584-1.584v-4.867c0-.875.71-1.584 1.584-1.584h28.832c.875 0 1.584.709 1.584 1.584v4.867c0 .875-.71 1.584-1.584 1.584zM34.416 34.3H5.584C4.709 34.3 4 33.59 4 32.714v-4.867c0-.875.71-1.584 1.584-1.584h28.832c.875 0 1.584.709 1.584 1.584v4.867c0 .875-.71 1.584-1.584 1.584z" fill="#64ACFF"/><path d="M34.416 5H31.79c.677 0 1.226.549 1.226 1.226v5.584c0 .677-.549 1.225-1.226 1.225h2.627c.875 0 1.584-.709 1.584-1.584V6.584C36 5.709 35.29 5 34.416 5zM34.416 15.632H31.79c.677 0 1.226.549 1.226 1.226v5.584c0 .677-.549 1.225-1.226 1.225h2.627c.875 0 1.584-.709 1.584-1.584v-4.867c0-.875-.71-1.584-1.584-1.584zM34.416 26.264H31.79c.677 0 1.226.549 1.226 1.225v5.584c0 .677-.549 1.226-1.226 1.226h2.627c.875 0 1.584-.71 1.584-1.584v-4.867c0-.875-.71-1.584-1.584-1.584z" fill="#51A0FB"/><path d="M21.703 8.334H6.595a.587.587 0 110-1.174h15.108a.587.587 0 110 1.174zm0 2.541H6.595a.587.587 0 010-1.174h15.108a.587.587 0 110 1.174zm0 8.126H6.595a.587.587 0 110-1.174h15.108a.587.587 0 110 1.174zm0 2.54H6.595a.587.587 0 010-1.174h15.108a.588.588 0 010 1.174zm0 8.126H6.595a.587.587 0 110-1.174h15.108a.588.588 0 010 1.174zm0 2.541H6.595a.587.587 0 010-1.174h15.108a.588.588 0 010 1.174z" fill="#99C8FF"/><path d="M31.216 10.82a1.804 1.804 0 01-1.802-1.801c0-.994.808-1.802 1.802-1.802.993 0 1.802.808 1.802 1.802 0 .993-.809 1.801-1.802 1.801zM31.216 21.45a1.804 1.804 0 01-1.802-1.802c0-.994.808-1.802 1.802-1.802.993 0 1.802.808 1.802 1.802 0 .993-.809 1.801-1.802 1.801zM31.216 32.083a1.804 1.804 0 01-1.802-1.802c0-.993.808-1.801 1.802-1.801.993 0 1.802.808 1.802 1.801 0 .994-.809 1.802-1.802 1.802z" fill="#DAFF7C"/></svg>