<svg xmlns="http://www.w3.org/2000/svg" width="40" height="40" fill="none"><path fill="#3F608D" d="M19.182 12.47a.254.254 0 01-.254-.233c-.225-2.357-.995-4.597-2.166-6.307-1.037-1.514-2.271-2.417-3.303-2.417h-.003c-3.76.006-4.546 8.636-4.554 8.724a.256.256 0 11-.51-.046c.03-.373.835-9.185 5.061-9.191h.006c1.22 0 2.576.96 3.728 2.642 1.22 1.778 2.017 4.104 2.251 6.546a.259.259 0 01-.23.283h-.026z"/><path fill="#fff" d="M3.526 30.232l4.947 2.505 2.999-9.2-4.94-12.335-1.402.345L3.007 29.26c-.049.399.16.79.519.972z"/><path fill="#3593FF" d="M11.473 23.537L6.534 11.202l-.826.203a26.676 26.676 0 00.014 3.99c.33 4.198 1.43 5.366.898 8.296-.445 2.437-1.411 2.767-1.326 4.406.092 1.784 1.337 3.278 2.816 4.455l.365.185 2.998-9.2z" opacity=".3" style="mix-blend-mode:multiply"/><path fill="#fff" d="M6.531 11.202H24.98l6.104 19.711-22.612 1.824-1.94-21.535z"/><path fill="#3F608D" d="M12.247 12.893a.258.258 0 01-.251-.2c-.052-.222-1.263-5.503.444-8.096.49-.741 1.175-1.195 2.035-1.349 4.418-.778 7.14 8.713 7.254 9.118a.26.26 0 01-.18.316.259.259 0 01-.316-.18c-.026-.094-2.705-9.447-6.67-8.746-.723.128-1.279.496-1.692 1.123-1.59 2.41-.388 7.646-.374 7.698a.26.26 0 01-.19.31.334.334 0 01-.06.006z"/><path fill="#fff" d="M24.98 11.201h-9.152c-.453.459-.772.99-.803 1.582-.143 2.79 6.267 3.705 6.885 7.527.448 2.759-2.297 5.94-4.748 7.356-2.58 1.493-4.326.738-6.073 2.397-.767.727-1.232 1.639-1.51 2.582l21.505-1.733-6.104-19.71z" opacity=".3" style="mix-blend-mode:multiply"/><path fill="#3F608D" d="M12.965 12.932a.716.716 0 11-1.434-.002.716.716 0 011.434.002zm9.355-.068a.716.716 0 11-1.434.004.716.716 0 011.434-.004zm5.677 9.572a.173.173 0 01-.172-.159c-.153-1.602-.676-3.124-1.472-4.286-.705-1.028-1.544-1.642-2.245-1.642h-.002c-2.554.003-3.089 5.868-3.095 5.928a.174.174 0 11-.346-.031c.021-.254.567-6.242 3.44-6.246h.003c.83 0 1.751.653 2.533 1.795.83 1.209 1.372 2.79 1.53 4.45a.176.176 0 01-.156.19h-.018z"/><path fill="#FF7DA0" d="M17.357 34.505l3.362 1.702 2.038-6.252-3.357-8.382-.952.235-1.443 12.036a.655.655 0 00.352.66z"/><path fill="#BC8391" d="M22.757 29.956l-3.356-8.383-.562.138a18.14 18.14 0 00.01 2.711c.224 2.853.972 3.647.61 5.638-.302 1.656-.959 1.88-.9 2.994.061 1.213.908 2.227 1.913 3.027l.248.126 2.037-6.252z" opacity=".3" style="mix-blend-mode:multiply"/><path fill="#FF7DA0" d="M19.398 21.573h12.537l4.149 13.395-15.367 1.24-1.319-14.635z"/><path fill="#3F608D" d="M23.283 22.723a.175.175 0 01-.17-.136c-.035-.151-.858-3.74.302-5.502a2.033 2.033 0 011.383-.916c3.002-.53 4.851 5.92 4.929 6.195a.177.177 0 01-.122.215.176.176 0 01-.215-.122c-.018-.064-1.838-6.42-4.532-5.944-.492.087-.87.337-1.15.763-1.082 1.639-.264 5.197-.255 5.232a.177.177 0 01-.13.21.226.226 0 01-.04.005z"/><path fill="#FF7DA0" d="M31.939 21.573h-6.22c-.307.312-.524.672-.545 1.075-.097 1.896 4.259 2.518 4.679 5.115.304 1.875-1.561 4.036-3.227 4.999-1.752 1.015-2.94.501-4.127 1.629-.52.494-.836 1.113-1.026 1.754l14.614-1.177-4.148-13.395z" opacity=".3" style="mix-blend-mode:multiply"/><path fill="#3F608D" d="M23.771 22.75a.487.487 0 11-.975-.001.487.487 0 01.975 0zm6.356-.047a.487.487 0 11-.974.002.487.487 0 01.974-.002z"/></svg>