<svg xmlns="http://www.w3.org/2000/svg" width="40" height="40" fill="none"><path fill="#fff" d="M20 36c8.837 0 16-7.163 16-16S28.837 4 20 4 4 11.163 4 20s7.163 16 16 16z"/><path fill="#FF7DA0" d="M20 32.284c-6.774 0-12.285-5.511-12.285-12.284 0-6.774 5.511-12.285 12.285-12.285S32.285 13.225 32.285 20c0 6.773-5.511 12.284-12.285 12.284zm0-23.629c-6.255 0-11.344 5.09-11.344 11.345 0 6.255 5.089 11.343 11.344 11.343 6.255 0 11.344-5.088 11.344-11.343 0-6.256-5.089-11.345-11.344-11.345z"/><path fill="#fff" d="M20 36c-8.822 0-16-7.178-16-16S11.178 4 20 4s16 7.178 16 16-7.178 16-16 16zm0-28.238c-6.748 0-12.238 5.49-12.238 12.238 0 6.748 5.49 12.237 12.238 12.237 6.748 0 12.238-5.49 12.238-12.237 0-6.748-5.49-12.238-12.238-12.238z"/><path fill="#FF7DA0" d="M20.016 36l-.003-3.763c2.15-.002 4.264-.57 6.112-1.64l1.886 3.255a15.997 15.997 0 01-7.995 2.147zm-8-2.132a16.077 16.077 0 01-5.86-5.842l3.253-1.89a12.31 12.31 0 004.487 4.473l-1.88 3.26zm21.844-5.87l-3.257-1.883A12.23 12.23 0 0032.238 20v-.06H36V20c0 2.81-.74 5.576-2.14 7.997zM4 20.028V20c0-2.798.734-5.554 2.123-7.968l3.26 1.876A12.232 12.232 0 007.764 20L4 20.03zm26.578-6.188a12.311 12.311 0 00-4.497-4.464l1.873-3.263a16.08 16.08 0 015.873 5.83l-3.25 1.897zM13.852 9.416L11.96 6.165A15.997 15.997 0 0119.949 4l.012 3.762c-2.15.007-4.263.579-6.109 1.654zm6.442 13.412c.083.805.362 1.434.797 1.97.424.522.926.982 1.479 1.558h-5.13c.233-.233.381-.41.557-.551.813-.657 1.381-1.476 1.674-2.482.025-.087.043-.178.051-.269.004-.04-.026-.084-.059-.176-.217.138-.418.278-.63.398-1.156.652-2.341.853-3.537.133-.94-.567-1.328-1.479-1.085-2.545.112-.49.273-.983.505-1.425 1.223-2.329 3.088-4.102 5.029-5.796.11.038.187.044.235.085 1.726 1.47 3.33 3.057 4.53 4.998.348.561.642 1.18.826 1.813.544 1.873-.773 3.484-2.716 3.288-.663-.067-1.301-.401-1.943-.635-.183-.067-.338-.208-.583-.364z"/><path stroke="#D2D2D2" stroke-miterlimit="10" stroke-width=".288" d="M20 36c-8.822 0-16-7.178-16-16S11.178 4 20 4s16 7.178 16 16-7.178 16-16 16zm0-28.238c-6.748 0-12.238 5.49-12.238 12.238 0 6.748 5.49 12.237 12.238 12.237 6.748 0 12.238-5.49 12.238-12.237 0-6.748-5.49-12.238-12.238-12.238z"/><path stroke="#FF7DA0" stroke-miterlimit="10" stroke-width=".288" d="M20 31.297c6.239 0 11.297-5.058 11.297-11.297 0-6.24-5.058-11.297-11.297-11.297-6.24 0-11.297 5.058-11.297 11.297 0 6.239 5.058 11.297 11.297 11.297z"/></svg>