<svg xmlns="http://www.w3.org/2000/svg" width="80" height="80" fill="none"><path fill="#64ACFF" d="M41.875 24.336h-3.75v-4.969h-1.814c-3.101 0-5.711-2.441-5.788-5.542A5.69 5.69 0 0136.192 8h.013a5.69 5.69 0 015.67 5.683v1.934h17.308a1.875 1.875 0 010 3.75H41.875v4.969zM36.198 11.75a1.935 1.935 0 00-1.926 1.933c0 1.066.867 1.934 1.933 1.934h1.92v-1.934c0-1.063-.864-1.93-1.927-1.933z"/><path fill="#3593FF" d="M38.125 19.367h3.75v4.969h-3.75v-4.969z"/><path fill="url(#a)" d="M43.909 26.268h-7.82v-1.975a1.89 1.89 0 011.892-1.89h4.038a1.89 1.89 0 011.89 1.89v1.975z"/><path fill="url(#b)" d="M55.09 33.546H24.909v-6.17a2.573 2.573 0 012.574-2.573h25.036a2.573 2.573 0 012.573 2.573v6.17z"/><path fill="#64ACFF" fill-rule="evenodd" d="M75.542 57.23a.452.452 0 00-.005-.019l-.001-.002a.688.688 0 01.006.021zm-21.78 8.608a.843.843 0 01.017.012l.014.01-.031-.022zm.194.143l.013.009.04.028-.053-.037zm-13.95-4.555h.106V27.8H25.5c-5.83 0-10.923 3.146-13.673 7.833a16.314 16.314 0 00-.653 1.232 12.47 12.47 0 00-.374.85c-.002.002-.002.006-.002.006-.057.137-.11.275-.16.413-.01.02-.017.04-.024.06l-.002.008a11.276 11.276 0 00-.17.487c-.039.12-.076.24-.113.36L4.593 56.802A11.257 11.257 0 004 60.418c0 6.225 5.048 11.273 11.274 11.273a11.23 11.23 0 007.853-3.186c-.02.02-.041.04-.06.062l.13-.131.028-.03.024-.026.08-.08a.142.142 0 00.022-.02l.06-.06a15.176 15.176 0 01.368-.356c.133-.127.269-.251.404-.373l.183-.163a20.53 20.53 0 01.802-.678l.045-.035c.149-.121.298-.237.45-.353l.004-.005c.123-.094.247-.186.373-.276a5.019 5.019 0 01.21-.154c.114-.082.23-.163.346-.24a15.429 15.429 0 01.917-.602 1.1 1.1 0 01.092-.06c.02-.01.04-.025.061-.037l.032-.018c.013-.008.026-.017.04-.024a.034.034 0 01.014-.009l.067-.043c.026-.014.051-.03.076-.045l.077-.045.043-.025.042-.024a20.33 20.33 0 011.077-.593l.158-.083.015-.007c.026-.013.051-.026.078-.036a.046.046 0 01.021-.012 2.693 2.693 0 01.165-.082c.044-.024.085-.045.128-.065h.002l.013-.007c.015-.007.028-.014.042-.019l.044-.02.058-.029c.128-.06.255-.12.385-.178l.134-.06a1.82 1.82 0 01.08-.037l.043-.017a1.319 1.319 0 01.067-.03h.002a.544.544 0 01.034-.015l.027-.012.044-.019a4.332 4.332 0 01.347-.145.257.257 0 01.043-.019.458.458 0 01.057-.021c.037-.016.075-.032.114-.046l.104-.043.063-.026a2.412 2.412 0 01.1-.037l.03-.011.123-.045a4.819 4.819 0 01.383-.14c.023-.01.046-.018.069-.026a.75.75 0 00.056-.02l.042-.015.052-.017.049-.017c.117-.04.235-.08.355-.118l.015-.005a10.882 10.882 0 01.528-.165l.017-.004a.712.712 0 01.072-.023l.013-.003.03-.01a20.984 20.984 0 01.642-.177h.003c.008-.004.018-.005.025-.008a.533.533 0 01.055-.013c.071-.02.142-.038.213-.055l.02-.005a.294.294 0 00.021-.005l.171-.041.047-.012a3.35 3.35 0 01.102-.023l.095-.023.049-.01a.236.236 0 01.039-.009l.032-.007.056-.012h.002l.035-.009.052-.011a1.936 1.936 0 00.098-.02.69.69 0 01.086-.018 8.095 8.095 0 01.432-.086l.031-.006c.137-.025.272-.05.41-.072l.006-.002.164-.026a8.418 8.418 0 01.144-.023h.004c.063-.012.124-.02.186-.028.003-.002.009-.002.009-.002l.078-.012a15.163 15.163 0 01.69-.087l.04-.003h.005v-.002c.088-.01.176-.02.267-.027.043-.006.086-.01.131-.014l.018-.002a56.797 56.797 0 00.31-.026l.088-.007.056-.005h.002a.559.559 0 01.023-.001l.03-.002.016-.002h.015l.05-.004.198-.012a.266.266 0 01.027-.002h.022c.025-.004.051-.004.077-.004.013-.004.03-.004.043-.004a.763.763 0 01.07-.004l.138-.006a6.43 6.43 0 01.336-.012c.01-.002.022-.002.033-.002h.028l.027-.002h.037c.055-.002.109-.004.164-.004h.053c.117-.002.236-.004.355-.004h.014z" clip-rule="evenodd"/><path fill="#64ACFF" d="M76 60.418a11.234 11.234 0 00-.47-3.225l-.162-.507-.006-.015-.018-.051-4.883-15.111-.793-2.46a16.761 16.761 0 00-.309-.915 7.549 7.549 0 00-.138-.352 6.217 6.217 0 00-.16-.389 11.29 11.29 0 00-.238-.528 14.603 14.603 0 00-.654-1.232c-2.75-4.686-7.843-7.832-13.673-7.832H40.112v33.625a15.101 15.101 0 01.538.01c.17.003.344.009.517.019a13.065 13.065 0 01.62.04c.17.01.336.025.503.04.108.012.218.022.328.036a21.595 21.595 0 011.548.221 20.414 20.414 0 01.923.186c.106.023.215.046.32.072l.226.053a14.246 14.246 0 01.38.098h.001c.11.027.219.057.328.087l.014.004.079.021.358.105.23.07c.115.036.229.07.345.108l.194.065c.16.055.319.11.476.167l.062.024c.124.043.246.09.368.135.011.006.023.01.035.014l.126.049c.066.025.133.053.2.08.033.012.067.026.1.04l.075.03c.045.02.09.037.136.056h.001l.028.014h.002l.049.02.008.003c.041.018.083.036.122.051.022.012.045.022.067.032 0 0 .006 0 .007.004.006 0 .01.002.016.006.038.015.077.034.114.049.043.017.088.037.132.059l.286.13.134.064a6.343 6.343 0 01.186.088h.002l.015.009.003.002c.078.037.155.074.232.113.09.046.18.09.271.138.155.079.31.161.463.243h.002c.003.004.007.004.008.006.152.083.301.165.45.252l.073.041.041.024c.006.004.012.005.018.01.069.039.135.078.202.121.07.04.14.08.208.124a9.458 9.458 0 01.199.124h.002v.002c.015.006.029.016.045.027l.122.075c.049.032.096.06.143.092.185.12.37.242.552.367h.002l.04.03c.01.004.017.01.025.018.037.023.072.049.11.075a8.002 8.002 0 01.236.167l.004.002a.843.843 0 01.017.012l.014.01.163.12.013.01.04.028.01.008.03.022c.068.05.136.1.204.153a.33.33 0 01.032.025l.048.036a.71.71 0 01.068.055 11.564 11.564 0 01.271.21l.03.023.114.09a.026.026 0 00.008.006.063.063 0 01.004.005l.01.007.059.05c.131.106.265.216.394.328.115.096.227.194.338.293l.183.162.016.016.054.047c.044.04.089.08.132.122.067.061.136.124.202.189a28.74 28.74 0 01.45.436l.083.082.006.006.02.02a11.23 11.23 0 007.95 3.282 11.247 11.247 0 004.663-1.008 10.64 10.64 0 001.267-.678A11.261 11.261 0 0076 60.418z"/><path fill="#3593FF" d="M76 60.418a11.234 11.234 0 00-.47-3.225l-.163-.507-.006-.015c-.005-.018-.012-.034-.018-.051L70.46 41.509l-.793-2.46a16.675 16.675 0 00-.308-.915 7.662 7.662 0 00-.138-.352 6.02 6.02 0 00-.161-.389 11.29 11.29 0 00-.238-.528 14.6 14.6 0 00-.654-1.232c-2.75-4.686-7.843-7.832-13.673-7.832H40.111v33.625a15.108 15.108 0 01.539.01c.17.003.343.009.516.019a13.092 13.092 0 01.62.04c.17.01.336.025.503.04.109.012.218.022.328.036a21.59 21.59 0 011.548.221 20.708 20.708 0 011.244.258l.226.053a14.238 14.238 0 01.379.098h.001c.11.027.219.057.328.087l.015.004.078.021.358.105.23.07c.115.036.229.07.345.108l.194.065c.16.055.319.11.476.167l.063.024c.123.043.245.09.367.135.012.006.024.01.035.014l.126.049c.067.025.134.053.2.08.034.012.067.026.1.04l.075.03c.045.02.09.037.136.056h.002c.008.004.017.01.027.014h.002l.05.02.007.003c.042.018.083.036.122.051.022.012.045.022.067.032 0 0 .006 0 .008.004.006 0 .01.002.015.006.038.015.077.034.114.049.044.017.089.037.132.059l.287.13.133.064a6.338 6.338 0 01.186.088h.003c.005.002.01.005.014.009l.003.002c.079.037.156.074.232.113.09.046.18.09.271.138.155.079.31.161.463.243h.003c.002.004.006.004.007.006.152.083.301.165.45.252l.073.041c.016.008.03.018.041.024.006.004.012.005.018.01.069.039.135.078.202.121.071.04.14.08.208.124a8.468 8.468 0 01.199.124h.002v.002c.015.006.029.016.045.027.041.024.082.05.122.075.049.032.096.06.143.092.185.12.37.242.552.367h.002l.04.03c.01.004.017.01.025.018.037.023.072.049.11.075.077.053.15.103.224.159l.012.008.004.002a.843.843 0 01.017.012l.014.01.163.12.013.01.04.028c.004.003.008.005.01.008l.03.022c.068.05.137.1.204.153a.33.33 0 01.033.025l.047.036a.723.723 0 01.069.055 11.307 11.307 0 01.271.21l.03.023.113.09a.027.027 0 00.008.006.052.052 0 01.004.005l.01.007c.02.018.041.034.06.05a19.417 19.417 0 01.732.621l.182.162.016.016.055.047.132.122c.066.061.135.124.202.189a28.734 28.734 0 01.532.519c.002 0 .004.003.006.005l.02.02a11.23 11.23 0 007.95 3.282 11.246 11.246 0 004.664-1.008 10.64 10.64 0 001.266-.678A11.261 11.261 0 0076 60.418z"/><path fill="#3593FF" d="M60.036 49.183a8.23 8.23 0 100-16.459 8.23 8.23 0 000 16.46z"/><path fill="url(#c)" d="M62.467 45.38a2.43 2.43 0 11-4.86 0 2.43 2.43 0 014.86 0zm-2.43-10.995a2.43 2.43 0 100 4.86 2.43 2.43 0 000-4.86zm4.36 4.283a2.43 2.43 0 100 4.86 2.43 2.43 0 000-4.86zm-8.72 0a2.43 2.43 0 100 4.86 2.43 2.43 0 000-4.86z"/><path fill="#0069E1" d="M49.802 58.442a6.68 6.68 0 100-13.358 6.68 6.68 0 000 13.358z"/><path fill="url(#d)" d="M49.803 56.896a5.133 5.133 0 100-10.265 5.133 5.133 0 000 10.265z"/><path fill="#64ACFF" d="M20.245 49.183a8.23 8.23 0 100-16.458 8.23 8.23 0 000 16.458z"/><path fill="url(#e)" d="M25.212 39.348H21.81v-3.504a.52.52 0 00-.52-.52h-2.073a.52.52 0 00-.52.52v3.504h-3.422a.52.52 0 00-.52.52v2.073c0 .287.233.52.52.52h3.422v3.602c0 .287.233.52.52.52h2.073a.52.52 0 00.52-.52V42.46h3.403a.52.52 0 00.52-.52v-2.073a.52.52 0 00-.52-.52z"/><path fill="#3794FF" d="M30.005 58.442a6.68 6.68 0 100-13.358 6.68 6.68 0 000 13.358z"/><path fill="url(#f)" d="M30.006 56.896a5.133 5.133 0 100-10.265 5.133 5.133 0 000 10.265z"/><path fill="url(#g)" d="M44.213 40.125h-8.421a1.003 1.003 0 100 2.005h8.42a1.003 1.003 0 000-2.005z"/><defs><linearGradient id="a" x1="39.999" x2="39.999" y1="22.805" y2="24.917" gradientUnits="userSpaceOnUse"><stop stop-color="#ECF7FF"/><stop offset="1" stop-color="#C2E0FF"/></linearGradient><linearGradient id="b" x1="40" x2="40" y1="25.713" y2="30.49" gradientUnits="userSpaceOnUse"><stop stop-color="#ECF7FF"/><stop offset="1" stop-color="#C2E0FF"/></linearGradient><linearGradient id="c" x1="60.037" x2="60.037" y1="35.782" y2="43.118" gradientUnits="userSpaceOnUse"><stop stop-color="#ECF7FF"/><stop offset="1" stop-color="#C2E0FF"/></linearGradient><linearGradient id="d" x1="49.803" x2="49.803" y1="47.699" y2="53.308" gradientUnits="userSpaceOnUse"><stop stop-color="#ECF7FF"/><stop offset="1" stop-color="#C2E0FF"/></linearGradient><linearGradient id="e" x1="20.243" x2="20.243" y1="36.496" y2="42.648" gradientUnits="userSpaceOnUse"><stop stop-color="#ECF7FF"/><stop offset="1" stop-color="#C2E0FF"/></linearGradient><linearGradient id="f" x1="30.006" x2="30.006" y1="47.699" y2="53.308" gradientUnits="userSpaceOnUse"><stop stop-color="#ECF7FF"/><stop offset="1" stop-color="#C2E0FF"/></linearGradient><linearGradient id="g" x1="40.002" x2="40.002" y1="40.334" y2="41.429" gradientUnits="userSpaceOnUse"><stop stop-color="#ECF7FF"/><stop offset="1" stop-color="#C2E0FF"/></linearGradient></defs></svg>