<svg xmlns="http://www.w3.org/2000/svg" width="40" height="40" fill="none"><path fill="#64ACFF" d="M20.937 12.168h-1.874V9.684h-.907c-1.551 0-2.856-1.221-2.894-2.772A2.845 2.845 0 0118.096 4h.006a2.845 2.845 0 012.835 2.842v.966h8.655a.937.937 0 110 1.876h-8.655v2.484zM18.1 5.875a.968.968 0 00.003 1.933h.96v-.966a.968.968 0 00-.963-.967z"/><path fill="#3593FF" d="M19.063 9.684h1.875v2.484h-1.875V9.684z"/><path fill="url(#a)" d="M21.955 13.134h-3.91v-.988c0-.522.424-.945.946-.945h2.019c.522 0 .945.423.945.945v.988z"/><path fill="url(#b)" d="M27.546 16.772H12.455v-3.085c0-.71.575-1.287 1.286-1.287H26.26c.711 0 1.287.576 1.287 1.287v3.085z"/><path fill="#64ACFF" fill-rule="evenodd" d="M37.771 28.615l-.003-.01a.19.19 0 01.003.01zm-10.89 4.304l.008.006.007.005-.015-.01zm.097.071l.007.005.02.014-.027-.019zm-6.975-2.277h.053V13.9H12.75a7.916 7.916 0 00-7.274 4.778c-.027.06-.052.12-.076.18v.003a5.593 5.593 0 00-.093.236l-.001.005a5.778 5.778 0 00-.085.243l-.057.18L2.297 28.4A5.628 5.628 0 002 30.209a5.637 5.637 0 009.563 4.043l-.03.032a3.1 3.1 0 01.066-.066l.014-.015.011-.013.04-.04a.09.09 0 00.011-.01l.03-.03a6.644 6.644 0 01.184-.178 9.25 9.25 0 01.203-.187l.091-.081a8.887 8.887 0 01.386-.327 9.445 9.445 0 01.262-.206l.002-.002a9.27 9.27 0 01.292-.215c.057-.042.115-.082.173-.121a7.65 7.65 0 01.459-.3.542.542 0 01.046-.03l.03-.019.016-.01a.338.338 0 01.027-.015l.034-.022.038-.022.038-.023.021-.012.021-.013.14-.08a9.05 9.05 0 01.399-.216l.08-.041a.264.264 0 01.007-.004.326.326 0 01.038-.018.023.023 0 01.011-.006 1.093 1.093 0 01.146-.074h.001c.003 0 .005-.002.007-.003l.02-.01.023-.01.029-.014a11.244 11.244 0 01.26-.119c.013-.007.026-.012.04-.018a.421.421 0 00.021-.01l.017-.006.006-.003.01-.005h.002l.016-.007.014-.006.022-.01.017-.007a2.265 2.265 0 01.178-.075.217.217 0 01.028-.01 2.684 2.684 0 01.14-.057l.031-.012.02-.007.015-.006.062-.023a.487.487 0 01.036-.014l.04-.014a2.41 2.41 0 01.115-.041l.034-.014.007-.002a1.685 1.685 0 01.043-.015l.025-.009.025-.008c.059-.02.117-.04.178-.059l.007-.002a5.197 5.197 0 01.239-.075l.025-.008a.216.216 0 00.01-.002.35.35 0 01.029-.01l.006-.001.006-.002.015-.005.02-.006c.1-.028.2-.057.302-.082l.013-.004a.298.298 0 01.028-.007l.106-.028.01-.002a.217.217 0 00.01-.002l.086-.021.024-.006a1.51 1.51 0 01.098-.023l.024-.005a.863.863 0 00.036-.008l.028-.006h.001a.433.433 0 00.043-.01l.02-.004a1.144 1.144 0 01.073-.015 3.946 3.946 0 01.216-.043l.015-.003a6.74 6.74 0 01.205-.036h.003a1.28 1.28 0 01.082-.014l.054-.009.018-.003h.002a.99.99 0 01.093-.013c.001-.002.004-.002.004-.002l.04-.005a7.578 7.578 0 01.345-.043c.006-.001.013-.003.02-.003h.001a5.06 5.06 0 01.209-.022l.009-.001.146-.012.044-.004.028-.002h.012l.015-.002h.016l.025-.002a4.13 4.13 0 01.112-.008h.012c.012-.002.025-.002.038-.002.007-.002.015-.002.021-.002a.382.382 0 01.036-.001 3.416 3.416 0 01.159-.007l.014-.001.063-.002h.031l.014-.001h.018a2.02 2.02 0 01.082-.002h.026a9.46 9.46 0 01.178-.002h.007z" clip-rule="evenodd"/><path fill="#64ACFF" d="M38 30.209a5.62 5.62 0 00-.232-1.604l-.003-.009-.081-.253-.003-.008-.009-.025-2.441-7.555-.397-1.23a8.393 8.393 0 00-.24-.679 2.94 2.94 0 00-.09-.212 6.517 6.517 0 00-.42-.817 7.915 7.915 0 00-6.836-3.917h-7.192v16.813a7.554 7.554 0 01.27.005c.084.002.17.004.257.01a6.428 6.428 0 01.31.02c.085.005.169.012.252.02.054.005.11.01.164.017a10.709 10.709 0 011.082.171 6.141 6.141 0 01.313.069l.114.027a7.449 7.449 0 01.19.049c.055.013.11.028.164.043l.007.002.04.01.178.053.115.035.173.054.097.033a14.159 14.159 0 01.27.095l.183.068.018.006.062.025a3.12 3.12 0 01.15.06.88.88 0 01.038.015l.068.028.014.007h.002l.024.01.004.002.06.025.034.016s.003 0 .004.002c.003 0 .005 0 .008.003l.057.024a.95.95 0 01.066.03l.143.065.067.032.006.002.087.042h.001l.008.004.001.001.116.057.136.069c.077.04.155.08.231.122h.001l.004.003c.076.04.15.082.225.126l.037.02.02.012.009.005.101.06c.035.02.07.041.104.063a4.092 4.092 0 01.1.062 1.376 1.376 0 01.084.051c.024.016.048.03.072.047.092.06.184.12.276.183l.02.015a.035.035 0 01.013.009l.055.037a4.111 4.111 0 01.118.084l.002.001.008.006.007.005.082.06.007.005.02.014.005.004.014.01c.034.026.069.05.102.077l.017.013.023.018a.396.396 0 01.035.027 5.957 5.957 0 01.136.105l.014.012.057.045a.013.013 0 00.004.003.034.034 0 01.002.002l.005.004.03.025a8.45 8.45 0 01.366.31l.091.081.008.009.027.023.066.061a4.805 4.805 0 01.214.202 12.76 12.76 0 01.153.152l.003.002.01.01a5.615 5.615 0 003.976 1.641 5.624 5.624 0 002.965-.842A5.63 5.63 0 0038 30.209z"/><path fill="#3593FF" d="M38 30.209a5.616 5.616 0 00-.232-1.604l-.002-.009-.082-.253a.209.209 0 01-.003-.008l-.009-.025-2.441-7.555-.397-1.23a8.48 8.48 0 00-.24-.679 3.133 3.133 0 00-.09-.212 6.517 6.517 0 00-.42-.817 7.915 7.915 0 00-6.836-3.917h-7.192v16.813a7.553 7.553 0 01.27.005c.084.002.171.004.258.01a6.428 6.428 0 01.31.02c.084.005.168.012.251.02.054.005.11.01.164.017a10.709 10.709 0 011.083.171l.153.033c.053.011.107.023.16.036l.113.027a7.578 7.578 0 01.19.049c.055.013.11.028.164.043l.007.002.04.01.178.053.115.035.173.054.097.033a14.147 14.147 0 01.27.095l.183.068.018.006.063.025a3.12 3.12 0 01.15.06.88.88 0 01.037.015l.068.028.014.007h.002l.024.01.004.002.06.025.034.016s.003 0 .004.002c.003 0 .005 0 .008.003l.057.024a.95.95 0 01.066.03l.143.065.067.032.006.002.087.042h.001l.008.004.001.001.116.057.136.069c.077.04.155.08.231.122h.001l.004.003c.076.04.15.082.225.126l.037.02.02.012.009.005.101.06c.036.02.07.041.104.063a4.092 4.092 0 01.1.062 1.376 1.376 0 01.084.051c.024.016.048.03.072.047.092.06.184.12.276.183l.02.015a.035.035 0 01.013.009l.055.037a4.111 4.111 0 01.118.084l.002.001.008.006.008.005.081.06.007.005.02.014.005.004.014.01c.035.026.069.05.102.077l.017.013.023.018a.396.396 0 01.035.027l.015.011c.04.03.08.062.12.094l.015.012.057.045a.013.013 0 00.004.003.034.034 0 01.002.002l.005.004.03.025a8.246 8.246 0 01.366.31l.091.081.008.009.027.023.066.061c.034.03.068.062.101.094.039.035.076.072.113.108a12.76 12.76 0 01.153.152l.004.002.01.01a5.615 5.615 0 003.975 1.641 5.624 5.624 0 002.965-.842A5.63 5.63 0 0038 30.209z"/><path fill="#3593FF" d="M30.018 24.59a4.115 4.115 0 100-8.229 4.115 4.115 0 000 8.23z"/><path fill="url(#c)" d="M31.234 22.69a1.215 1.215 0 11-2.43 0 1.215 1.215 0 012.43 0zm-1.216-5.499a1.215 1.215 0 100 2.43 1.215 1.215 0 000-2.43zm2.18 2.142a1.215 1.215 0 100 2.43 1.215 1.215 0 000-2.43zm-4.36 0a1.215 1.215 0 100 2.43 1.215 1.215 0 000-2.43z"/><path fill="#0069E1" d="M24.901 29.22a3.34 3.34 0 100-6.679 3.34 3.34 0 000 6.68z"/><path fill="url(#d)" d="M24.901 28.447a2.566 2.566 0 100-5.133 2.566 2.566 0 000 5.133z"/><path fill="#64ACFF" d="M10.122 24.59a4.115 4.115 0 100-8.229 4.115 4.115 0 000 8.23z"/><path fill="url(#e)" d="M12.607 19.674h-1.702v-1.752a.26.26 0 00-.26-.26H9.609a.26.26 0 00-.26.26v1.752H7.637a.26.26 0 00-.26.26v1.036c0 .144.117.26.26.26H9.35v1.801c0 .144.116.26.26.26h1.036a.26.26 0 00.26-.26v-1.8h1.702a.26.26 0 00.26-.26v-1.037a.26.26 0 00-.26-.26z"/><path fill="#3794FF" d="M15.003 29.22a3.34 3.34 0 100-6.679 3.34 3.34 0 000 6.68z"/><path fill="url(#f)" d="M15.003 28.447a2.566 2.566 0 100-5.132 2.566 2.566 0 000 5.132z"/><path fill="url(#g)" d="M22.106 20.063h-4.21a.501.501 0 000 1.002h4.21a.501.501 0 100-1.003z"/><defs><linearGradient id="a" x1="20" x2="20" y1="11.402" y2="12.459" gradientUnits="userSpaceOnUse"><stop stop-color="#ECF7FF"/><stop offset="1" stop-color="#C2E0FF"/></linearGradient><linearGradient id="b" x1="20" x2="20" y1="12.855" y2="15.244" gradientUnits="userSpaceOnUse"><stop stop-color="#ECF7FF"/><stop offset="1" stop-color="#C2E0FF"/></linearGradient><linearGradient id="c" x1="30.018" x2="30.018" y1="17.89" y2="21.558" gradientUnits="userSpaceOnUse"><stop stop-color="#ECF7FF"/><stop offset="1" stop-color="#C2E0FF"/></linearGradient><linearGradient id="d" x1="24.901" x2="24.901" y1="23.849" y2="26.653" gradientUnits="userSpaceOnUse"><stop stop-color="#ECF7FF"/><stop offset="1" stop-color="#C2E0FF"/></linearGradient><linearGradient id="e" x1="10.122" x2="10.122" y1="18.248" y2="21.324" gradientUnits="userSpaceOnUse"><stop stop-color="#ECF7FF"/><stop offset="1" stop-color="#C2E0FF"/></linearGradient><linearGradient id="f" x1="15.003" x2="15.003" y1="23.849" y2="26.653" gradientUnits="userSpaceOnUse"><stop stop-color="#ECF7FF"/><stop offset="1" stop-color="#C2E0FF"/></linearGradient><linearGradient id="g" x1="20.001" x2="20.001" y1="20.167" y2="20.715" gradientUnits="userSpaceOnUse"><stop stop-color="#ECF7FF"/><stop offset="1" stop-color="#C2E0FF"/></linearGradient></defs></svg>