<svg xmlns="http://www.w3.org/2000/svg" width="40" height="40" fill="none"><g clip-path="url(#a)"><path fill="#FF7DA0" d="M19.063 13.438h16.875c1.035 0 1.874.839 1.874 1.874v9.376a1.875 1.875 0 01-1.874 1.875H19.061a1.875 1.875 0 01-1.875-1.875v-9.375c0-1.036.84-1.876 1.875-1.876z"/><path fill="#F85D86" d="M37.813 23.75v.938a1.877 1.877 0 01-1.876 1.875H22.813V13.438h3.125v5.925a4.39 4.39 0 004.387 4.387h7.488z"/><path fill="#4C4372" d="M17.188 16.875h20.625v2.5H17.186v-2.5z"/><path fill="#312B51" d="M22.813 16.875h3.125v2.5h-3.125v-2.5z"/><path fill="#F0F5FC" d="M7.813 4.688a3.125 3.125 0 00-3.125 3.125v26.25c.001.689.56 1.248 1.25 1.25h.937a1.563 1.563 0 013.125 0h2.188a1.563 1.563 0 013.124 0H17.5a1.563 1.563 0 013.125 0h.938a1.254 1.254 0 001.25-1.25V8.125l3.125-3.437H7.813z"/><path fill="#DEECFC" d="M5.938 35.313h.937a1.563 1.563 0 013.125 0h2.188a1.563 1.563 0 013.124 0H17.5a1.563 1.563 0 013.125 0h.938a1.254 1.254 0 001.25-1.25V11.706C20.777 22.438 9.264 30.075 4.688 32.727v1.337c.001.689.56 1.248 1.25 1.25z" opacity=".8"/><path fill="#C0D9FC" d="M9.798 29.424c-.4.05-.8-.096-1.073-.394l-1.387-1.505a.65.65 0 01-.06-.832.626.626 0 01.955-.043l1.002 1.087c.228.248.613.27.868.05l4.2-3.629a.625.625 0 01.921.116.649.649 0 01-.13.853l-4.633 4.001a1.25 1.25 0 01-.663.296z" opacity=".8"/><path fill="#64ACFF" d="M21.563 11H5.938a.313.313 0 010-.625h15.625a.313.313 0 010 .625z" opacity=".3"/><path fill="#C0D9FC" d="M25.938 4.688a3.125 3.125 0 013.125 3.125v5.625h-6.25V7.811a3.125 3.125 0 013.125-3.125z"/><path fill="#A8C4F4" d="M27.825 5.325c-1.225.487-1.887 1.55-1.887 4.987v3.126h-3.125V7.811a3.122 3.122 0 015.012-2.487z"/><path d="M13.438 15.75h-6.25a.313.313 0 010-.625h6.25a.313.313 0 010 .625zm-1.875 2.813H7.186a.313.313 0 010-.625h4.375a.313.313 0 010 .625zm1.25 2.812H7.186a.313.313 0 010-.625h5.625a.313.313 0 010 .625z" fill="#64ACFF" opacity=".8"/><path fill="#64ACFF" d="M9.14 29.192c-.4.05-.8-.097-1.073-.395L6.68 27.292a.65.65 0 01-.06-.832.626.626 0 01.955-.042l1.002 1.087c.228.248.613.27.868.049l4.2-3.628a.625.625 0 01.921.115.648.648 0 01-.13.854l-4.633 4a1.249 1.249 0 01-.663.297z"/></g><defs><clipPath id="a"><rect width="40" height="40" fill="#fff" rx="4"/></clipPath></defs></svg>