<svg xmlns="http://www.w3.org/2000/svg" width="314" height="435" fill="none"><path fill="#DAFF7C" d="M32.627 304.591c-2.527 19.814 2.107 37.867 13.034 51.036l5.91 6.099a52.224 52.224 0 005.462 4.2l.11.084.05.02c7.83 5.188 16.985 8.217 26.968 8.87 3.235.211 6.557.174 9.947-.118 19.017-1.639 37.917-11.118 53.204-26.698 12.235-12.469 20.974-27.647 25.314-43.664.02-.065.043-.127.062-.191 3.698-12.15 4.049-23.125 2.285-32.841-1.719-11.996-6.421-22.723-13.899-31.258a53.293 53.293 0 00-7.976-7.423c-4.362-4.081-8.718-7.255-12.43-9.455-3.118-1.849-5.482-1.089-7.337.218a58.925 58.925 0 00-9.813-1.48 66.182 66.182 0 00-9.948.117c-19.025 1.639-37.92 11.128-53.207 26.708-15.284 15.57-25.144 35.381-27.736 55.776zm29.571-53.689c14.647-14.922 32.742-24.002 50.959-25.575a63.07 63.07 0 019.516-.11c2.574.168 5.09.507 7.542 1-.596.529-1.119.888-1.582.842-2.108-.211-17.54-.716-17.54-.716L47.349 352.292c-9.916-12.532-14.085-29.441-11.717-47.967 2.487-19.526 11.919-38.5 26.566-53.423z"/><path fill="#3D452B" d="M32.627 304.591c-2.527 19.814 2.107 37.867 13.034 51.036l5.91 6.099a52.224 52.224 0 005.462 4.2l.11.084.05.02c7.83 5.188 16.985 8.217 26.968 8.87 3.235.211 6.557.174 9.947-.118 19.017-1.639 37.917-11.118 53.204-26.698 12.235-12.469 20.974-27.647 25.314-43.664.02-.065.043-.127.062-.191 3.698-12.15 4.049-23.125 2.285-32.841-1.719-11.996-6.421-22.723-13.899-31.258a53.293 53.293 0 00-7.976-7.423c-4.362-4.081-8.718-7.255-12.43-9.455-3.118-1.849-5.482-1.089-7.337.218a58.925 58.925 0 00-9.813-1.48 66.182 66.182 0 00-9.948.117c-19.025 1.639-37.92 11.128-53.207 26.708-15.284 15.57-25.144 35.381-27.736 55.776zm29.571-53.689c14.647-14.922 32.742-24.002 50.959-25.575a63.07 63.07 0 019.516-.11c2.574.168 5.09.507 7.542 1-.596.529-1.119.888-1.582.842-2.108-.211-17.54-.716-17.54-.716L47.349 352.292c-9.916-12.532-14.085-29.441-11.717-47.967 2.487-19.526 11.919-38.5 26.566-53.423z" opacity=".4"/><path fill="#DAFF7C" d="M37.651 349.73c9.546 10.894 22.637 17.155 37.56 18.131 3.234.211 6.557.174 9.946-.118 19.017-1.639 37.918-11.118 53.205-26.698 15.287-15.579 25.135-35.382 27.737-55.776 2.601-20.394-2.361-38.922-13.976-52.177-9.546-10.897-22.634-17.165-37.556-18.141a66.167 66.167 0 00-9.947.117c-19.026 1.639-37.92 11.128-53.207 26.708-15.284 15.57-25.144 35.381-27.737 55.776-2.6 20.384 2.36 38.922 13.975 52.178z"/><path fill="#DAFF7C" d="M104.618 215.068a66.052 66.052 0 019.948-.118c14.922.976 28.01 7.244 37.556 18.141a54.922 54.922 0 013.196 4.012c-9.534-10.8-22.567-17.013-37.417-17.985a66.052 66.052 0 00-9.948.118c-19.025 1.638-37.92 11.127-53.206 26.707-15.284 15.57-25.144 35.381-27.737 55.776-2.347 18.404 1.469 35.302 10.78 48.168l-.14-.157c-11.614-13.256-16.574-31.794-13.975-52.178 2.593-20.395 12.453-40.206 27.737-55.776 15.287-15.58 34.18-25.07 53.206-26.708z"/><path fill="#3D452B" d="M79.446 351.396c2.482.163 5.044.138 7.671-.09 30.546-2.659 58.703-31.59 62.878-64.625 3.815-30.19-13.71-53.351-40.078-55.091a50.378 50.378 0 00-7.684.092c-30.546 2.658-58.704 31.589-62.878 64.624-3.813 30.187 13.72 53.352 40.091 55.09z" opacity=".15"/><path stroke="#fff" stroke-miterlimit="10" stroke-width="1.664" d="M87.19 352.135c30.982-2.697 59.413-31.974 63.631-65.35l-.738-.093.738.093c3.863-30.575-13.917-54.248-40.849-56.025l-.055.83.055-.83a51.137 51.137 0 00-7.811.093l.064.737-.064-.737c-30.982 2.697-59.414 31.973-63.631 65.349l.825.104-.825-.104c-3.862 30.571 13.925 54.249 40.861 56.024 2.525.166 5.13.14 7.798-.091z" opacity=".5"/><path fill="#3D452B" d="M78.734 265.526l-2.654-1.677c1.398.36 2.616.676 3.843.985.677.169 1.234.393 1.678.674l2.654 1.676c-.444-.281-1.001-.505-1.678-.673-1.227-.309-2.445-.626-3.843-.985zm19.375-4.941l.102.067 2.654 1.676a3.718 3.718 0 01-.104-.068c1.134-3.967 3.023-7.702 3.959-11.682l-2.654-1.676c-.936 3.979-2.825 7.714-3.96 11.682l.003.001zm-.713 10.989l-2.654-1.677c-1.688 4.646-3.38 9.322-5.128 14.145l2.654 1.676c1.748-4.823 3.44-9.499 5.128-14.144zm-26.34 42.899c-4.132-1.141-8.09-2.239-12.175-3.373l2.654 1.676c4.084 1.135 8.043 2.233 12.174 3.374l-2.654-1.677zm18.366-21.086c3.009.209 5.685 1.145 8.32 2.181 1.086.426 2.151.897 3.127 1.513l-2.654-1.676c-.976-.616-2.04-1.087-3.128-1.513-2.634-1.037-5.31-1.973-8.32-2.182-1.918 5.295-3.787 10.435-5.692 15.683l2.654 1.677c1.905-5.248 3.774-10.388 5.693-15.683zm8.897-21.988c.902-.016 1.634.416 2.413.6 2.07.482 4.061 1.139 5.821 2.251l-2.654-1.677c-1.761-1.112-3.751-1.768-5.82-2.25-.78-.184-1.512-.616-2.414-.601a2.838 2.838 0 00-.923.175l2.654 1.677c.33-.119.635-.17.923-.175zm17.782-17.687l-2.655-1.676c-1.065 4.158-3.07 7.98-4.101 12.045l2.654 1.677c1.031-4.066 3.036-7.887 4.102-12.046zm-31.41 65.764l-2.654-1.676c-1.323-.836-2.943-.649-4.268-1.455-1.874 4.019-2.783 8.09-4.735 11.98-2.037-.534-3.995-1.037-6.072-1.577l2.654 1.677c2.077.54 4.035 1.043 6.072 1.576 1.952-3.889 2.86-7.961 4.734-11.98 1.326.807 2.946.62 4.269 1.455zm-.159 11.926c-2.133-.577-4.255-.901-6.344-1.747l2.654 1.677c2.089.846 4.21 1.17 6.345 1.747 1.476-4.035 2.905-7.938 4.288-11.711l-2.654-1.676c-1.383 3.773-2.812 7.676-4.288 11.71zm34.488-61.681a24.436 24.436 0 00-1.639-1.128l-2.654-1.677c.56.354 1.107.728 1.639 1.128 6.839 5.142 4.024 16.112-1.323 20.845-1.385 1.23-3 1.803-4.75 2.786l.23.145c1.945 1.239 3.369 2.783 4.284 4.791 1.22 2.667.902 5.752-.012 8.802-1.118 3.752-2.834 7.246-5.664 10.13-2.54 2.594-5.44 3.942-8.554 4.373a30.92 30.92 0 01-3.677.288 28.251 28.251 0 01-6.789-.696c-.148-.033-.3-.06-.47-.057-.23.003-.493.063-.82.241l2.654 1.676c.327-.178.59-.237.82-.241.17-.003.322.025.47.058a28.2 28.2 0 006.79.695 30.922 30.922 0 003.676-.287c3.114-.431 6.014-1.78 8.554-4.374 2.83-2.883 4.546-6.377 5.664-10.129.914-3.05 1.232-6.135.012-8.802-.922-2.024-2.36-3.578-4.327-4.82l-.185-.117c1.749-.983 3.364-1.556 4.748-2.786 5.347-4.732 8.162-15.703 1.323-20.844z" opacity=".4"/><path fill="#fff" d="M110.38 292.062c2.069 1.254 3.571 2.83 4.524 4.904 1.223 2.649.905 5.714-.011 8.744-1.121 3.727-2.841 7.198-5.678 10.063-2.547 2.577-5.454 3.917-8.576 4.345a31.48 31.48 0 01-3.685.284 28.49 28.49 0 01-6.807-.69 1.965 1.965 0 00-.472-.058c-.23.004-.493.064-.821.241-1.386 3.747-2.82 7.625-4.3 11.633-2.139-.573-4.266-.895-6.36-1.736 1.406-3.877 2.79-7.708 4.183-11.547-1.378-1.098-3.164-.808-4.603-1.675-1.879 3.992-2.79 8.036-4.746 11.901-2.042-.53-4.005-1.03-6.088-1.566 1.064-4.199 3.176-8.028 4.104-12.195a8020.03 8020.03 0 01-12.205-3.351c.986-3.039 2.883-5.483 4.058-8.242 1.89-.035 3.267.699 4.81.924.244.036.478.053.7.049 1.232-.021 2.11-.685 2.672-2.214 2.957-8.001 5.894-16.01 8.845-24.011.82-2.227 1.627-4.453 2.494-6.674 1.205-3.11.61-5.03-2.485-5.793-1.229-.307-2.45-.621-3.853-.979.791-2.737 1.6-5.315 2.938-7.772 4.352.833 8.188 2.452 12.529 3.125 1.452-3.917 2.849-7.687 4.292-11.588 2.226.068 4.04 1.029 6.293 1.386-.938 3.953-2.832 7.664-3.97 11.605 1.44.96 3.176.876 4.774 1.413 1.445-3.863 2.843-7.595 4.298-11.481 2.155.222 4.147 1.004 6.307 1.577-1.068 4.131-3.078 7.927-4.112 11.966 2.549 1.184 4.908 2.349 7.039 3.937 6.855 5.107 4.033 16.006-1.326 20.707-1.389 1.222-3.008 1.792-4.762 2.768zm-9.047 12.914c1.052-2.529.988-4.816-.418-6.776-1.463-2.042-3.577-3.081-5.78-3.936-2.64-1.03-5.323-1.96-8.34-2.167-1.923 5.26-3.797 10.366-5.707 15.58.705.247 1.202.452 1.722.588 3.154.845 6.298 1.735 9.67 1.676 1.059-.018 2.14-.13 3.252-.366 2.472-.524 4.486-1.909 5.601-4.599zm5.49-23.503c1.126-2.904.702-5.43-1.172-7.121-2.125-1.917-4.75-2.863-7.517-3.502-.781-.183-1.515-.612-2.419-.596a2.847 2.847 0 00-.926.174c-1.692 4.614-3.388 9.26-5.14 14.051 3.187.872 6.15 1.823 9.355 1.768a14.732 14.732 0 002.222-.206c2.442-.416 4.672-2.195 5.597-4.568z"/><g opacity=".7"><path fill="#385E8B" d="M196.999 40.733c-17.086 12.183-16.15 42.93 2.118 68.602 18.257 25.755 46.967 36.707 64.053 24.524 2.862-2.028 6.289-4.412 9.151-6.44 17.086-12.183 16.235-42.919-2.118-68.602-18.257-25.755-46.882-36.696-64.053-24.524-2.862 2.028-6.289 4.412-9.151 6.44z"/><path fill="#4E81BD" fill-rule="evenodd" d="M241.752 139.165c-15.417-2.083-31.615-13.069-43.212-29.386-8.909-12.59-13.996-26.646-14.374-39.808-.463-13.174 3.978-23.701 12.467-29.713l9.162-6.526c5.916-4.203 13.471-5.857 21.773-4.735 15.502 2.094 31.615 13.07 43.201 29.47 18.488 25.96 19.281 57.12 1.918 69.438l-9.162 6.525c-5.916 4.204-13.471 5.857-21.773 4.735zM227.396 30.268c-7.963-1.076-15.168.538-20.88 4.51l-9.077 6.537c-8.105 5.72-12.415 15.92-11.98 28.658.339 12.812 5.365 26.688 14.139 39 11.377 16.029 27.248 26.885 42.326 28.922 7.963 1.075 15.168-.539 20.88-4.511l9.162-6.526c16.797-11.963 15.805-42.286-2.244-67.669-11.377-16.028-27.247-26.884-42.326-28.921z" clip-rule="evenodd"/><path fill="#4E81BD" d="M263.169 133.866c17.171-12.171 16.224-42.834-2.033-68.59-18.268-25.67-46.979-36.623-64.138-24.536-17.086 12.183-16.15 42.93 2.118 68.601 18.257 25.756 46.967 36.708 64.053 24.525z"/><path fill="#4E81BD" fill-rule="evenodd" d="M241.753 139.164c-15.417-2.082-31.616-13.069-43.212-29.386-8.909-12.589-13.997-26.646-14.375-39.808-.463-13.174 3.978-23.7 12.468-29.713 5.915-4.204 13.471-5.857 21.857-4.724 15.417 2.083 31.531 13.058 43.128 29.374 18.488 25.96 19.281 57.12 1.907 69.522-5.916 4.204-13.471 5.857-21.773 4.735zm-23.434-102.36c-8.047-1.088-15.241.442-20.879 4.51-8.105 5.72-12.416 15.92-11.98 28.658.339 12.812 5.365 26.688 14.139 39 11.376 16.029 27.247 26.885 42.326 28.922 7.963 1.076 15.167-.539 20.879-4.511 16.798-11.963 15.805-42.287-2.243-67.67-11.366-16.112-27.163-26.872-42.242-28.91z" clip-rule="evenodd"/><path fill="#6E8DBD" d="M227.109 88.625c-15.241-9.132-29.75-20.494-39.654-35.288-5.907 14.986-1.968 36.91 11.669 56.004 18.257 25.756 46.967 36.708 64.053 24.525 8.201-5.793 12.223-15.773 12.243-27.415-17.027-2.3-33.944-9.243-48.311-17.826z"/><path fill="#4370A3" d="M203.216 106.449c15.446 21.666 39.826 30.826 54.424 20.463 5.542-3.995 8.869-10.101 10.118-17.437-1.394 5.85-4.379 10.708-8.949 13.886-13.754 9.873-36.876.97-51.673-19.747-14.713-20.705-15.421-45.47-1.593-55.247 4.496-3.274 10.096-4.501 16.049-3.87-7.336-1.25-14.218-.11-19.749 3.801-14.682 10.352-14.061 36.399 1.373 58.151z"/><path fill="#4E81BD" d="M259.089 125.723c.336-.357.76-.731 1.273-1.121.504-.536.934-1.168 1.534-1.777s1.138-1.399 1.698-2.358c.227-.401.55-.875.873-1.349.181-.493.423-1.006.725-1.541 1.072-2.184 1.692-4.86 2.251-7.717.206-1.525.412-3.05.448-4.598.048-1.632.096-3.264-.11-4.931-.146-3.384-.959-6.944-1.857-10.516-1.078-3.51-2.315-7.127-4.082-10.643-1.683-3.505-3.824-6.813-6.049-10.133-2.334-3.162-4.763-6.25-7.588-8.96-2.633-2.858-5.685-5.168-8.664-7.382-3.086-2.056-6.11-3.93-9.3-5.224-1.54-.726-3.116-1.197-4.595-1.742a42.332 42.332 0 00-4.505-1.126c-2.88-.39-5.614-.586-7.981-.302a43.65 43.65 0 00-1.74.11c-.616.089-1.074.286-1.605.387-1.063.201-1.955.425-2.786.83-.82.321-1.544.569-2.098.839a21.37 21.37 0 00-1.492.833c.377-.236.85-.546 1.419-.93.639-.258 1.374-.59 2.109-.922.831-.405 1.724-.63 2.797-.916.447-.112.989-.298 1.521-.398l1.762-.28c2.464-.357 5.209-.245 8.259.167 1.428.28 2.941.57 4.517 1.042 1.575.471 3.15.943 4.776 1.68 3.2 1.209 6.309 3.095 9.48 5.162 3.064 2.226 6.104 4.62 8.833 7.404 2.899 2.807 5.413 5.907 7.746 9.068 2.299 3.416 4.428 6.81 6.099 10.399 1.768 3.516 2.993 7.218 4.06 10.813.886 3.656 1.699 7.216 1.749 10.673.207 1.667.062 3.373.014 5.005-.048 1.633-.254 3.157-.544 4.671-.57 2.942-1.36 5.595-2.516 7.768a20.437 20.437 0 00-.822 1.614c-.238.485-.634.863-.872 1.348-.634.864-1.172 1.654-1.772 2.263-.6.609-1.115 1.229-1.607 1.68-.521.447-.973.817-1.358 1.11z"/></g></svg>