<svg xmlns="http://www.w3.org/2000/svg" width="1440" height="435" fill="none"><path fill="#3C4D65" fill-opacity=".8" d="M258.989 239.077L255.87 224l-2.591 15.077L238 243.895l15.279 2.607 3.49 15.19 2.22-15.19L273 241.664l-14.011-2.587zm894.001-120L1149.87 104l-2.59 15.077-15.28 4.818 15.28 2.607 3.49 15.19 2.22-15.19 14.01-4.838-14.01-2.587zM91.149 128.6l-2.4-11.6-1.993 11.6L75 132.307l11.756 2.006L89.44 146l1.709-11.687 10.78-3.723-10.78-1.99zm1271.001 85l-2.4-11.6-1.99 11.6-11.76 3.707 11.76 2.006 2.68 11.687 1.71-11.687 10.78-3.723-10.78-1.99z"/></svg>