<svg xmlns="http://www.w3.org/2000/svg" width="228" height="436" fill="none"><path fill="#64ACFF" d="M219.515 381.61c1.896 14.85-1.581 28.381-9.779 38.251l-4.434 4.571a39.253 39.253 0 01-4.098 3.148l-.082.062-.037.015c-5.875 3.889-12.744 6.159-20.234 6.648-2.427.159-4.92.131-7.463-.088-14.267-1.228-28.448-8.333-39.916-20.009-9.18-9.346-15.737-20.722-18.993-32.727-.015-.048-.032-.095-.046-.143-2.775-9.106-3.038-17.332-1.715-24.614 1.29-8.991 4.818-17.03 10.428-23.427a40.075 40.075 0 015.984-5.564c3.273-3.058 6.541-5.437 9.326-7.086 2.34-1.386 4.113-.816 5.504.163a44.222 44.222 0 017.363-1.109 49.645 49.645 0 017.464.088c14.274 1.228 28.45 8.34 39.919 20.017 11.467 11.669 18.864 26.518 20.809 41.804zm-22.186-40.239c-10.989-11.185-24.565-17.99-38.232-19.169a47.575 47.575 0 00-7.14-.083c-1.931.127-3.819.38-5.658.75.447.397.839.666 1.186.631 1.582-.158 13.16-.536 13.16-.536l47.824 94.397c7.44-9.392 10.568-22.066 8.791-35.951-1.865-14.634-8.942-28.855-19.931-40.039z"/><path fill="#0F3D71" d="M219.515 381.61c1.896 14.85-1.581 28.381-9.779 38.251l-4.434 4.571a39.253 39.253 0 01-4.098 3.148l-.082.062-.037.015c-5.875 3.889-12.744 6.159-20.234 6.648-2.427.159-4.92.131-7.463-.088-14.267-1.228-28.448-8.333-39.916-20.009-9.18-9.346-15.737-20.722-18.993-32.727-.015-.048-.032-.095-.046-.143-2.775-9.106-3.038-17.332-1.715-24.614 1.29-8.991 4.818-17.03 10.428-23.427a40.075 40.075 0 015.984-5.564c3.273-3.058 6.541-5.437 9.326-7.086 2.34-1.386 4.113-.816 5.504.163a44.222 44.222 0 017.363-1.109 49.645 49.645 0 017.464.088c14.274 1.228 28.45 8.34 39.919 20.017 11.467 11.669 18.864 26.518 20.809 41.804zm-22.186-40.239c-10.989-11.185-24.565-17.99-38.232-19.169a47.575 47.575 0 00-7.14-.083c-1.931.127-3.819.38-5.658.75.447.397.839.666 1.186.631 1.582-.158 13.16-.536 13.16-.536l47.824 94.397c7.44-9.392 10.568-22.066 8.791-35.951-1.865-14.634-8.942-28.855-19.931-40.039z" opacity=".4"/><path fill="#64ACFF" d="M215.746 415.441c-7.162 8.164-16.983 12.857-28.179 13.588-2.427.159-4.92.131-7.463-.088-14.268-1.228-28.448-8.333-39.917-20.009-11.47-11.677-18.858-26.519-20.81-41.804-1.952-15.285 1.771-29.172 10.485-39.107 7.162-8.167 16.982-12.864 28.177-13.596a49.63 49.63 0 017.463.088c14.274 1.228 28.45 8.34 39.919 20.017 11.467 11.67 18.865 26.518 20.81 41.804 1.95 15.278-1.771 29.171-10.485 39.107z"/><path fill="#64ACFF" d="M165.503 314.512a49.625 49.625 0 00-7.463-.086c-11.195.731-21.015 5.428-28.177 13.595a41.322 41.322 0 00-2.402 3.012c7.154-8.098 16.933-12.756 28.077-13.484a49.628 49.628 0 017.463.087c14.274 1.229 28.45 8.34 39.919 20.017 11.467 11.67 18.865 26.518 20.81 41.804 1.76 13.791-1.102 26.453-8.084 36.094.033-.037.068-.073.101-.111 8.714-9.935 12.435-23.828 10.485-39.106-1.945-15.286-9.343-30.134-20.81-41.804-11.469-11.677-25.645-18.789-39.919-20.018z"/><path fill="#0F3D71" d="M184.388 416.69a37.899 37.899 0 01-5.755-.067c-22.917-1.993-44.043-23.677-47.175-48.436-2.862-22.627 10.287-39.986 30.069-41.29a37.777 37.777 0 015.765.069c22.918 1.992 44.043 23.675 47.175 48.435 2.861 22.624-10.293 39.986-30.079 41.289z" opacity=".15"/><path stroke="#fff" stroke-miterlimit="10" stroke-width="1.604" d="M178.564 417.422c-23.338-2.029-44.728-24.046-47.901-49.134-2.909-22.999 10.485-40.852 30.811-42.191l.053.8-.053-.8a38.61 38.61 0 015.888.069l-.07.8.07-.8c23.337 2.03 44.727 24.045 47.901 49.134l-.744.094.744-.094c2.908 22.997-10.493 40.852-30.822 42.19l-.053-.8.053.8a38.593 38.593 0 01-5.877-.068z" opacity=".5"/><path fill="#0F3D71" d="M195.087 370.853l-1.057 1.535-16.661 13.101 1.057-1.535 16.661-13.101zm-16.696 13.092l-1.055 1.544-23.137-10.369 1.055-1.544 23.137 10.369zM155.246 373.4l-1.047 1.537 10.879-33.182 1.047-1.537-10.879 33.182zm28.937 30.294l-1.06 1.537-27.561-25.695 1.059-1.536 27.562 25.694z" opacity=".4"/><path fill="#fff" d="M178.494 383.773l-23.272-10.335 11.025-33.22 28.979 30.422-16.732 13.133zm1.136 4.04l-23.184-10.021 27.603 25.737 12.401-28.535-16.82 12.819z"/><path stroke="#64ACFF" stroke-linecap="round" stroke-linejoin="round" stroke-width="1.004" d="M166.247 340.218l28.979 30.422m-28.979-30.422l6.716 23.617m-6.716-23.617l-11.025 33.22m40.004-2.798l-22.263-6.805m22.263 6.805l-16.732 13.134m-5.531-19.939l5.531 19.939m-5.531-19.939l-17.741 9.603m23.272 10.336l-23.272-10.336m24.408 14.375l4.419 15.716m-4.419-15.716l16.82-12.819-12.401 28.535m-4.419-15.716l-23.184-10.021 27.603 25.737"/><g opacity=".8"><path fill="#FFA3BB" d="M166.6 108.59c-6.206 12.621-15.94 21.43-27.478 24.93l-5.844 1.291c-1.614.222-3.229.34-4.842.349l-.097.007-.037-.008c-6.619.012-13.18-1.759-19.304-5.247a46.34 46.34 0 01-5.804-3.927c-10.548-8.337-17.984-21.236-20.926-36.317-2.355-12.07-1.603-24.377 2.063-35.47.013-.046.024-.091.038-.137 2.542-8.572 6.596-15.156 11.404-20.18 5.669-6.38 12.598-10.86 20.309-12.974a37.6 37.6 0 017.572-1.268c4.15-.706 7.944-.881 10.981-.735 2.552.124 3.647 1.487 4.23 2.974a41.52 41.52 0 016.346 2.936 46.562 46.562 0 015.805 3.927c10.553 8.34 17.982 21.243 20.924 36.324 2.944 15.075 1.052 30.538-5.34 43.525zm3.45-43.01c-2.821-14.447-9.938-26.799-20.041-34.787a44.494 44.494 0 00-5.553-3.756 40.42 40.42 0 00-4.824-2.337c.145.543.313.956.603 1.108 1.322.694 10.594 6.382 10.594 6.382l-11.405 98.715c10.696-3.517 19.712-11.834 25.511-23.637 6.118-12.436 7.936-27.24 5.115-41.688z"/><path fill="#C2486A" d="M166.6 108.59c-6.206 12.621-15.94 21.43-27.478 24.93l-5.844 1.291c-1.614.222-3.229.34-4.842.349l-.097.007-.037-.008c-6.619.012-13.18-1.759-19.304-5.247a46.34 46.34 0 01-5.804-3.927c-10.548-8.337-17.984-21.236-20.926-36.317-2.355-12.07-1.603-24.377 2.063-35.47.013-.046.024-.091.038-.137 2.542-8.572 6.596-15.156 11.404-20.18 5.669-6.38 12.598-10.86 20.309-12.974a37.6 37.6 0 017.572-1.268c4.15-.706 7.944-.881 10.981-.735 2.552.124 3.647 1.487 4.23 2.974a41.52 41.52 0 016.346 2.936 46.562 46.562 0 015.805 3.927c10.553 8.34 17.982 21.243 20.924 36.324 2.944 15.075 1.052 30.538-5.34 43.525zm3.45-43.01c-2.821-14.447-9.938-26.799-20.041-34.787a44.494 44.494 0 00-5.553-3.756 40.42 40.42 0 00-4.824-2.337c.145.543.313.956.603 1.108 1.322.694 10.594 6.382 10.594 6.382l-11.405 98.715c10.696-3.517 19.712-11.834 25.511-23.637 6.118-12.436 7.936-27.24 5.115-41.688z" opacity=".4"/><path fill="#FFA3BB" d="M146.122 133.162c-9.842 2.698-19.972 1.3-29.127-3.914a46.332 46.332 0 01-5.804-3.926c-10.548-8.338-17.984-21.237-20.926-36.318-2.942-15.082-1.047-30.535 5.34-43.525 6.387-12.99 16.498-21.952 28.474-25.235 9.845-2.7 19.975-1.307 29.129 3.907a46.485 46.485 0 015.805 3.926c10.553 8.34 17.982 21.243 20.924 36.324 2.944 15.075 1.052 30.538-5.34 43.526-6.385 12.983-16.498 21.951-28.475 25.235z"/><path fill="#FFA3BB" d="M159.014 28.077a46.554 46.554 0 00-5.805-3.926c-9.155-5.213-19.285-6.607-29.13-3.907-1.167.32-2.316.695-3.446 1.122 9.803-2.652 19.884-1.25 28.998 3.94a46.546 46.546 0 015.804 3.926c10.553 8.34 17.982 21.243 20.924 36.325 2.945 15.074 1.052 30.537-5.34 43.524-5.762 11.719-14.562 20.166-25.027 24.115l.13-.034c11.977-3.284 22.09-12.251 28.475-25.235 6.392-12.988 8.285-28.451 5.34-43.526-2.942-15.081-10.37-27.983-20.923-36.324z"/><path fill="#C2486A" d="M120.894 117.933a35.516 35.516 0 01-4.476-3.028c-16.933-13.408-22.26-41.324-11.892-62.351 9.476-19.217 28.774-26.028 44.956-16.824a35.557 35.557 0 014.484 3.033c16.932 13.408 22.261 41.325 11.892 62.352-9.476 19.213-28.779 26.024-44.964 16.818z" opacity=".15"/><path stroke="#fff" stroke-miterlimit="10" stroke-width="1.822" d="M115.852 115.619c-17.309-13.706-22.679-42.103-12.144-63.468 9.665-19.597 29.505-26.722 46.225-17.213l-.301.528.301-.528a36.382 36.382 0 014.599 3.112l-.566.713.566-.713c17.308 13.705 22.679 42.102 12.143 63.467-9.664 19.595-29.509 26.719-46.232 17.207a36.435 36.435 0 01-4.591-3.105z" opacity=".5"/><path fill="#C2486A" d="M156.654 81.662l-3.036.944-2.67-7.885 3.036-.944 2.67 7.885zm-12.173-5.036l-3.036.944 9.503-2.849 3.036-.944-9.503 2.849zm-13.047-22.164l-3.036.944 20.578 16.93 3.037-.944-20.579-16.93zm9.57 23.572l-3.036.944 14.439 5.973-23.457 12.624 3.036-.944 23.457-12.624-14.439-5.973zm-1.908-1.957l-9.551-20.212-3.036.945 9.551 20.211-9.121 18.805 3.037-.944 9.12-18.805zm-10.655 25.08a1.322 1.322 0 01-.162-.114 1.695 1.695 0 01-.596-1.278l-.552-49.633c-.003-.499.215-.932.58-1.131a.939.939 0 01.17-.072l-3.036.944a.91.91 0 00-.17.072c-.365.2-.583.633-.58 1.132l.551 49.632c.005.495.233.981.597 1.278.052.043.106.081.162.114.268.16.567.203.835.119l3.037-.944a1.028 1.028 0 01-.836-.119z" opacity=".5"/><path fill="#FCFCFC" d="M159.686 84.287c-.031.28-.137.53-.305.722a.97.97 0 01-.238.19L129.536 101.1c-.305.167-.675.145-1-.05a1.403 1.403 0 01-.162-.114 1.7 1.7 0 01-.596-1.275l-.68-49.475c-.004-.497.212-.928.574-1.126.307-.168.677-.145 1.005.05.059.036.116.076.172.123l26.177 21.6c.226.186.399.446.499.738l4.076 11.963c.081.24.116.499.085.753zM130.046 94.8l9.026-18.721-9.557-20.172.531 38.893zm2.006 1.748l23.309-12.522-14.384-5.992-8.925 18.514zm19.861-25.105l-20.522-16.93 9.571 20.2 10.951-3.27zm-7.48 5.197l12.126 5.052-2.678-7.866-9.448 2.814z"/></g><g opacity=".3"><path fill="#DAFF7C" d="M70.14 269.782l-9.365 7.318c4.871-3.821 2.13-17.412-12.526-36.095a61.486 61.486 0 00-1.394-1.743 9.74 9.74 0 00-.595-.743l9.344-7.353c.205.259.389.483.594.743.491.597.956 1.178 1.395 1.743 14.678 18.718 17.418 32.309 12.547 36.13z"/><path fill="#DAFF7C" d="M68.427 266.797l-9.344 7.353c4.662-3.694 2.023-16.722-12.04-34.663l-.778-.966 9.344-7.353.779.966c14.083 17.976 16.722 31.004 12.04 34.663z"/><path fill="#DAFF7C" d="M44.704 241.493a1702.06 1702.06 0 019.347-7.355l.021.035c-2.8 2.18-6.532 5.118-9.368 7.32z"/><path fill="#DAFF7C" d="M44.697 241.484c-.496-.658-1.117-1.049-1.327-.921l9.367-7.32c.19-.163.81.228 1.306.886-.33.248-.742.595-1.071.843-.343.304-.812.637-1.155.941-.364.269-.847.658-1.211.927-.364.27-.847.659-1.247.949-.342.304-.825.694-1.19.963-.399.29-.847.658-1.21.927-.344.304-.813.637-1.156.942-.329.247-.777.615-1.106.863zm9.921-5.869l-9.346 7.354c.19-.162-.033-.843-.563-1.48l9.367-7.32c.53.637.731 1.283.542 1.446z"/><path fill="#DAFF7C" d="M54.577 235.634l-9.347 7.355-.68.461 9.348-7.355.68-.461z"/><path fill="#DAFF7C" d="M54.607 235.613l-9.346 7.355-.036.021 9.347-7.355.035-.021zm-1.852-2.368l-9.368 7.32-.645.44 9.368-7.321.645-.439zm-10.037 7.769a48.245 48.245 0 00-4.457-4.969c3.122-2.44 6.237-4.891 9.345-7.354a48.817 48.817 0 014.479 5.004c-2.835 2.202-6.566 5.139-9.367 7.319z"/><path fill="#DAFF7C" d="M38.944 235.39c2.857-2.247 5.725-4.5 8.605-6.761.014.024.04.04.078.049-.343.304-.778.616-1.107.864-.343.304-.812.637-1.155.941-.364.269-.847.658-1.211.927-.343.305-.847.659-1.19.963-.4.29-.883.68-1.247.949-.343.304-.847.658-1.19.962-.364.27-.812.638-1.176.907-.33.248-.742.594-1.071.842-.038-.009-.064-.025-.078-.049.243-.179.49-.377.742-.594zm20.694 10.464l-9.344 7.354c-1.424-3.213-3.022-6.081-5.736-9.759l9.345-7.353c2.713 3.677 4.332 6.58 5.735 9.758z"/><path fill="#DAFF7C" d="M38.201 235.992c-1.675-1.574-3.221-2.698-4.406-3.226a1723.83 1723.83 0 009.346-7.355c1.205.564 2.73 1.653 4.405 3.226-.224.184-.518.411-.742.595-.083.099-.259.205-.378.325-.245.149-.553.432-.776.616-.14.085-.294.227-.435.312-.259.205-.588.453-.812.637-.118.12-.294.226-.413.347-.259.205-.588.453-.812.637-.14.085-.294.226-.434.311-.224.184-.553.432-.777.616-.105.064-.259.205-.364.269a3.598 3.598 0 01-.518.411c-.035.021-.084.098-.119.12-.07.042-.21.127-.259.205l-.175.106c-.049.078-.189.163-.294.227-.035.021-.084.099-.119.12-.105.064-.189.163-.294.227l-.175.106c-.084.099-.189.163-.273.262l-.14.085c-.105.064-.224.184-.294.226l-.07.043c-.01.037-.037.07-.084.099l-.035.021-.105.064-.07.042c-.01.038-.026.064-.049.078l-.07.042a4.842 4.842 0 01-.105.064l-.035.022c-.01.037-.037.07-.084.098l-.035.022z"/><path fill="#DAFF7C" d="M33.927 232.585c3.067-2.374 6.127-4.76 9.18-7.157l.035-.022a1705.868 1705.868 0 01-9.347 7.355l-.057-.013a.784.784 0 00.19-.163zm25.887 14.272l-9.368 7.32c.175-.107.075-.43-.153-.963l9.347-7.355c.227.533.328.856.174.998zm-2.03-1.999l-9.366 7.319c-1.254-2.933-2.759-5.569-4.715-8.315l9.366-7.319c1.956 2.747 3.461 5.383 4.715 8.315z"/><path fill="#DAFF7C" d="M33.735 232.748a3.378 3.378 0 00-.91-.312l9.37-7.32c.285.05.588.154.908.312a1.392 1.392 0 00-.33.247c-.034.022-.104.064-.175.107-.083.099-.259.205-.342.304l-.176.106c-.118.121-.259.206-.343.305l-.21.127c-.084.099-.259.206-.343.304l-.21.128a296.064 296.064 0 01-3.816 3.037c-.259.205-.588.453-.847.658-.14.085-.294.227-.434.312-.224.184-.553.432-.812.637-.084.099-.26.205-.378.325a7.327 7.327 0 01-.764.56l.022.035-.035.021-.035.021-.035.022-.035.021-.035.021-.035.022zm26.081 14.104l-9.367 7.32c-.224.184-.852-.298-1.404-.97a5.789 5.789 0 01-.618-1.017l9.367-7.319c.2.406.348.652.596.981.574.707 1.18 1.154 1.426 1.005z"/><path fill="#DAFF7C" d="M32.833 232.426a1.283 1.283 0 01-.26-.034l9.368-7.32c.075.019.162.03.26.034-.329.248-.777.616-1.106.864-.33.248-.812.637-1.141.885-.4.29-.848.658-1.19.962-.4.291-.883.68-1.247.949a424.986 424.986 0 01-4.684 3.66zm.66 2.776l9.345-7.354.07-.042c1.218-.836 4.698 1.656 8.501 6.496l-9.345 7.354c-3.802-4.84-7.304-7.367-8.501-6.496l-.07.042z"/><path fill="#DAFF7C" d="M31.512 232.622c-.01.037-.026.063-.05.077l9.348-7.355.07-.042c.29-.208.645-.28 1.067-.217-.329.248-.742.595-1.106.864-.329.248-.777.616-1.141.885a19.23 19.23 0 00-1.19.962c-.364.269-.883.68-1.247.949-.364.269-.847.659-1.225.984-.364.269-.812.637-1.211.928-.33.247-.813.637-1.142.884-.307.283-.777.616-1.106.864-.408-.04-.764.032-1.067.217zm1.995 2.576l9.345-7.354c-1.071.842-.469 3.019 3.928 9.705l-9.366 7.318c-4.397-6.685-4.978-8.827-3.907-9.669z"/><path fill="#DAFF7C" d="M51.408 234.297l-9.347 7.355-4.665 3.217 9.368-7.32 4.644-3.252z"/><path fill="#DAFF7C" d="M51.41 234.301l-4.643 3.251c-4.481-6.825-5.006-8.953-3.858-9.746 1.219-.836 4.698 1.656 8.5 6.495zm1.664 2.239l-9.368 7.32-4.75 3.316 9.369-7.321 4.75-3.315z"/><path fill="#DAFF7C" d="M31.46 232.696l9.344-7.353c-1.59 1.252-.064 5.027 5.105 12.827l-9.365 7.318c-5.17-7.799-6.695-11.574-5.085-12.792zm12.466 22.988c-.87-2.063-2.516-4.853-4.97-8.497l9.367-7.318c2.431 3.608 4.078 6.398 4.969 8.496-.33.248-.742.595-1.071.843-.364.269-.812.637-1.176.906-.364.269-.847.658-1.19.962-.364.269-.847.658-1.246.949a438.205 438.205 0 01-4.683 3.659z"/><path fill="#DAFF7C" d="M44.07 255.919l-.15-.245 9.37-7.32.127.21c-.154.142-.364.269-.518.411-.07.042-.19.163-.26.205-.175.106-.399.29-.553.432-.07.042-.188.163-.258.205-.155.142-.4.291-.589.453-.07.043-.189.163-.259.206-.189.162-.434.311-.588.453-.105.064-.189.162-.294.226a3.972 3.972 0 01-.553.432 1.136 1.136 0 01-.294.227c-.084.099-.224.184-.308.283l-.07.042-.14.085c-.024.014-.04.04-.05.078l-.174.106-.07.043c-.035.021-.05.077-.12.12a2.645 2.645 0 00-.07.043l-.105.063c-.009.038-.025.064-.048.078l-.14.085c-.07.043-.154.142-.225.184-.14.085-.329.248-.483.389-.07.043-.175.107-.223.184-.176.107-.365.269-.54.376-.049.077-.154.141-.224.184a3.591 3.591 0 01-.518.41 1.02 1.02 0 01-.26.206 3.656 3.656 0 01-.482.389c-.105.064-.19.163-.26.205-.118.12-.328.248-.447.368-.105.064-.175.107-.224.184z"/><path fill="#DAFF7C" d="M47.964 252.841l5.46-4.276c.296.749.515 1.399.659 1.952-.33.247-.777.615-1.106.863-.154.142-.4.291-.589.453-.364.269-.812.637-1.176.907-.189.162-.413.346-.602.509a764.01 764.01 0 01-5.894 4.587 15.343 15.343 0 00-.637-1.916 296.483 296.483 0 013.885-3.079z"/><path fill="#DAFF7C" d="M44.764 258.156a2.234 2.234 0 01-.044-.309l9.368-7.32a.914.914 0 00.044.309c-.245.149-.54.376-.729.538-.259.206-.553.432-.777.616-.259.205-.588.453-.812.637-.259.205-.588.453-.812.637-.26.206-.588.453-.812.637-.26.206-.588.454-.813.638-.224.184-.553.431-.777.615-.224.184-.518.411-.742.595-.105.064-.224.184-.364.269-.105.064-.259.205-.364.269-.119.12-.294.227-.413.347-.105.064-.259.205-.4.29-.118.12-.293.227-.412.347-.105.064-.26.205-.4.29-.083.099-.258.206-.377.326-.105.064-.26.205-.364.269z"/><path fill="#DAFF7C" d="M44.764 258.148l9.367-7.32c.111.604.079 1.103-.097 1.498-.33.248-.764.56-1.071.842-.364.27-.812.638-1.177.907-.364.269-.847.658-1.21.927-.344.304-.848.659-1.226.984-.364.269-.847.658-1.211.928-.343.304-.847.658-1.19.962-.364.269-.812.637-1.176.906-.33.248-.777.616-1.107.864.177-.395.209-.894.098-1.498z"/><path fill="#DAFF7C" d="M44.226 260.204a1.37 1.37 0 00.433-.55l9.368-7.321c-.092.217-.237.4-.433.551-2.8 2.181-6.532 5.118-9.368 7.32zm7.32-9.815l-9.366 7.319c1.106-.864.383-3.159-4.09-9.893l9.365-7.319c4.474 6.734 5.197 9.03 4.091 9.893z"/><path fill="#DAFF7C" d="M51.559 250.382l-9.369 7.32-.035.021 9.368-7.32.036-.021zM35.063 230.66l-9.346 7.355a3.44 3.44 0 00-.596-.981l9.345-7.355c.368.448.546.82.596.981z"/><path fill="#DAFF7C" d="M25.11 237.029c-.517-.694-1.159-1.119-1.404-.971l9.367-7.319c.224-.184.888.276 1.384.935-2.78 2.215-6.567 5.139-9.346 7.355zm15.981 4.502l-9.344 7.353c-2.926-4.028-4.773-7.464-6.03-10.874l9.345-7.354c1.277 3.446 3.124 6.882 6.03 10.875z"/><path fill="#DAFF7C" d="M45.895 238.166l-9.369 7.32-4.798 3.393 9.347-7.355 4.82-3.358zm1.568 2.326l-9.368 7.32-4.68 3.273 9.348-7.355 4.7-3.238z"/><path fill="#DAFF7C" d="M51.504 250.403l-9.366 7.319c-1.303.935-4.79-1.649-8.735-6.642l9.345-7.354c3.944 4.993 7.432 7.577 8.756 6.677zm-11.268-8.452l-9.344 7.353c-3.273-4.441-5.475-8.381-7.114-12.423-.165-.428-.187-.702-.068-.822l9.365-7.318c-.14.085-.117.359.047.787 1.64 4.041 3.84 7.982 7.114 12.423z"/><path fill="#DAFF7C" d="M53.588 252.883l-9.366 7.319-.07.042c-1.772 1.268-6.502-2.336-11.41-8.52l9.345-7.353c4.929 6.218 9.66 9.822 11.431 8.555l.07-.043zm-38.452-21.55c-1.138-3.531-1.527-6.462-1.16-8.7l9.367-7.319c-.367 2.238 0 5.134 1.16 8.7-.33.248-.799.581-1.107.863-.364.269-.812.637-1.176.907-.364.269-.812.637-1.21.927-.344.304-.848.658-1.19.962-.4.291-.883.68-1.247.949-.343.304-.847.658-1.19.962-.364.27-.812.637-1.176.907-.33.247-.742.594-1.071.842zm25.097 10.61l-9.346 7.355-1.36.921 9.369-7.32 1.337-.956z"/><path fill="#DAFF7C" d="M42.09 244.372l-9.346 7.355-1.324.9 9.347-7.355 1.324-.9zm-26.326-11.217c-.224-.632-.434-1.24-.63-1.825l9.368-7.32c.195.585.405 1.193.629 1.825l-9.367 7.32zm13.762 17.061l9.368-7.32c-.19.163.032.844.507 1.468l-9.346 7.355c-.496-.659-.718-1.34-.529-1.503z"/><path fill="#DAFF7C" d="M40.764 245.274l-9.345 7.355c-.246.149-.832-.263-1.363-.9l9.346-7.355c.531.637 1.139 1.084 1.362.9z"/><path fill="#DAFF7C" fill-rule="evenodd" d="M48.326 239.864c5.353 8.023 6.886 11.889 5.198 13.058-1.771 1.268-6.502-2.336-11.43-8.554l-1.323.9c-.224.184-.83-.263-1.362-.9-.495-.659-.717-1.34-.507-1.467l1.337-.956c-3.272-4.441-5.474-8.381-7.113-12.423-.164-.428-.187-.702-.047-.787.224-.184.888.277 1.383.935.368.448.546.82.596.982 1.278 3.445 3.125 6.881 6.03 10.874l4.818-3.358c-5.254-7.939-6.723-11.7-5.036-12.869 1.723-1.19 6.425 2.288 11.232 8.387l.644-.44c.224-.183.81.228 1.306.887.552.672.774 1.353.529 1.502l-.68.46c2.713 3.677 4.332 6.58 5.735 9.758.228.533.328.856.174.997-.245.149-.852-.298-1.425-1.005a5.36 5.36 0 01-.596-.981c-1.254-2.933-2.76-5.569-4.715-8.315l-4.748 3.315zm3.153 10.558c1.183-.814.517-3.096-4.02-9.935l-4.679 3.273c3.923 4.957 7.41 7.541 8.699 6.662zm-4.705-12.877l4.642-3.251c-3.837-4.818-7.281-7.331-8.5-6.495-1.149.793-.623 2.921 3.858 9.746z" clip-rule="evenodd"/><path fill="#DAFF7C" d="M16.55 235.087c-.275-.665-.536-1.305-.783-1.923.329-.248.777-.616 1.106-.864.154-.141.399-.29.553-.432.364-.269.847-.658 1.211-.927.343-.304.826-.693 1.19-.963.189-.162.434-.311.623-.474.343-.304.847-.658 1.225-.984l3.459-2.676c.247.618.501 1.247.763 1.888l-4.662 3.695c-.365.269-.848.658-1.247.949a231.663 231.663 0 00-3.437 2.711z"/><path fill="#DAFF7C" d="M28 253.493c-5.466-6.946-9.22-13.206-11.47-18.411a1704.8 1704.8 0 009.343-7.353c2.272 5.24 6.005 11.464 11.471 18.411l1.317 1.695c14.15 17.455 25.272 22.502 29.744 18.971l-9.343 7.353c-4.494 3.496-15.615-1.551-29.766-19.006-.439-.565-.87-1.118-1.296-1.66z"/><path fill="#DAFF7C" fill-rule="evenodd" d="M59.64 232.129c34.559 44.108 14.14 64.567-22.23 19.688-.585-.7-1.151-1.396-1.699-2.086-34.537-44.073-14.103-64.589 22.252-19.653.571.676 1.13 1.36 1.678 2.051zM39.172 249.98c30.169 37.275 47.121 20.265 18.426-16.322a81.177 81.177 0 00-1.395-1.743c-.205-.259-.39-.483-.595-.743l.779.967c27.506 35.102 11.253 51.448-17.705 15.692l-1.317-1.695c-10.931-13.892-14.964-24.874-14.02-30.82-1.535 5.921 2.531 17.746 14.433 32.92.439.565.904 1.146 1.394 1.744zm-4.71-20.308c-.496-.659-1.16-1.119-1.383-.935-.14.085-.118.359.046.787 1.64 4.041 3.84 7.981 7.113 12.421l-1.337.956c-.21.128.011.809.507 1.467.53.637 1.138 1.084 1.362.9l1.324-.9c4.927 6.218 9.657 9.822 11.428 8.554 1.688-1.169.155-5.035-5.197-13.057l4.748-3.315c1.955 2.746 3.46 5.382 4.714 8.314.199.407.348.652.596.981.573.707 1.18 1.154 1.425 1.005.154-.141.054-.464-.174-.997-1.403-3.178-3.022-6.08-5.735-9.757l.68-.461c.245-.149.023-.83-.508-1.467-.517-.693-1.102-1.105-1.326-.921l-.645.439c-4.807-6.098-9.508-9.575-11.23-8.385-1.688 1.168-.22 4.929 5.034 12.868l-4.818 3.357c-2.904-3.992-4.75-7.428-6.029-10.873-.05-.162-.227-.533-.595-.981z" clip-rule="evenodd"/><path fill="#DAFF7C" d="M57.601 233.654c28.696 36.588 11.744 53.598-18.425 16.322a81.488 81.488 0 01-1.395-1.743c-11.901-15.174-15.967-27-14.433-32.921-.944 5.946 3.09 16.928 14.02 30.821l1.318 1.694c28.958 35.757 45.211 19.411 17.705-15.692l-.779-.966c.205.259.39.483.595.742.49.597.955 1.178 1.394 1.743z"/><path fill="#000" d="M57.594 233.655c28.696 36.587 11.744 53.597-18.425 16.321a84.064 84.064 0 01-1.395-1.743c-11.901-15.175-15.968-27-14.433-32.921-.944 5.946 3.09 16.928 14.021 30.82l1.317 1.695c28.958 35.757 45.21 19.411 17.704-15.692l-.779-.966c.206.259.39.483.595.742a86.5 86.5 0 011.395 1.744z" opacity=".1"/><path fill="#DAFF7C" d="M74.725 275.675l-9.343 7.353c-5.6 4.36-19.581-1.924-37.32-23.867-.585-.7-1.152-1.396-1.7-2.086C8.684 234.52 5.4 218.141 11.273 213.52l9.365-7.318c-5.893 4.586-2.61 20.965 15.07 43.52.547.691 1.113 1.386 1.698 2.086 17.74 21.943 31.742 28.262 37.32 23.867z"/><path fill="#000" d="M74.725 275.675l-9.343 7.353c-5.6 4.36-19.581-1.924-37.32-23.867-.585-.7-1.152-1.396-1.7-2.086C8.684 234.52 5.4 218.141 11.273 213.52l9.365-7.318c-5.893 4.586-2.61 20.965 15.07 43.52.547.691 1.113 1.386 1.698 2.086 17.74 21.943 31.742 28.262 37.32 23.867z" opacity=".1"/></g></svg>