<svg xmlns="http://www.w3.org/2000/svg" width="81" height="80" fill="none"><path fill="#3F608D" d="M39.167 24.941a.509.509 0 01-.507-.467c-.45-4.714-1.99-9.194-4.332-12.614-2.075-3.027-4.543-4.834-6.607-4.834h-.005c-7.519.011-9.092 17.271-9.109 17.448a.512.512 0 11-1.02-.091C17.649 23.636 19.257 6.01 27.71 6h.011c2.44 0 5.153 1.92 7.456 5.284 2.44 3.557 4.036 8.208 4.503 13.093a.517.517 0 01-.462.564h-.05z"/><path fill="#fff" d="M7.852 60.463l9.895 5.01 5.997-18.4-9.878-24.67-2.805.69-4.246 35.426a1.926 1.926 0 001.037 1.944z"/><path fill="#3593FF" d="M23.744 47.073l-9.878-24.67-1.653.405a53.35 53.35 0 00.029 7.98c.66 8.396 2.861 10.733 1.795 16.593-.89 4.874-2.821 5.535-2.65 8.812.182 3.569 2.673 6.555 5.631 8.91l.73.37 5.996-18.4z" opacity=".3" style="mix-blend-mode:multiply"/><path fill="#fff" d="M13.865 22.403h36.897l12.21 39.422-45.225 3.648-3.882-43.07z"/><path fill="#3F608D" d="M25.294 25.785a.516.516 0 01-.502-.398c-.102-.445-2.525-11.007.89-16.194.98-1.482 2.348-2.389 4.07-2.697C38.586 4.94 44.03 23.921 44.257 24.731a.52.52 0 01-.359.633.518.518 0 01-.633-.36c-.051-.188-5.41-18.895-13.338-17.493-1.448.257-2.56.992-3.386 2.246-3.18 4.822-.775 15.293-.746 15.396a.521.521 0 01-.382.621.67.67 0 01-.12.011z"/><path fill="#fff" d="M50.762 22.403H32.46c-.906.918-1.545 1.978-1.607 3.163-.285 5.58 12.534 7.41 13.771 15.054.895 5.518-4.594 11.88-9.496 14.712-5.159 2.987-8.653 1.477-12.147 4.794-1.533 1.453-2.462 3.277-3.021 5.164l43.013-3.466-12.21-39.421z" opacity=".3" style="mix-blend-mode:multiply"/><path fill="#3F608D" d="M26.73 25.865c0 .792-.638 1.43-1.43 1.43a1.433 1.433 0 110-2.866c.792 0 1.43.644 1.43 1.436zm18.71-.136a1.433 1.433 0 11-2.867 0c0-.793.638-1.431 1.43-1.431.792 0 1.436.638 1.436 1.43zm11.356 19.143a.346.346 0 01-.345-.318c-.306-3.203-1.352-6.248-2.944-8.572-1.41-2.057-3.087-3.285-4.489-3.285h-.004c-5.109.008-6.178 11.737-6.19 11.857a.348.348 0 11-.693-.062c.043-.507 1.135-12.484 6.88-12.492h.007c1.658 0 3.502 1.305 5.067 3.59 1.657 2.418 2.742 5.579 3.06 8.898a.352.352 0 01-.314.384h-.035z"/><path fill="#FF7DA0" d="M35.515 69.01l6.725 3.405 4.075-12.504-6.713-16.764-1.906.469-2.886 24.073a1.31 1.31 0 00.705 1.321z"/><path fill="#BC8391" d="M46.315 59.911l-6.713-16.764-1.123.275a36.266 36.266 0 00.02 5.423c.449 5.706 1.944 7.294 1.22 11.276-.605 3.311-1.918 3.76-1.802 5.988.124 2.425 1.817 4.455 3.827 6.054l.496.252 4.075-12.504z" opacity=".3" style="mix-blend-mode:multiply"/><path fill="#FF7DA0" d="M39.602 43.147h25.073l8.297 26.79-30.733 2.478-2.637-29.268z"/><path fill="#3F608D" d="M47.368 45.445a.35.35 0 01-.341-.27c-.07-.303-1.716-7.48.604-11.005.666-1.008 1.596-1.623 2.766-1.833C56.4 31.28 60.1 44.18 60.255 44.73a.354.354 0 01-.244.43.352.352 0 01-.43-.244c-.035-.128-3.676-12.84-9.064-11.888-.984.174-1.74.674-2.301 1.526-2.161 3.277-.527 10.393-.507 10.462a.354.354 0 01-.26.423.452.452 0 01-.081.007z"/><path fill="#FF7DA0" d="M64.674 43.147H52.237c-.616.623-1.05 1.344-1.093 2.15-.193 3.791 8.518 5.035 9.359 10.23.608 3.749-3.122 8.072-6.453 9.997-3.506 2.03-5.88 1.003-8.255 3.257-1.042.988-1.673 2.227-2.053 3.51l29.23-2.355-8.297-26.79z" opacity=".3" style="mix-blend-mode:multiply"/><path fill="#3F608D" d="M48.344 45.5a.974.974 0 11-1.95-.003.974.974 0 011.95.003zm12.714-.094a.974.974 0 11-1.95.005.974.974 0 011.95-.005z"/></svg>