<svg width="51" height="51" fill="none" xmlns="http://www.w3.org/2000/svg"><g clip-path="url(#clip0_25426_65348)"><mask id="a" style="mask-type:luminance" maskUnits="userSpaceOnUse" x="0" y="0" width="51" height="51"><path d="M50.5.528H.5v50h50v-50z" fill="#fff"/></mask><g mask="url(#a)"><path d="M42.543 43.06l-8.442-2.514-6.366 3.806-4.442-.002-6.37-3.803-8.438 2.513-2.567-8.665 2.567-9.617-2.567-8.13L8.485 6.57l13.185 7.878h7.688L42.543 6.57l2.567 10.078-2.567 8.13 2.567 9.617-2.567 8.665z" fill="#FF5C16"/><path d="M8.488 6.57l13.186 7.883-.525 5.41L8.49 6.57zM16.926 34.398l5.801 4.42-5.801 1.728v-6.148zM22.264 27.092l-1.115-7.225-7.138 4.913-.003-.002v.004l.022 5.057 2.894-2.747h5.34zM42.545 6.57l-13.186 7.883.523 5.41L42.545 6.57zM34.106 34.398l-5.801 4.42 5.801 1.728v-6.148zM37.02 24.782v-.004l-.002.002-7.137-4.913-1.115 7.225h5.337L37 29.84l.02-5.057z" fill="#FF5C16"/><path d="M16.923 40.546L8.485 43.06l-2.567-8.662h11.005v6.148zM22.26 27.09l1.611 10.446-2.234-5.808-7.614-1.889 2.897-2.748H22.259zM34.105 40.546l8.439 2.514 2.567-8.662H34.105v6.148zM28.768 27.09l-1.612 10.446 2.234-5.808 7.614-1.889-2.898-2.748h-5.338z" fill="#E34807"/><path d="M5.918 34.395l2.567-9.617h5.52l.02 5.06 7.614 1.888 2.234 5.808-1.148 1.279-5.802-4.42H5.918v.002zM45.111 34.395l-2.567-9.617h-5.52l-.02 5.06-7.614 1.888-2.234 5.808 1.148 1.279 5.802-4.42h11.005v.002zM29.358 14.448H21.672l-.523 5.41 2.726 17.67h3.282l2.727-17.67-.524-5.41z" fill="#FF8D5D"/><path d="M8.485 6.57L5.918 16.648l2.567 8.13h5.52l7.14-4.914L8.486 6.57zM20.667 29.188h-2.5l-1.362 1.335 4.837 1.2-.975-2.537v.002zM42.544 6.57l2.567 10.078-2.567 8.13h-5.52l-7.141-4.914L42.543 6.57zM30.368 29.188h2.504l1.361 1.337-4.842 1.201.977-2.54v.002zM27.733 40.905l.57-2.089-1.148-1.279h-3.284l-1.148 1.28.57 2.088" fill="#661800"/><path d="M27.733 40.905v3.45h-4.44v-3.45h4.44z" fill="#C0C4CD"/><path d="M16.926 40.543l6.372 3.81v-3.45l-.57-2.088-5.802 1.728zM34.106 40.543l-6.372 3.81v-3.45l.57-2.088 5.802 1.728z" fill="#E7EBF6"/></g></g><defs><clipPath id="clip0_25426_65348"><path fill="#fff" transform="translate(.5 .528)" d="M0 0h50v50H0z"/></clipPath></defs></svg>