<svg xmlns="http://www.w3.org/2000/svg" width="40" height="40" fill="none"><path fill="#27538D" d="M24.069 32.63c6.822-3.23 9.684-11.51 6.48-18.39-.208-.449-6.067 2.18-5.802 2.748 1.72 3.694.132 7.99-3.53 9.725-2.88 1.364-6.141.767-8.262-1.387-.251-.262-.408-.47-.408-.47-.183-.273-.192-.466-.077-.623l.348-.477c.174-.239-.016-.584-.318-.576l-6.832.195a.346.346 0 00-.321.44l1.837 6.652c.08.294.464.376.638.137l.348-.477a.354.354 0 01.5-.066s.293.265.71.606l.003-.003C13.33 34 19.101 34.983 24.069 32.63zM10.76 20.246c-1.088-3.07-.055-6.613 2.73-8.557a7.276 7.276 0 018.317-.016v.001c.362.256.605.481.605.481.225.24.265.429.178.602l-.264.528c-.133.265.111.574.407.515l6.706-1.334a.347.347 0 00.245-.488l-2.906-6.253c-.128-.276-.519-.292-.652-.027l-.264.528a.355.355 0 01-.482.148s-.333-.212-.801-.478l-.002.002c-4.44-2.63-10.173-2.6-14.685.55-4.86 3.394-6.858 9.4-5.423 14.85"/><path fill="#F85D86" d="M34.171 27.602l-16.003 3.507a1.872 1.872 0 01-2.226-1.443l-2.164-10.04a1.888 1.888 0 011.432-2.245l16.003-3.508a1.872 1.872 0 012.226 1.444l2.164 10.04a1.888 1.888 0 01-1.432 2.245z"/><path fill="#FF7DA0" d="M31.212 13.873l-8.001 1.754 2.958 13.728 8.002-1.753a1.888 1.888 0 001.431-2.245l-2.163-10.04a1.872 1.872 0 00-2.227-1.444z"/><path fill="#ECF6FD" d="M14.059 20.922l19.66-4.309.677 3.138-19.661 4.31-.676-3.139z"/><path fill="#EAF6FF" d="M21.13 27.275l-3.112.682a.708.708 0 00.298 1.383l3.111-.682a.708.708 0 00-.298-1.383z"/><path fill="#D6E8FE" d="M23.889 18.768l9.83-2.155.676 3.138-9.83 2.155-.676-3.138z"/><ellipse cx="14.192" cy="16.484" fill="#F8F7F8" rx="6.123" ry="6.309"/><path fill="#D0D0D0" fill-rule="evenodd" d="M14.192 22.793c3.382 0 6.123-2.825 6.123-6.309s-2.741-6.309-6.123-6.309v12.618z" clip-rule="evenodd"/><path fill="#DEDEDE" d="M14.193 12.034c-2.383 0-4.322 1.998-4.322 4.452 0 2.455 1.939 4.453 4.322 4.453 2.382 0 4.321-1.998 4.321-4.453 0-2.454-1.939-4.452-4.321-4.452zm0 7.919c-1.856 0-3.365-1.555-3.365-3.466 0-1.912 1.51-3.467 3.365-3.467 1.855 0 3.364 1.555 3.364 3.466 0 1.912-1.51 3.467-3.364 3.467z"/><path fill="#B6B4B5" d="M18.513 16.486c0 2.455-1.939 4.453-4.322 4.453v-.986c1.856 0 3.365-1.555 3.365-3.466 0-1.912-1.51-3.467-3.365-3.467v-.986c2.383 0 4.322 1.998 4.322 4.452z"/></svg>