<svg xmlns="http://www.w3.org/2000/svg" width="40" height="40" fill="none"><g clip-path="url(#a)"><path fill="#FF7D43" d="M26.925 18.017a4.643 4.643 0 01-4.637-4.637 4.643 4.643 0 014.637-4.638 4.643 4.643 0 014.638 4.638 4.643 4.643 0 01-4.638 4.637z"/><path fill="#FF9D21" d="M11.648 18.017a4.42 4.42 0 01-4.414-4.414 4.42 4.42 0 014.414-4.415 4.42 4.42 0 014.415 4.415 4.42 4.42 0 01-4.415 4.414z"/><path fill="#FF7DA0" d="M33.186 21.61H6.814A2.817 2.817 0 004 24.426v8.757a2.817 2.817 0 002.814 2.814h26.372A2.817 2.817 0 0036 33.182v-8.757a2.817 2.817 0 00-2.814-2.814z"/><path fill="#F85D86" d="M33.186 21.61H20v14.386h13.186A2.817 2.817 0 0036 33.182v-8.757a2.817 2.817 0 00-2.814-2.814z"/><path fill="#FFDE46" fill-rule="evenodd" d="M11.648 10.68a2.926 2.926 0 00-2.922 2.923 2.926 2.926 0 002.922 2.923 2.926 2.926 0 002.923-2.923 2.926 2.926 0 00-2.923-2.923z" clip-rule="evenodd"/><path fill="#FFCD00" fill-rule="evenodd" d="M26.925 10.31a3.074 3.074 0 00-3.07 3.07 3.074 3.074 0 003.07 3.07 3.074 3.074 0 003.07-3.07 3.074 3.074 0 00-3.07-3.07z" clip-rule="evenodd"/><path fill="#FFD321" d="M20 18.675c-4.045 0-7.335-3.29-7.335-7.335S15.955 4.004 20 4.004s7.336 3.29 7.336 7.336c0 4.044-3.29 7.335-7.336 7.335z"/><path fill="#FF9D21" d="M20 4.004v14.671c4.045 0 7.336-3.29 7.336-7.335S24.045 4.004 20 4.004z"/><path fill="#FFF36C" d="M20 16.8a5.46 5.46 0 100-10.92 5.46 5.46 0 000 10.92z"/><path fill="#FFDE46" fill-rule="evenodd" d="M20 5.88V16.8c3.01 0 5.46-2.45 5.46-5.46S23.01 5.88 20 5.88z" clip-rule="evenodd"/><path fill="#ECF6FD" d="M21.008 25.672a1.105 1.105 0 00-.995-.602h-.001a1.105 1.105 0 00-.993.6l-2.754 5.53a.938.938 0 101.679.836l.427-.857h3.262l.422.854a.938.938 0 101.682-.83l-2.73-5.531zm-1.703 3.63L20 27.89l.707 1.414h-1.402z"/><path fill="#D6E8FE" d="M28.68 25.236a.938.938 0 00-1.297.274l-.986 1.515-1-1.53a.938.938 0 10-1.57 1.026l1.632 2.5-.006 2.575a.938.938 0 00.936.94h.002a.938.938 0 00.938-.935l.006-2.579 1.62-2.488a.938.938 0 00-.274-1.298z"/><path fill="#ECF6FD" d="M13.383 25.07H11.83a.947.947 0 00-.679.291.95.95 0 00-.259.647v5.573a.938.938 0 101.876 0v-1.487l.614-.002c1.401 0 2.541-1.127 2.541-2.51 0-1.385-1.14-2.512-2.541-2.512zm0 3.146c-.149 0-.374 0-.608.002a147.91 147.91 0 01-.003-1.272h.61c.362 0 .666.291.666.635 0 .344-.304.635-.665.635z"/><path fill="#D6E8FE" d="M23.737 31.203l-2.73-5.531a1.104 1.104 0 00-.995-.602H20v2.819l.707 1.414H20v1.876h1.633l.422.854a.938.938 0 101.682-.83z"/><path fill="#FFDF40" fill-rule="evenodd" d="M19.969 15.463v-2.19a9.032 9.032 0 01-.484-.112l-.05-.013a1.81 1.81 0 01-.124-.037l-.073-.024.375-1.542c.122.01.24.029.356.054v-.765l-.036-.01-.13-.033.166-.678v-2.92a1.054 1.054 0 00-.063-.005l-.284 1.146a6.991 6.991 0 01-.757-.174c-.214-.058-.43-.117-.656-.158-.107.242-.154.497-.197.769l.148.035.287.068c.348.082.444.274.36.582-.049.184-.094.37-.14.555l-.025.105-.213.865-.371 1.51c-.045.18-.155.237-.334.21a1.758 1.758 0 01-.198-.044 1.156 1.156 0 00-.34-.055c-.035.114-.085.222-.135.332-.07.152-.141.306-.176.48l1.38.356a3.486 3.486 0 01-.13.633 4.09 4.09 0 00-.124.574l.687.166c.08-.201.128-.409.176-.618a4.83 4.83 0 01.152-.558c.078.04.16.057.241.073a.76.76 0 01.287.101l-.274 1.143c.164.06.326.095.488.13.07.016.14.031.21.049z" clip-rule="evenodd"/><path fill="#FFBE40" d="M22.178 11.582c.176-.094.343-.148.475-.267.508-.46.644-1.54-.182-2.06a5.4 5.4 0 00-.827-.405c.049-.4.207-.774.259-1.184-.244-.061-.473-.142-.711-.168l-.287 1.136c-.182-.056-.37-.051-.542-.149.062-.39.21-.757.25-1.149-.23-.036-.426-.121-.644-.144v2.92l.004-.016.17-.696c.14-.046.253.023.37.048.31.069.61.168.872.362a.64.64 0 01-.297 1.157c-.38.054-.74-.035-1.12-.133v.765c.2.044.394.108.586.176.254.09.5.196.69.402a.656.656 0 01.153.676c-.079.265-.276.4-.537.448a2.368 2.368 0 01-.891-.028v2.19l.02.005.285-1.152a.184.184 0 01.139-.015c.38.082.763.101 1.147.058a1.35 1.35 0 00.865-.418c.263-.28.395-.623.459-.992.052-.3.038-.605-.136-.87a1.473 1.473 0 00-.57-.497z"/></g><defs><clipPath id="a"><path fill="#fff" d="M4 4h32v32H4z"/></clipPath></defs></svg>