<svg xmlns="http://www.w3.org/2000/svg" width="40" height="40" fill="none"><path fill="#3593FF" d="M30.452 11.64H2V7.903C2 7.404 2.413 7 2.923 7h26.606c.51 0 .923.404.923.903v3.737z"/><path fill="#E2EEFC" d="M29.529 30.2H2.923A.926.926 0 012 29.27V11.64h28.452v17.63c0 .514-.414.93-.923.93z"/><path fill="#0C68D2" d="M4.903 10.48a1.16 1.16 0 10.002-2.321 1.16 1.16 0 00-.002 2.321zm3.485 0a1.16 1.16 0 10.001-2.321 1.16 1.16 0 00-.001 2.321zm3.484 0a1.16 1.16 0 10.002-2.321 1.16 1.16 0 00-.002 2.321z"/><path fill="#FF7DA0" d="M26.45 14.54a2.51 2.51 0 011.507 4.515h5.524v5.517a2.51 2.51 0 014.52 1.505 2.51 2.51 0 01-4.52 1.505V33.1h-5.524a2.51 2.51 0 00-1.507-4.515 2.51 2.51 0 00-1.506 4.515H19.42v-5.518a2.51 2.51 0 004.52-1.505 2.51 2.51 0 00-4.52-1.505v-5.517h5.524a2.51 2.51 0 011.506-4.515z"/></svg>