<svg xmlns="http://www.w3.org/2000/svg" width="40" height="40" fill="none"><path fill="#FF7DA0" d="M35.092 11.77H11.007a.904.904 0 00-.91.898v14.677c0 .496.408.899.91.899h24.085c.502 0 .91-.403.91-.899V12.668a.904.904 0 00-.91-.899z"/><path fill="url(#a)" d="M36.001 13.866H10.098v4.936H36v-4.936z"/><path fill="#91C5FF" d="M23.13 36H4.488C3.667 36 3 35.352 3 34.555V7.776c0-.797.667-1.445 1.487-1.445h3.849v3.368h10.95V6.33h3.848c.82 0 1.487.648 1.487 1.445v26.779c0 .797-.67 1.445-1.49 1.445zM4.488 7.399a.385.385 0 00-.388.377v26.779c0 .206.175.377.388.377h18.647c.213 0 .389-.17.389-.377V7.776a.385.385 0 00-.389-.377h-2.75v3.368H7.237V7.399h-2.75z"/><path fill="#91C5FF" d="M4.487 7.399a.385.385 0 00-.388.377v26.779c0 .206.175.377.388.377h18.647c.213 0 .389-.17.389-.377V7.776a.385.385 0 00-.389-.377h-2.75v3.368H7.237V7.399h-2.75z"/><path fill="#1B2B40" d="M10.082 33.206h-4.21v-2.727h4.21v2.727zm-3.116-1.068H8.98v-.591H6.966v.59zm8.994 1.068h-4.304v-2.727h4.303v2.727zm-3.205-1.068h2.106v-.591h-2.106v.59zm8.994 1.068h-4.212v-2.727h4.212v2.727zm-3.117-1.068h2.014v-.591h-2.014v.59zm-8.55-3.011h-4.21V26.4h4.21v2.727zm-3.116-1.068H8.98v-.591H6.966v.59zm8.994 1.068h-4.304V26.4h4.303v2.727zm-3.205-1.068h2.106v-.591h-2.106v.59zm8.994 1.068h-4.212V26.4h4.212v2.727zm-3.117-1.068h2.014v-.591h-2.014v.59zm-8.55-3.017h-4.21v-2.727h4.21v2.727zm-3.116-1.068H8.98v-.591H6.966v.59zm8.994 1.068h-4.304v-2.727h4.303v2.727zm-3.205-1.068h2.106v-.591h-2.106v.59zm8.994 1.068h-4.212v-2.727h4.212v2.727zm-3.117-1.068h2.014v-.591h-2.014v.59z"/><path fill="#D6E8FE" d="M20.023 20.961H9.867c-1.885 0-2.828 0-3.414-.585-.586-.586-.586-1.529-.586-3.415v-.355c0-1.886 0-2.828.586-3.414.586-.586 1.529-.586 3.414-.586h7.88c1.885 0 2.828 0 3.413.586.586.586.586 1.528.586 3.414v2.632c0 .952-.771 1.723-1.723 1.723zM6.966 16.784c0 1.035 0 1.552.187 1.954a2 2 0 00.969.968c.401.187.919.187 1.954.187h7.462c1.035 0 1.552 0 1.954-.187a2 2 0 00.969-.968c.187-.402.187-.92.187-1.954 0-1.035 0-1.553-.187-1.954a2 2 0 00-.97-.97c-.4-.186-.918-.186-1.953-.186h-7.463c-1.034 0-1.552 0-1.953.187a2 2 0 00-.97.969c-.186.401-.186.919-.186 1.954z"/><path fill="#D6E8FE" d="M6.966 16.784c0 1.035 0 1.552.187 1.954a2 2 0 00.969.968c.401.187.919.187 1.954.187h7.462c1.035 0 1.552 0 1.954-.187a2 2 0 00.969-.968c.187-.402.187-.92.187-1.954 0-1.035 0-1.553-.187-1.954a2 2 0 00-.97-.97c-.4-.186-.918-.186-1.953-.186h-7.463c-1.034 0-1.552 0-1.953.187a2 2 0 00-.97.969c-.186.401-.186.919-.186 1.954z"/><path fill="#F0F5FC" d="M20.38 10.764H7.231V3L9.79 4.36l2.006-1.068 2.007 1.068 2.007-1.068 2.007 1.068L20.372 3v7.764h.007zM8.334 9.696h10.95V4.801l-1.458.776L15.82 4.51l-2.007 1.068-2.007-1.068L9.8 5.577l-1.465-.776v4.895z"/><path fill="#F0F5FC" d="M8.335 9.696h10.95V4.801l-1.458.776L15.82 4.51l-2.007 1.068-2.007-1.068L9.8 5.577l-1.465-.776v4.895z"/><path fill="#1B2B40" d="M21.196 9.698H6.416v1.068h14.78V9.698z"/><defs><linearGradient id="a" x1="-53.931" x2="20.235" y1="27.183" y2="12.482" gradientUnits="userSpaceOnUse"><stop offset=".016" stop-color="#1B2B40"/><stop offset=".515" stop-color="#1B2B40"/><stop offset=".596" stop-color="#1B2B40"/><stop offset=".711" stop-color="#2E3C4F"/><stop offset=".849" stop-color="#4B5766"/><stop offset="1" stop-color="#1B2B40"/></linearGradient></defs></svg>