<svg xmlns="http://www.w3.org/2000/svg" width="80" height="80" fill="none"><path fill="#6C93C0" d="M13.188 20.21h54.048v38.179H13.187V20.21z"/><path fill="#64ACFF" d="M68.832 26.07H11.168A3.168 3.168 0 018 22.904v-9.735A3.168 3.168 0 0111.168 10h57.664A3.168 3.168 0 0172 13.168v9.735a3.168 3.168 0 01-3.168 3.168zm0 21.265H11.168A3.168 3.168 0 018 44.167v-9.735a3.168 3.168 0 013.168-3.168h57.664A3.168 3.168 0 0172 34.432v9.735a3.168 3.168 0 01-3.168 3.168zm0 21.263H11.168A3.168 3.168 0 018 65.43v-9.735a3.168 3.168 0 013.168-3.168h57.664A3.168 3.168 0 0172 55.695v9.735a3.168 3.168 0 01-3.168 3.168z"/><path fill="#51A0FB" d="M68.828 10h-5.254a2.451 2.451 0 012.452 2.451V23.62a2.451 2.451 0 01-2.452 2.452h5.254a3.168 3.168 0 003.168-3.168v-9.735A3.168 3.168 0 0068.828 10zm0 21.264h-5.254a2.451 2.451 0 012.452 2.451v11.168a2.451 2.451 0 01-2.452 2.452h5.254a3.168 3.168 0 003.168-3.168v-9.735a3.168 3.168 0 00-3.168-3.168zm0 21.263h-5.254a2.451 2.451 0 012.452 2.452v11.168a2.451 2.451 0 01-2.452 2.451h5.254a3.168 3.168 0 003.168-3.168v-9.735a3.168 3.168 0 00-3.168-3.168z"/><path fill="#99C8FF" d="M43.403 16.67H13.186a1.174 1.174 0 110-2.349h30.217a1.174 1.174 0 110 2.349zm0 5.08H13.186a1.174 1.174 0 110-2.347h30.217a1.174 1.174 0 110 2.348zm0 16.253H13.186a1.174 1.174 0 110-2.349h30.217a1.174 1.174 0 110 2.349zm0 5.08H13.186a1.175 1.175 0 010-2.347h30.217a1.174 1.174 0 110 2.348zm0 16.253H13.186a1.174 1.174 0 110-2.349h30.217a1.174 1.174 0 010 2.349zm0 5.08H13.186a1.174 1.174 0 110-2.347h30.217a1.174 1.174 0 010 2.348z"/><path fill="#DAFF7C" d="M62.432 21.64a3.608 3.608 0 01-3.604-3.604 3.608 3.608 0 013.604-3.603 3.608 3.608 0 013.603 3.603 3.608 3.608 0 01-3.603 3.604zm0 21.259a3.608 3.608 0 01-3.604-3.604 3.608 3.608 0 013.604-3.604 3.608 3.608 0 013.603 3.604 3.608 3.608 0 01-3.603 3.604zm0 21.267a3.608 3.608 0 01-3.604-3.603 3.608 3.608 0 013.604-3.604 3.608 3.608 0 013.603 3.604 3.608 3.608 0 01-3.603 3.603z"/></svg>