<svg width="8" height="7" fill="none" xmlns="http://www.w3.org/2000/svg"><path d="M3.246 6.742c-.039-.04-.204-.19-.34-.328C2.051 5.598.651 3.47.223 2.357.155 2.187.01 1.76 0 1.532c0-.22.048-.428.145-.627A1.27 1.27 0 01.748.348c.175-.07.7-.179.71-.179C2.03.06 2.963 0 3.994 0c.982 0 1.876.06 2.459.15.01.01.661.119.885.238.408.219.661.646.661 1.104v.04c-.01.298-.263.924-.273.924C7.3 3.51 5.968 5.588 5.083 6.424c0 0-.227.235-.369.337a1.15 1.15 0 01-.71.239 1.21 1.21 0 01-.758-.258z" fill="#D2D2D2"/></svg>