<svg width="278" height="297" fill="none" xmlns="http://www.w3.org/2000/svg"><path fill-rule="evenodd" clip-rule="evenodd" d="M133.554 92.278L174.031.807l.958.17 5.206 109.6 97.375-7.479.294.906-77.47 44.794 56.071 82.409-.669.691-85.601-48.978-45.028 113.256-.966-.165-2.748-123.019L.563 162.335l-.138-.94 100.577-38.86L34.536 18.804l.73-.645 98.288 74.119zM174.09 3.133l-40.128 90.685-97.097-73.22 65.621 102.413-99.74 38.536 119.687 10.551 2.713 121.434 44.541-112.033 84.749 48.49-55.457-81.507 76.523-44.246-96.258 7.392L174.09 3.133z" fill="#FFA3BB"/><path d="M169.656 144.546l33.824-19.558-42.492 3.263-2.27-47.794-17.682 39.956-42.886-32.34 28.99 45.244-43.902 16.962 52.67 4.644 1.198 53.589 19.637-49.394 37.378 21.386-24.465-35.958z" fill="#FFA3BB"/></svg>