<svg xmlns="http://www.w3.org/2000/svg" width="218" height="252" fill="none"><path fill="#64ACFF" fill-rule="evenodd" d="M77.08.998l.585-.142L112.193 77.6l73.909-66.76.466.415-48.182 90.936 79.475 29.677-.061.639-93.569 13.334 1.981 105.153-.59.139-38.781-95.166-64.9 44.845-.43-.448 40.82-72.365L.614 92.44l.157-.62 75.932 2.978.378-93.8zm.61 1.432l-.375 93.052-75.243-2.95 61.12 35.214-40.466 71.737 64.389-44.492 38.45 94.353-1.96-104.081 92.832-13.229-78.951-29.482 47.697-90.021-73.2 66.12L77.69 2.43z" clip-rule="evenodd"/><path fill="#64ACFF" d="M85.94 123.327L59.026 107.82l33.099 1.299.164-40.865 15.064 33.478 32.213-29.098-20.994 39.623 34.651 12.939-40.735 5.806.861 45.773-16.897-41.465-28.304 19.558 17.793-31.541z"/></svg>