<svg xmlns="http://www.w3.org/2000/svg" width="40" height="40" fill="none"><path fill="#A2CDFF" d="M15.552 6.926a1.07 1.07 0 001.079-1.08c0-.908.733-1.685 1.683-1.685H33.16c.906 0 1.683.734 1.683 1.685V20.71c0 .907-.734 1.685-1.684 1.685a1.07 1.07 0 00-1.078 1.08c0 .605.474 1.08 1.078 1.08A3.852 3.852 0 0037 20.711V5.846A3.852 3.852 0 0033.16 2H18.314a3.852 3.852 0 00-3.841 3.846c0 .605.474 1.08 1.079 1.08z"/><path fill="#64ACFF" d="M30.698 26.932V12.068a3.852 3.852 0 00-3.841-3.846H12.054a3.852 3.852 0 00-3.841 3.846c0 .605.475 1.08 1.079 1.08a1.07 1.07 0 001.079-1.08c0-.908.733-1.686 1.683-1.686H26.9c.906 0 1.683.735 1.683 1.686v14.864c0 .908-.734 1.686-1.683 1.686a1.07 1.07 0 00-1.08 1.08c0 .605.476 1.08 1.08 1.08 2.071 0 3.798-1.728 3.798-3.846z"/><path fill="#3593FF" d="M20.644 14.444H5.84A3.852 3.852 0 002 18.288v14.865A3.852 3.852 0 005.84 37h14.847a3.852 3.852 0 003.84-3.846V18.29c-.042-2.117-1.769-3.846-3.883-3.846zm1.683 18.71c0 .908-.734 1.685-1.683 1.685H5.84a1.686 1.686 0 01-1.683-1.685V18.29c0-.907.733-1.685 1.683-1.685h14.846c.906 0 1.683.735 1.683 1.685v14.865h-.043z"/><path fill="#3593FF" d="M22.327 33.154c0 .908-.734 1.685-1.683 1.685H5.84a1.686 1.686 0 01-1.683-1.685V18.29c0-.907.733-1.685 1.683-1.685h14.846c.906 0 1.683.735 1.683 1.685v14.865h-.043z"/><path fill="#D6E8FE" d="M15.525 19.559c-1.785-.653-3.732-.599-5.463.217-1.732.817-3.084 2.232-3.733 4.029-.65 1.796-.595 3.755.216 5.497.812 1.742 2.218 3.103 4.003 3.756.108.054.217.054.325.054.379 0 .757-.217.865-.598a1.013 1.013 0 00-.54-1.252 5.328 5.328 0 01-2.976-2.776c-.595-1.307-.649-2.722-.162-4.028a5.335 5.335 0 012.759-2.994c1.298-.599 2.704-.653 4.003-.163a5.202 5.202 0 012.759 2.395l-1.623.054 2.813 4.736 2.65-4.845-1.785.055c-.703-1.905-2.218-3.375-4.111-4.137z"/></svg>