<svg xmlns="http://www.w3.org/2000/svg" width="40" height="40" fill="none"><path fill="#FF7DA0" fill-rule="evenodd" d="M20 35.924c-11.035 0-20-2.366-20-5.287 0-2.92 8.965-5.301 20-5.301s20 2.381 20 5.302c0 2.92-8.965 5.286-20 5.286zm0-10.513C9.129 25.41.298 27.687.298 30.488c0 2.785 8.83 5.062 19.702 5.062 10.871 0 19.702-2.277 19.702-5.062 0-2.8-8.83-5.077-19.702-5.077zm0 8.776c-9.695 0-17.573-1.827-17.573-4.074 0-2.246 7.878-4.073 17.573-4.073s17.573 1.827 17.573 4.073c0 2.247-7.878 4.074-17.573 4.074zm0-8.087c-9.53 0-17.275 1.752-17.275 3.894 0 2.141 7.744 3.878 17.275 3.878 9.53 0 17.275-1.737 17.275-3.878 0-2.142-7.744-3.894-17.275-3.894zM8.935 29.874c-.223-.345-.104-.72.358-1.064.387-.284.997-.554 1.802-.778.863-.255 1.935-.465 3.172-.63l.58.21c-1.117.15-2.085.33-2.859.57-.73.21-1.266.449-1.608.703-.432.3-.536.644-.328.959l-1.117.03zm4.632 1.662l.64-.21c1.608.255 3.5.39 5.465.405l-.044.254c-2.19-.015-4.29-.164-6.061-.449zm14.296-.629c1.266-.344 2.025-.779 2.19-1.228l1.116.03c-.179.494-1.013.959-2.442 1.348l-.864-.15zm-3.917-3.43l.432-.24c2.204.21 4.021.555 5.242 1.02l-.953.12c-1.117-.405-2.74-.72-4.72-.9zm3.023 2.067c0 .914-3.112 1.648-6.969 1.648-3.842 0-6.97-.734-6.97-1.648 0-.928 3.128-1.662 6.97-1.662 3.857 0 6.97.734 6.97 1.662zm-12.315 3.01c-2.026-.18-3.887-.464-5.376-.808-1.221-.285-2.175-.614-2.86-.974-.73-.39-1.087-.793-1.087-1.213h1.52c0 .375.327.734.982 1.093.596.315 1.475.614 2.576.87 1.326.314 3.009.568 4.825.733l-.58.3zm11.958-.03l-.61-.299c2.427-.225 4.482-.599 5.927-1.093l1.28.18c-1.608.539-3.887.958-6.597 1.213zm6.642-3.983c-.953-.554-2.65-1.034-4.914-1.378l.878-.27c2.517.39 4.393.914 5.466 1.528l-1.43.12zm-20.82-1.348l-.908-.255c2.607-.419 5.704-.629 8.936-.629v.33c-2.904 0-5.69.195-8.027.554z" clip-rule="evenodd"/><ellipse cx="20" cy="29.538" fill="#254567" rx="7.059" ry="1.681"/><path fill="#388EF0" d="M21.056 5.134h-1.328c-6 0-10.857 5.412-10.857 12.084s4.857 12.067 10.857 12.067h1.328c5.983 0 10.84-5.395 10.84-12.067 0-6.672-4.857-12.084-10.84-12.084z"/><path fill="#388EF0" fill-rule="evenodd" d="M21.058 29.42H19.73c-6.067 0-10.992-5.479-10.992-12.202C8.738 10.48 13.663 5 19.73 5h1.328c6.05 0 10.974 5.479 10.974 12.218 0 6.723-4.924 12.202-10.974 12.202zM19.73 5.27c-5.916 0-10.723 5.361-10.723 11.95 0 6.588 4.807 11.932 10.723 11.932h1.328c5.899 0 10.706-5.344 10.706-11.933 0-6.588-4.807-11.95-10.706-11.95H19.73z" clip-rule="evenodd"/><path fill="#388EF0" d="M29.04 25.386c1.764-2.15 2.856-5.008 2.856-8.168v-.285H8.888c-.011.1-.017.196-.017.285 0 3.16 1.093 6.017 2.874 8.168h17.294z"/><path fill="#64ACFF" d="M8.871 17.218c0 6.672 4.857 12.067 10.857 12.067 5.983 0 10.84-5.395 10.84-12.067 0-6.672-4.857-12.084-10.84-12.084-6 0-10.857 5.412-10.857 12.084z"/><path fill="#64ACFF" fill-rule="evenodd" d="M19.73 29.42c-6.067 0-10.992-5.479-10.992-12.202C8.738 10.48 13.663 5 19.73 5c6.05 0 10.975 5.479 10.975 12.218 0 6.723-4.925 12.202-10.975 12.202zm0-24.151c-5.916 0-10.723 5.361-10.723 11.95 0 6.588 4.807 11.932 10.723 11.932 5.899 0 10.706-5.344 10.706-11.933 0-6.588-4.807-11.95-10.706-11.95z" clip-rule="evenodd"/><path fill="#B4D7FF" d="M18.787 15.117l.067-.034c.18-.044.359-.095.538-.15 3.445-.976 6.975-1.564 10.521-1.833-1.512-4.638-5.496-7.966-10.185-7.966-6 0-10.857 5.412-10.857 12.084 0 .594.04 1.17.118 1.73 2.974-1.831 6.554-2.907 9.798-3.831z"/><path fill="#B4D7FF" d="M10.84 17.218c0 5.462 3.966 9.899 8.89 9.899 4.908 0 8.875-4.437 8.875-9.9 0-5.478-3.967-9.899-8.874-9.899-4.925 0-8.891 4.42-8.891 9.9z"/><path fill="#64ACFF" d="M11.547 17.218c0 5.177 3.765 9.378 8.42 9.378 4.655 0 8.437-4.201 8.437-9.378 0-5.193-3.782-9.395-8.437-9.395-4.655 0-8.42 4.202-8.42 9.395z"/><path fill="#91C4FF" d="M14.891 17.134c2.32-.706 4.656-1.361 7.042-1.832 1.95-.403 4.017-.756 6.101-.857-1.059-3.832-4.269-6.622-8.067-6.622-4.655 0-8.42 4.202-8.42 9.395 0 .37.017.734.05 1.093a59.174 59.174 0 013.294-1.177z"/></svg>