<svg xmlns="http://www.w3.org/2000/svg" width="81" height="80" fill="none"><g clip-path="url(#a)"><path fill="#FF7DA0" fill-rule="evenodd" d="M40.4 71.849c-22.07 0-40-4.733-40-10.573 0-5.841 17.93-10.604 40-10.604s40 4.763 40 10.604c0 5.84-17.93 10.573-40 10.573zm0-21.027C18.658 50.822.996 55.375.996 60.976.996 66.547 18.658 71.1 40.4 71.1c21.743 0 39.405-4.553 39.405-10.124 0-5.601-17.662-10.154-39.405-10.154zm0 17.552c-19.389 0-35.145-3.654-35.145-8.147S21.011 52.08 40.4 52.08c19.39 0 35.146 3.654 35.146 8.147S59.79 68.374 40.4 68.374zm0-16.174c-19.061 0-34.55 3.504-34.55 7.788 0 4.283 15.489 7.757 34.55 7.757 19.062 0 34.55-3.474 34.55-7.757 0-4.284-15.488-7.788-34.55-7.788zm-22.13 7.548c-.446-.689-.208-1.438.716-2.127.774-.569 1.995-1.108 3.604-1.557 1.727-.51 3.871-.929 6.343-1.258l1.162.42c-2.234.299-4.17.658-5.718 1.137-1.46.42-2.532.899-3.217 1.408-.864.6-1.072 1.288-.655 1.917l-2.234.06zm9.264 3.325l1.28-.42c3.217.51 7 .78 10.931.81l-.09.508c-4.377-.03-8.577-.33-12.121-.898zm28.592-1.258c2.532-.69 4.051-1.558 4.379-2.456l2.233.06c-.357.988-2.025 1.917-4.884 2.695l-1.728-.3zm-7.833-6.86l.864-.479c4.408.42 8.042 1.109 10.484 2.037l-1.906.24c-2.234-.809-5.48-1.438-9.442-1.797zm6.046 4.134c0 1.827-6.224 3.295-13.939 3.295-7.684 0-13.939-1.468-13.939-3.295 0-1.857 6.255-3.325 13.94-3.325 7.713 0 13.938 1.468 13.938 3.325zm-24.631 6.02c-4.05-.359-7.774-.928-10.752-1.617-2.442-.569-4.349-1.228-5.719-1.947-1.46-.779-2.174-1.587-2.174-2.426h3.038c0 .749.655 1.468 1.966 2.187 1.191.629 2.948 1.228 5.152 1.737 2.651.629 6.017 1.138 9.65 1.467l-1.161.6zm23.916-.06l-1.22-.599c4.854-.449 8.964-1.198 11.853-2.186l2.562.36c-3.217 1.078-7.774 1.916-13.195 2.426zm13.284-7.967c-1.906-1.108-5.301-2.066-9.828-2.755l1.757-.54c5.033.78 8.786 1.828 10.93 3.056l-2.859.24zM25.27 54.386l-1.817-.509c5.213-.838 11.408-1.258 17.87-1.258v.66c-5.807 0-11.377.389-16.053 1.107z" clip-rule="evenodd"/><ellipse cx="40.401" cy="59.076" fill="#254567" rx="14.118" ry="3.361"/><path fill="#388EF0" d="M42.516 10.268h-2.655c-12 0-21.714 10.823-21.714 24.168 0 13.344 9.714 24.134 21.714 24.134h2.655c11.967 0 21.68-10.79 21.68-24.134 0-13.345-9.713-24.168-21.68-24.168z"/><path fill="#388EF0" fill-rule="evenodd" d="M42.518 58.84h-2.656c-12.134 0-21.983-10.958-21.983-24.403C17.879 20.958 27.728 10 39.862 10h2.656c12.1 0 21.95 10.958 21.95 24.437 0 13.445-9.85 24.403-21.95 24.403zm-2.656-48.302c-11.832 0-21.445 10.723-21.445 23.899s9.613 23.866 21.445 23.866h2.656c11.798 0 21.411-10.69 21.411-23.866s-9.613-23.9-21.411-23.9h-2.656z" clip-rule="evenodd"/><path fill="#388EF0" d="M58.483 50.773c3.529-4.302 5.714-10.017 5.714-16.336v-.571H18.18a5.19 5.19 0 00-.034.571c0 6.32 2.185 12.034 5.748 16.336h34.589z"/><path fill="#64ACFF" d="M18.146 34.436c0 13.344 9.715 24.134 21.715 24.134 11.966 0 21.68-10.79 21.68-24.134 0-13.345-9.714-24.168-21.68-24.168-12 0-21.714 10.823-21.714 24.168z"/><path fill="#64ACFF" fill-rule="evenodd" d="M39.862 58.84c-12.134 0-21.983-10.958-21.983-24.403C17.879 20.958 27.728 10 39.862 10c12.1 0 21.95 10.958 21.95 24.437 0 13.445-9.85 24.403-21.95 24.403zm0-48.302c-11.832 0-21.445 10.723-21.445 23.899s9.613 23.866 21.445 23.866c11.798 0 21.412-10.69 21.412-23.866s-9.614-23.9-21.412-23.9z" clip-rule="evenodd"/><path fill="#B4D7FF" d="M37.978 30.234l.135-.067c.358-.09.717-.19 1.075-.303 6.891-1.95 13.95-3.126 21.042-3.663-3.025-9.278-10.991-15.933-20.37-15.933-12 0-21.713 10.823-21.713 24.168 0 1.188.078 2.342.235 3.462 5.95-3.664 13.109-5.815 19.596-7.664z"/><path fill="#B4D7FF" d="M22.081 34.436c0 10.924 7.933 19.798 17.782 19.798 9.815 0 17.748-8.874 17.748-19.798 0-10.958-7.933-19.798-17.748-19.798-9.85 0-17.782 8.84-17.782 19.798z"/><path fill="#64ACFF" d="M23.493 34.436c0 10.353 7.53 18.756 16.84 18.756 9.311 0 16.875-8.403 16.875-18.756 0-10.387-7.564-18.79-16.874-18.79-9.311 0-16.84 8.403-16.84 18.79z"/><path fill="#91C4FF" d="M30.182 34.268c4.639-1.412 9.311-2.723 14.084-3.664 3.9-.807 8.034-1.513 12.202-1.714-2.118-7.664-8.538-13.244-16.135-13.244-9.31 0-16.84 8.403-16.84 18.79 0 .74.034 1.468.101 2.185 2.185-.84 4.37-1.647 6.588-2.353z"/></g><defs><clipPath id="a"><path fill="#fff" d="M.4 0h80v80H.4z"/></clipPath></defs></svg>