<svg xmlns="http://www.w3.org/2000/svg" width="40" height="40" fill="none"><path fill="#ECF6FD" d="M23.512 14.484h1.561v16.258h-1.561z"/><path fill="#D6E8FE" d="M24.293 14.484h.78v16.258h-.78z"/><path fill="#FF7DA0" d="M21.171 16.807h6.244V28.42h-6.244z"/><path fill="#F85D86" d="M24.293 16.807h3.122V28.42h-3.122z"/><path fill="#ECF6FD" d="M32.097 2h1.561v28.742h-1.561z"/><path fill="#D6E8FE" d="M32.878 2h.78v28.742h-.78z"/><path fill="#64ACFF" d="M29.756 4.322H36v24.097h-6.244z"/><path fill="#3593FF" d="M32.878 4.322H36v24.097h-3.122z"/><path fill="#ECF6FD" d="M6.341 25.807h1.561v12.194H6.341z"/><path fill="#D6E8FE" d="M7.122 25.807h.78v12.194h-.78z"/><path fill="#FF7DA0" d="M4 28.129h6.244v7.548H4z"/><path fill="#F85D86" d="M7.122 28.129h3.122v7.548H7.122z"/><path fill="#ECF6FD" d="M14.927 14.484h1.561V38h-1.561z"/><path fill="#D6E8FE" d="M15.707 14.484h.78V38h-.78z"/><path fill="#64ACFF" d="M12.585 16.807h6.244v18.871h-6.244z"/><path fill="#3593FF" d="M15.707 16.807h3.122v18.871h-3.122z"/></svg>